<svg xmlns="http://www.w3.org/2000/svg" xmlns:rdkit="http://www.rdkit.org/xml" xmlns:xlink="http://www.w3.org/1999/xlink" viewBox="-7.800000000000001 3.8999999999999986 215.60000000000002 192.2">
<path class="bond-0 atom-0 atom-2" d="M 86.7,83.6 L 86.7,69.3" style="fill:none;fill-rule:evenodd;stroke:rgb(249.62499999999997,192.025,134.87500000000003);stroke-width:2.0px;stroke-linecap:butt;stroke-linejoin:miter;stroke-opacity:1"/>
<path class="bond-0 atom-0 atom-2" d="M 86.7,69.3 L 86.7,55.1" style="fill:none;fill-rule:evenodd;stroke:rgb(249.62499999999997,134.87500000000003,134.87500000000003);stroke-width:2.0px;stroke-linecap:butt;stroke-linejoin:miter;stroke-opacity:1"/>
<path class="bond-1 atom-0 atom-4" d="M 86.7,116.0 L 86.7,130.5" style="fill:none;fill-rule:evenodd;stroke:rgb(249.62499999999997,192.025,134.87500000000003);stroke-width:2.0px;stroke-linecap:butt;stroke-linejoin:miter;stroke-opacity:1"/>
<path class="bond-1 atom-0 atom-4" d="M 86.7,130.5 L 86.7,144.9" style="fill:none;fill-rule:evenodd;stroke:rgb(249.62499999999997,134.87500000000003,134.87500000000003);stroke-width:2.0px;stroke-linecap:butt;stroke-linejoin:miter;stroke-opacity:1"/>
<path class="bond-2 atom-0 atom-3" d="M 97.8,99.8 L 115.5,99.8" style="fill:none;fill-rule:evenodd;stroke:rgb(249.62499999999997,192.025,134.87500000000003);stroke-width:2.0px;stroke-linecap:butt;stroke-linejoin:miter;stroke-opacity:1"/>
<path class="bond-2 atom-0 atom-3" d="M 115.5,99.8 L 133.2,99.8" style="fill:none;fill-rule:evenodd;stroke:rgb(249.62499999999997,134.87500000000003,134.87500000000003);stroke-width:2.0px;stroke-linecap:butt;stroke-linejoin:miter;stroke-opacity:1"/>
<path class="bond-3 atom-0 atom-1" d="M 75.6,95.2 L 57.9,95.2" style="fill:none;fill-rule:evenodd;stroke:rgb(249.62499999999997,192.025,134.87500000000003);stroke-width:2.0px;stroke-linecap:butt;stroke-linejoin:miter;stroke-opacity:1"/>
<path class="bond-3 atom-0 atom-1" d="M 57.9,95.2 L 40.2,95.2" style="fill:none;fill-rule:evenodd;stroke:rgb(249.62499999999997,134.87500000000003,134.87500000000003);stroke-width:2.0px;stroke-linecap:butt;stroke-linejoin:miter;stroke-opacity:1"/>
<path class="bond-3 atom-0 atom-1" d="M 75.6,104.4 L 57.9,104.4" style="fill:none;fill-rule:evenodd;stroke:rgb(249.62499999999997,192.025,134.87500000000003);stroke-width:2.0px;stroke-linecap:butt;stroke-linejoin:miter;stroke-opacity:1"/>
<path class="bond-3 atom-0 atom-1" d="M 57.9,104.4 L 40.2,104.4" style="fill:none;fill-rule:evenodd;stroke:rgb(249.62499999999997,134.87500000000003,134.87500000000003);stroke-width:2.0px;stroke-linecap:butt;stroke-linejoin:miter;stroke-opacity:1"/>
<path class="atom-0" d="M 86.0 85.6 Q 90.9 85.6, 93.3 87.8 Q 95.8 90.0, 95.8 93.9 Q 95.8 97.9, 93.2 100.1 Q 90.8 102.3, 86.0 102.3 L 81.5 102.3 L 81.5 113.9 L 77.7 113.9 L 77.7 85.6 L 86.0 85.6 M 86.0 99.1 Q 88.8 99.1, 90.3 97.8 Q 91.8 96.5, 91.8 93.9 Q 91.8 91.4, 90.3 90.1 Q 88.8 88.8, 86.0 88.8 L 81.5 88.8 L 81.5 99.1 L 86.0 99.1 " fill="rgb(249.62499999999997,192.025,134.87500000000003)"/>
<path class="atom-1" d="M 12.2 99.9 Q 12.2 93.1, 15.6 89.3 Q 18.9 85.5, 25.2 85.5 Q 31.5 85.5, 34.8 89.3 Q 38.2 93.1, 38.2 99.9 Q 38.2 106.7, 34.8 110.7 Q 31.4 114.5, 25.2 114.5 Q 19.0 114.5, 15.6 110.7 Q 12.2 106.8, 12.2 99.9 M 25.2 111.3 Q 29.5 111.3, 31.8 108.5 Q 34.2 105.5, 34.2 99.9 Q 34.2 94.3, 31.8 91.5 Q 29.5 88.7, 25.2 88.7 Q 20.9 88.7, 18.5 91.5 Q 16.2 94.3, 16.2 99.9 Q 16.2 105.6, 18.5 108.5 Q 20.9 111.3, 25.2 111.3 " fill="rgb(249.62499999999997,134.87500000000003,134.87500000000003)"/>
<path class="atom-2" d="M 73.7 38.3 Q 73.7 31.5, 77.1 27.7 Q 80.4 23.9, 86.7 23.9 Q 93.0 23.9, 96.4 27.7 Q 99.7 31.5, 99.7 38.3 Q 99.7 45.2, 96.3 49.1 Q 92.9 53.0, 86.7 53.0 Q 80.5 53.0, 77.1 49.1 Q 73.7 45.3, 73.7 38.3 M 86.7 49.8 Q 91.0 49.8, 93.4 46.9 Q 95.7 44.0, 95.7 38.3 Q 95.7 32.8, 93.4 30.0 Q 91.0 27.1, 86.7 27.1 Q 82.4 27.1, 80.0 29.9 Q 77.7 32.7, 77.7 38.3 Q 77.7 44.1, 80.0 46.9 Q 82.4 49.8, 86.7 49.8 " fill="rgb(249.62499999999997,134.87500000000003,134.87500000000003)"/>
<path class="atom-2" d="M 103.8 28.6 L 113.4 28.6 L 113.4 30.7 L 103.8 30.7 L 103.8 28.6 " fill="rgb(249.62499999999997,134.87500000000003,134.87500000000003)"/>
<path class="atom-3" d="M 135.2 99.9 Q 135.2 93.1, 138.6 89.3 Q 141.9 85.5, 148.2 85.5 Q 154.5 85.5, 157.9 89.3 Q 161.2 93.1, 161.2 99.9 Q 161.2 106.7, 157.8 110.7 Q 154.4 114.5, 148.2 114.5 Q 142.0 114.5, 138.6 110.7 Q 135.2 106.8, 135.2 99.9 M 148.2 111.3 Q 152.5 111.3, 154.9 108.5 Q 157.2 105.5, 157.2 99.9 Q 157.2 94.3, 154.9 91.5 Q 152.5 88.7, 148.2 88.7 Q 143.9 88.7, 141.5 91.5 Q 139.2 94.3, 139.2 99.9 Q 139.2 105.6, 141.5 108.5 Q 143.9 111.3, 148.2 111.3 " fill="rgb(249.62499999999997,134.87500000000003,134.87500000000003)"/>
<path class="atom-3" d="M 165.6 85.8 L 169.5 85.8 L 169.5 97.8 L 184.0 97.8 L 184.0 85.8 L 187.8 85.8 L 187.8 114.1 L 184.0 114.1 L 184.0 101.0 L 169.5 101.0 L 169.5 114.1 L 165.6 114.1 L 165.6 85.8 " fill="rgb(249.62499999999997,134.87500000000003,134.87500000000003)"/>
<path class="atom-4" d="M 73.7 161.4 Q 73.7 154.6, 77.1 150.8 Q 80.4 147.0, 86.7 147.0 Q 93.0 147.0, 96.4 150.8 Q 99.7 154.6, 99.7 161.4 Q 99.7 168.3, 96.3 172.2 Q 92.9 176.1, 86.7 176.1 Q 80.5 176.1, 77.1 172.2 Q 73.7 168.3, 73.7 161.4 M 86.7 172.9 Q 91.0 172.9, 93.4 170.0 Q 95.7 167.1, 95.7 161.4 Q 95.7 155.8, 93.4 153.0 Q 91.0 150.2, 86.7 150.2 Q 82.4 150.2, 80.0 153.0 Q 77.7 155.8, 77.7 161.4 Q 77.7 167.1, 80.0 170.0 Q 82.4 172.9, 86.7 172.9 " fill="rgb(249.62499999999997,134.87500000000003,134.87500000000003)"/>
<path class="atom-4" d="M 103.8 151.6 L 113.4 151.6 L 113.4 153.7 L 103.8 153.7 L 103.8 151.6 " fill="rgb(249.62499999999997,134.87500000000003,134.87500000000003)"/>
</svg>