<svg xmlns="http://www.w3.org/2000/svg" xmlns:rdkit="http://www.rdkit.org/xml" xmlns:xlink="http://www.w3.org/1999/xlink" viewBox="-10.9 45.8 221.8 108.39999999999999">
<path class="bond-0 atom-0 atom-1" d="M 40.3,105.3 L 46.1,105.4" style="fill:none;fill-rule:evenodd;stroke:#FF7F00;stroke-width:2.0px;stroke-linecap:butt;stroke-linejoin:miter;stroke-opacity:1"/>
<path class="bond-0 atom-0 atom-1" d="M 46.1,105.4 L 51.8,105.5" style="fill:none;fill-rule:evenodd;stroke:#FF0000;stroke-width:2.0px;stroke-linecap:butt;stroke-linejoin:miter;stroke-opacity:1"/>
<path class="bond-1 atom-0 atom-2" d="M 31.5,105.2 L 26.0,105.2" style="fill:none;fill-rule:evenodd;stroke:#FF7F00;stroke-width:2.0px;stroke-linecap:butt;stroke-linejoin:miter;stroke-opacity:1"/>
<path class="bond-1 atom-0 atom-2" d="M 26.0,105.2 L 20.4,105.2" style="fill:none;fill-rule:evenodd;stroke:#FF0000;stroke-width:2.0px;stroke-linecap:butt;stroke-linejoin:miter;stroke-opacity:1"/>
<path class="bond-2 atom-0 atom-3" d="M 36.0,98.7 L 36.1,94.9" style="fill:none;fill-rule:evenodd;stroke:#FF7F00;stroke-width:2.0px;stroke-linecap:butt;stroke-linejoin:miter;stroke-opacity:1"/>
<path class="bond-2 atom-0 atom-3" d="M 36.1,94.9 L 36.2,91.2" style="fill:none;fill-rule:evenodd;stroke:#FF0000;stroke-width:2.0px;stroke-linecap:butt;stroke-linejoin:miter;stroke-opacity:1"/>
<path class="bond-3 atom-0 atom-4" d="M 34.2,111.7 L 34.2,115.4" style="fill:none;fill-rule:evenodd;stroke:#FF7F00;stroke-width:2.0px;stroke-linecap:butt;stroke-linejoin:miter;stroke-opacity:1"/>
<path class="bond-3 atom-0 atom-4" d="M 34.2,115.4 L 34.1,119.2" style="fill:none;fill-rule:evenodd;stroke:#FF0000;stroke-width:2.0px;stroke-linecap:butt;stroke-linejoin:miter;stroke-opacity:1"/>
<path class="bond-3 atom-0 atom-4" d="M 37.5,111.7 L 37.5,115.5" style="fill:none;fill-rule:evenodd;stroke:#FF7F00;stroke-width:2.0px;stroke-linecap:butt;stroke-linejoin:miter;stroke-opacity:1"/>
<path class="bond-3 atom-0 atom-4" d="M 37.5,115.5 L 37.4,119.2" style="fill:none;fill-rule:evenodd;stroke:#FF0000;stroke-width:2.0px;stroke-linecap:butt;stroke-linejoin:miter;stroke-opacity:1"/>
<path class="bond-4 atom-1 atom-5" d="M 63.9,102.1 L 70.7,98.2" style="fill:none;fill-rule:evenodd;stroke:#FF0000;stroke-width:2.0px;stroke-linecap:butt;stroke-linejoin:miter;stroke-opacity:1"/>
<path class="bond-4 atom-1 atom-5" d="M 70.7,98.2 L 77.5,94.3" style="fill:none;fill-rule:evenodd;stroke:#000000;stroke-width:2.0px;stroke-linecap:butt;stroke-linejoin:miter;stroke-opacity:1"/>
<path class="bond-5 atom-5 atom-6" d="M 77.5,94.3 L 97.1,105.6" style="fill:none;fill-rule:evenodd;stroke:#000000;stroke-width:2.0px;stroke-linecap:butt;stroke-linejoin:miter;stroke-opacity:1"/>
<path class="bond-6 atom-5 atom-7" d="M 79.1,95.2 L 79.1,86.8" style="fill:none;fill-rule:evenodd;stroke:#000000;stroke-width:2.0px;stroke-linecap:butt;stroke-linejoin:miter;stroke-opacity:1"/>
<path class="bond-6 atom-5 atom-7" d="M 79.1,86.8 L 79.1,78.4" style="fill:none;fill-rule:evenodd;stroke:#FF0000;stroke-width:2.0px;stroke-linecap:butt;stroke-linejoin:miter;stroke-opacity:1"/>
<path class="bond-6 atom-5 atom-7" d="M 75.8,95.2 L 75.8,86.8" style="fill:none;fill-rule:evenodd;stroke:#000000;stroke-width:2.0px;stroke-linecap:butt;stroke-linejoin:miter;stroke-opacity:1"/>
<path class="bond-6 atom-5 atom-7" d="M 75.8,86.8 L 75.8,78.4" style="fill:none;fill-rule:evenodd;stroke:#FF0000;stroke-width:2.0px;stroke-linecap:butt;stroke-linejoin:miter;stroke-opacity:1"/>
<path class="bond-7 atom-6 atom-8" d="M 97.1,105.6 L 116.5,94.3" style="fill:none;fill-rule:evenodd;stroke:#000000;stroke-width:2.0px;stroke-linecap:butt;stroke-linejoin:miter;stroke-opacity:1"/>
<path class="bond-8 atom-6 atom-9" d="M 97.1,105.6 L 97.9,113.2 L 96.2,113.2 Z" style="fill:#000000;fill-rule:evenodd;fill-opacity:1;stroke:#000000;stroke-width:0.5px;stroke-linecap:butt;stroke-linejoin:miter;stroke-opacity:1;"/>
<path class="bond-8 atom-6 atom-9" d="M 97.9,113.2 L 95.4,120.9 L 98.7,120.9 Z" style="fill:#FF0000;fill-rule:evenodd;fill-opacity:1;stroke:#FF0000;stroke-width:0.5px;stroke-linecap:butt;stroke-linejoin:miter;stroke-opacity:1;"/>
<path class="bond-8 atom-6 atom-9" d="M 97.9,113.2 L 96.2,113.2 L 95.4,120.9 Z" style="fill:#FF0000;fill-rule:evenodd;fill-opacity:1;stroke:#FF0000;stroke-width:0.5px;stroke-linecap:butt;stroke-linejoin:miter;stroke-opacity:1;"/>
<path class="bond-9 atom-8 atom-10" d="M 116.5,94.3 L 123.3,98.2" style="fill:none;fill-rule:evenodd;stroke:#000000;stroke-width:2.0px;stroke-linecap:butt;stroke-linejoin:miter;stroke-opacity:1"/>
<path class="bond-9 atom-8 atom-10" d="M 123.3,98.2 L 130.1,102.1" style="fill:none;fill-rule:evenodd;stroke:#FF0000;stroke-width:2.0px;stroke-linecap:butt;stroke-linejoin:miter;stroke-opacity:1"/>
<path class="bond-10 atom-10 atom-11" d="M 142.2,105.6 L 147.8,105.6" style="fill:none;fill-rule:evenodd;stroke:#FF0000;stroke-width:2.0px;stroke-linecap:butt;stroke-linejoin:miter;stroke-opacity:1"/>
<path class="bond-10 atom-10 atom-11" d="M 147.8,105.6 L 153.4,105.6" style="fill:none;fill-rule:evenodd;stroke:#FF7F00;stroke-width:2.0px;stroke-linecap:butt;stroke-linejoin:miter;stroke-opacity:1"/>
<path class="bond-11 atom-11 atom-12" d="M 162.3,105.6 L 168.1,105.7" style="fill:none;fill-rule:evenodd;stroke:#FF7F00;stroke-width:2.0px;stroke-linecap:butt;stroke-linejoin:miter;stroke-opacity:1"/>
<path class="bond-11 atom-11 atom-12" d="M 168.1,105.7 L 174.0,105.8" style="fill:none;fill-rule:evenodd;stroke:#FF0000;stroke-width:2.0px;stroke-linecap:butt;stroke-linejoin:miter;stroke-opacity:1"/>
<path class="bond-12 atom-11 atom-13" d="M 158.0,99.1 L 158.0,95.2" style="fill:none;fill-rule:evenodd;stroke:#FF7F00;stroke-width:2.0px;stroke-linecap:butt;stroke-linejoin:miter;stroke-opacity:1"/>
<path class="bond-12 atom-11 atom-13" d="M 158.0,95.2 L 158.1,91.3" style="fill:none;fill-rule:evenodd;stroke:#FF0000;stroke-width:2.0px;stroke-linecap:butt;stroke-linejoin:miter;stroke-opacity:1"/>
<path class="bond-13 atom-11 atom-14" d="M 156.1,112.1 L 156.1,115.9" style="fill:none;fill-rule:evenodd;stroke:#FF7F00;stroke-width:2.0px;stroke-linecap:butt;stroke-linejoin:miter;stroke-opacity:1"/>
<path class="bond-13 atom-11 atom-14" d="M 156.1,115.9 L 156.1,119.8" style="fill:none;fill-rule:evenodd;stroke:#FF0000;stroke-width:2.0px;stroke-linecap:butt;stroke-linejoin:miter;stroke-opacity:1"/>
<path class="bond-13 atom-11 atom-14" d="M 159.4,112.1 L 159.4,115.9" style="fill:none;fill-rule:evenodd;stroke:#FF7F00;stroke-width:2.0px;stroke-linecap:butt;stroke-linejoin:miter;stroke-opacity:1"/>
<path class="bond-13 atom-11 atom-14" d="M 159.4,115.9 L 159.4,119.8" style="fill:none;fill-rule:evenodd;stroke:#FF0000;stroke-width:2.0px;stroke-linecap:butt;stroke-linejoin:miter;stroke-opacity:1"/>
<path d="M 77.1,94.5 L 77.5,94.3 L 78.4,94.8" style="fill:none;stroke:#000000;stroke-width:2.0px;stroke-linecap:butt;stroke-linejoin:miter;stroke-opacity:1;"/>
<path d="M 96.1,105.0 L 97.1,105.6 L 98.0,105.0" style="fill:none;stroke:#000000;stroke-width:2.0px;stroke-linecap:butt;stroke-linejoin:miter;stroke-opacity:1;"/>
<path d="M 115.5,94.8 L 116.5,94.3 L 116.8,94.5" style="fill:none;stroke:#000000;stroke-width:2.0px;stroke-linecap:butt;stroke-linejoin:miter;stroke-opacity:1;"/>
<path class="atom-0" d="M 35.6 99.4 Q 37.6 99.4, 38.6 100.3 Q 39.6 101.2, 39.6 102.8 Q 39.6 104.4, 38.6 105.3 Q 37.6 106.2, 35.6 106.2 L 33.8 106.2 L 33.8 111.0 L 32.2 111.0 L 32.2 99.4 L 35.6 99.4 M 35.6 104.9 Q 36.8 104.9, 37.4 104.4 Q 38.0 103.8, 38.0 102.8 Q 38.0 101.8, 37.4 101.3 Q 36.8 100.7, 35.6 100.7 L 33.8 100.7 L 33.8 104.9 L 35.6 104.9 " fill="#FF7F00"/>
<path class="atom-1" d="M 52.6 105.6 Q 52.6 102.8, 53.9 101.3 Q 55.3 99.7, 57.9 99.7 Q 60.4 99.7, 61.8 101.3 Q 63.2 102.8, 63.2 105.6 Q 63.2 108.4, 61.8 110.0 Q 60.4 111.6, 57.9 111.6 Q 55.3 111.6, 53.9 110.0 Q 52.6 108.4, 52.6 105.6 M 57.9 110.3 Q 59.6 110.3, 60.6 109.1 Q 61.5 107.9, 61.5 105.6 Q 61.5 103.3, 60.6 102.2 Q 59.6 101.0, 57.9 101.0 Q 56.1 101.0, 55.1 102.2 Q 54.2 103.3, 54.2 105.6 Q 54.2 107.9, 55.1 109.1 Q 56.1 110.3, 57.9 110.3 " fill="#FF0000"/>
<path class="atom-2" d="M 9.1 105.2 Q 9.1 102.5, 10.5 100.9 Q 11.8 99.3, 14.4 99.3 Q 17.0 99.3, 18.3 100.9 Q 19.7 102.5, 19.7 105.2 Q 19.7 108.0, 18.3 109.6 Q 16.9 111.2, 14.4 111.2 Q 11.9 111.2, 10.5 109.6 Q 9.1 108.1, 9.1 105.2 M 14.4 109.9 Q 16.2 109.9, 17.1 108.7 Q 18.1 107.5, 18.1 105.2 Q 18.1 103.0, 17.1 101.8 Q 16.2 100.7, 14.4 100.7 Q 12.6 100.7, 11.7 101.8 Q 10.7 102.9, 10.7 105.2 Q 10.7 107.6, 11.7 108.7 Q 12.6 109.9, 14.4 109.9 " fill="#FF0000"/>
<path class="atom-2" d="M 21.4 101.2 L 25.3 101.2 L 25.3 102.1 L 21.4 102.1 L 21.4 101.2 " fill="#FF0000"/>
<path class="atom-3" d="M 31.0 84.5 Q 31.0 81.7, 32.3 80.1 Q 33.7 78.6, 36.3 78.6 Q 38.8 78.6, 40.2 80.1 Q 41.6 81.7, 41.6 84.5 Q 41.6 87.3, 40.2 88.9 Q 38.8 90.4, 36.3 90.4 Q 33.7 90.4, 32.3 88.9 Q 31.0 87.3, 31.0 84.5 M 36.3 89.1 Q 38.0 89.1, 39.0 88.0 Q 39.9 86.8, 39.9 84.5 Q 39.9 82.2, 39.0 81.0 Q 38.0 79.9, 36.3 79.9 Q 34.5 79.9, 33.5 81.0 Q 32.6 82.2, 32.6 84.5 Q 32.6 86.8, 33.5 88.0 Q 34.5 89.1, 36.3 89.1 " fill="#FF0000"/>
<path class="atom-3" d="M 43.2 80.5 L 47.2 80.5 L 47.2 81.3 L 43.2 81.3 L 43.2 80.5 " fill="#FF0000"/>
<path class="atom-4" d="M 30.4 125.8 Q 30.4 123.0, 31.8 121.5 Q 33.2 119.9, 35.7 119.9 Q 38.3 119.9, 39.7 121.5 Q 41.0 123.0, 41.0 125.8 Q 41.0 128.6, 39.6 130.2 Q 38.3 131.8, 35.7 131.8 Q 33.2 131.8, 31.8 130.2 Q 30.4 128.7, 30.4 125.8 M 35.7 130.5 Q 37.5 130.5, 38.4 129.3 Q 39.4 128.1, 39.4 125.8 Q 39.4 123.6, 38.4 122.4 Q 37.5 121.3, 35.7 121.3 Q 34.0 121.3, 33.0 122.4 Q 32.0 123.5, 32.0 125.8 Q 32.0 128.2, 33.0 129.3 Q 34.0 130.5, 35.7 130.5 " fill="#FF0000"/>
<path class="atom-7" d="M 72.2 71.7 Q 72.2 68.9, 73.5 67.4 Q 74.9 65.8, 77.5 65.8 Q 80.0 65.8, 81.4 67.4 Q 82.8 68.9, 82.8 71.7 Q 82.8 74.5, 81.4 76.1 Q 80.0 77.7, 77.5 77.7 Q 74.9 77.7, 73.5 76.1 Q 72.2 74.5, 72.2 71.7 M 77.5 76.4 Q 79.2 76.4, 80.2 75.2 Q 81.1 74.0, 81.1 71.7 Q 81.1 69.4, 80.2 68.3 Q 79.2 67.1, 77.5 67.1 Q 75.7 67.1, 74.7 68.3 Q 73.8 69.4, 73.8 71.7 Q 73.8 74.0, 74.7 75.2 Q 75.7 76.4, 77.5 76.4 " fill="#FF0000"/>
<path class="atom-9" d="M 91.7 128.2 Q 91.7 125.4, 93.1 123.9 Q 94.5 122.3, 97.1 122.3 Q 99.6 122.3, 101.0 123.9 Q 102.4 125.4, 102.4 128.2 Q 102.4 131.0, 101.0 132.6 Q 99.6 134.2, 97.1 134.2 Q 94.5 134.2, 93.1 132.6 Q 91.7 131.0, 91.7 128.2 M 97.1 132.9 Q 98.8 132.9, 99.8 131.7 Q 100.7 130.5, 100.7 128.2 Q 100.7 125.9, 99.8 124.8 Q 98.8 123.6, 97.1 123.6 Q 95.3 123.6, 94.3 124.8 Q 93.4 125.9, 93.4 128.2 Q 93.4 130.5, 94.3 131.7 Q 95.3 132.9, 97.1 132.9 " fill="#FF0000"/>
<path class="atom-9" d="M 104.2 122.4 L 105.7 122.4 L 105.7 127.4 L 111.7 127.4 L 111.7 122.4 L 113.2 122.4 L 113.2 134.0 L 111.7 134.0 L 111.7 128.7 L 105.7 128.7 L 105.7 134.0 L 104.2 134.0 L 104.2 122.4 " fill="#FF0000"/>
<path class="atom-10" d="M 130.8 105.6 Q 130.8 102.8, 132.2 101.3 Q 133.6 99.7, 136.2 99.7 Q 138.7 99.7, 140.1 101.3 Q 141.5 102.8, 141.5 105.6 Q 141.5 108.4, 140.1 110.0 Q 138.7 111.6, 136.2 111.6 Q 133.6 111.6, 132.2 110.0 Q 130.8 108.4, 130.8 105.6 M 136.2 110.3 Q 137.9 110.3, 138.9 109.1 Q 139.8 107.9, 139.8 105.6 Q 139.8 103.3, 138.9 102.2 Q 137.9 101.0, 136.2 101.0 Q 134.4 101.0, 133.4 102.2 Q 132.5 103.3, 132.5 105.6 Q 132.5 107.9, 133.4 109.1 Q 134.4 110.3, 136.2 110.3 " fill="#FF0000"/>
<path class="atom-11" d="M 157.6 99.8 Q 159.5 99.8, 160.5 100.7 Q 161.5 101.6, 161.5 103.2 Q 161.5 104.8, 160.5 105.7 Q 159.5 106.6, 157.6 106.6 L 155.7 106.6 L 155.7 111.3 L 154.2 111.3 L 154.2 99.8 L 157.6 99.8 M 157.6 105.3 Q 158.7 105.3, 159.3 104.7 Q 159.9 104.2, 159.9 103.2 Q 159.9 102.1, 159.3 101.6 Q 158.7 101.1, 157.6 101.1 L 155.7 101.1 L 155.7 105.3 L 157.6 105.3 " fill="#FF7F00"/>
<path class="atom-12" d="M 174.7 106.0 Q 174.7 103.2, 176.1 101.6 Q 177.4 100.1, 180.0 100.1 Q 182.6 100.1, 183.9 101.6 Q 185.3 103.2, 185.3 106.0 Q 185.3 108.8, 183.9 110.4 Q 182.5 112.0, 180.0 112.0 Q 177.4 112.0, 176.1 110.4 Q 174.7 108.8, 174.7 106.0 M 180.0 110.6 Q 181.8 110.6, 182.7 109.5 Q 183.7 108.3, 183.7 106.0 Q 183.7 103.7, 182.7 102.5 Q 181.8 101.4, 180.0 101.4 Q 178.2 101.4, 177.3 102.5 Q 176.3 103.7, 176.3 106.0 Q 176.3 108.3, 177.3 109.5 Q 178.2 110.6, 180.0 110.6 " fill="#FF0000"/>
<path class="atom-12" d="M 187.0 102.0 L 190.9 102.0 L 190.9 102.8 L 187.0 102.8 L 187.0 102.0 " fill="#FF0000"/>
<path class="atom-13" d="M 152.9 84.5 Q 152.9 81.8, 154.3 80.2 Q 155.6 78.7, 158.2 78.7 Q 160.8 78.7, 162.1 80.2 Q 163.5 81.8, 163.5 84.5 Q 163.5 87.4, 162.1 89.0 Q 160.7 90.5, 158.2 90.5 Q 155.7 90.5, 154.3 89.0 Q 152.9 87.4, 152.9 84.5 M 158.2 89.2 Q 160.0 89.2, 160.9 88.1 Q 161.9 86.9, 161.9 84.5 Q 161.9 82.3, 160.9 81.1 Q 160.0 80.0, 158.2 80.0 Q 156.4 80.0, 155.5 81.1 Q 154.5 82.3, 154.5 84.5 Q 154.5 86.9, 155.5 88.1 Q 156.4 89.2, 158.2 89.2 " fill="#FF0000"/>
<path class="atom-13" d="M 165.2 80.5 L 169.1 80.5 L 169.1 81.4 L 165.2 81.4 L 165.2 80.5 " fill="#FF0000"/>
<path class="atom-14" d="M 152.4 126.4 Q 152.4 123.6, 153.7 122.0 Q 155.1 120.5, 157.7 120.5 Q 160.2 120.5, 161.6 122.0 Q 163.0 123.6, 163.0 126.4 Q 163.0 129.2, 161.6 130.8 Q 160.2 132.4, 157.7 132.4 Q 155.1 132.4, 153.7 130.8 Q 152.4 129.2, 152.4 126.4 M 157.7 131.1 Q 159.4 131.1, 160.4 129.9 Q 161.3 128.7, 161.3 126.4 Q 161.3 124.1, 160.4 123.0 Q 159.4 121.8, 157.7 121.8 Q 155.9 121.8, 154.9 122.9 Q 154.0 124.1, 154.0 126.4 Q 154.0 128.7, 154.9 129.9 Q 155.9 131.1, 157.7 131.1 " fill="#FF0000"/>
</svg>