<svg xmlns="http://www.w3.org/2000/svg" xmlns:rdkit="http://www.rdkit.org/xml" xmlns:xlink="http://www.w3.org/1999/xlink" viewBox="-10.9 34.1 221.8 131.8">
<path class="bond-0 atom-0 atom-1" d="M 153.5,91.0 L 158.0,89.5" style="fill:none;fill-rule:evenodd;stroke:#0000FF;stroke-width:2.0px;stroke-linecap:butt;stroke-linejoin:miter;stroke-opacity:1"/>
<path class="bond-0 atom-0 atom-1" d="M 158.0,89.5 L 162.4,88.1" style="fill:none;fill-rule:evenodd;stroke:#000000;stroke-width:2.0px;stroke-linecap:butt;stroke-linejoin:miter;stroke-opacity:1"/>
<path class="bond-1 atom-2 atom-0" d="M 146.9,103.6 L 147.7,99.6 L 148.6,99.9 Z" style="fill:#000000;fill-rule:evenodd;fill-opacity:1;stroke:#000000;stroke-width:0.5px;stroke-linecap:butt;stroke-linejoin:miter;stroke-opacity:1;"/>
<path class="bond-1 atom-2 atom-0" d="M 147.7,99.6 L 150.3,96.1 L 148.5,95.6 Z" style="fill:#0000FF;fill-rule:evenodd;fill-opacity:1;stroke:#0000FF;stroke-width:0.5px;stroke-linecap:butt;stroke-linejoin:miter;stroke-opacity:1;"/>
<path class="bond-1 atom-2 atom-0" d="M 147.7,99.6 L 148.6,99.9 L 150.3,96.1 Z" style="fill:#0000FF;fill-rule:evenodd;fill-opacity:1;stroke:#0000FF;stroke-width:0.5px;stroke-linecap:butt;stroke-linejoin:miter;stroke-opacity:1;"/>
<path class="bond-2 atom-0 atom-3" d="M 148.1,88.3 L 145.8,85.1" style="fill:none;fill-rule:evenodd;stroke:#0000FF;stroke-width:2.0px;stroke-linecap:butt;stroke-linejoin:miter;stroke-opacity:1"/>
<path class="bond-2 atom-0 atom-3" d="M 145.8,85.1 L 143.5,81.9" style="fill:none;fill-rule:evenodd;stroke:#000000;stroke-width:2.0px;stroke-linecap:butt;stroke-linejoin:miter;stroke-opacity:1"/>
<path class="bond-3 atom-1 atom-4" d="M 162.4,88.1 L 162.4,75.8" style="fill:none;fill-rule:evenodd;stroke:#000000;stroke-width:2.0px;stroke-linecap:butt;stroke-linejoin:miter;stroke-opacity:1"/>
<path class="bond-3 atom-1 atom-4" d="M 160.6,86.7 L 160.6,77.1" style="fill:none;fill-rule:evenodd;stroke:#000000;stroke-width:2.0px;stroke-linecap:butt;stroke-linejoin:miter;stroke-opacity:1"/>
<path class="bond-4 atom-1 atom-5" d="M 162.4,88.1 L 166.3,90.3" style="fill:none;fill-rule:evenodd;stroke:#000000;stroke-width:2.0px;stroke-linecap:butt;stroke-linejoin:miter;stroke-opacity:1"/>
<path class="bond-4 atom-1 atom-5" d="M 166.3,90.3 L 170.3,92.6" style="fill:none;fill-rule:evenodd;stroke:#0000FF;stroke-width:2.0px;stroke-linecap:butt;stroke-linejoin:miter;stroke-opacity:1"/>
<path class="bond-5 atom-2 atom-6" d="M 146.9,103.6 L 142.7,105.0" style="fill:none;fill-rule:evenodd;stroke:#000000;stroke-width:2.0px;stroke-linecap:butt;stroke-linejoin:miter;stroke-opacity:1"/>
<path class="bond-5 atom-2 atom-6" d="M 142.7,105.0 L 138.5,106.3" style="fill:none;fill-rule:evenodd;stroke:#FF0000;stroke-width:2.0px;stroke-linecap:butt;stroke-linejoin:miter;stroke-opacity:1"/>
<path class="bond-6 atom-2 atom-7" d="M 146.9,103.6 L 154.1,113.6" style="fill:none;fill-rule:evenodd;stroke:#000000;stroke-width:2.0px;stroke-linecap:butt;stroke-linejoin:miter;stroke-opacity:1"/>
<path class="bond-7 atom-3 atom-8" d="M 143.5,81.9 L 145.8,78.7" style="fill:none;fill-rule:evenodd;stroke:#000000;stroke-width:2.0px;stroke-linecap:butt;stroke-linejoin:miter;stroke-opacity:1"/>
<path class="bond-7 atom-3 atom-8" d="M 145.8,78.7 L 148.1,75.5" style="fill:none;fill-rule:evenodd;stroke:#0000FF;stroke-width:2.0px;stroke-linecap:butt;stroke-linejoin:miter;stroke-opacity:1"/>
<path class="bond-7 atom-3 atom-8" d="M 145.8,81.9 L 147.7,79.3" style="fill:none;fill-rule:evenodd;stroke:#000000;stroke-width:2.0px;stroke-linecap:butt;stroke-linejoin:miter;stroke-opacity:1"/>
<path class="bond-7 atom-3 atom-8" d="M 147.7,79.3 L 149.6,76.6" style="fill:none;fill-rule:evenodd;stroke:#0000FF;stroke-width:2.0px;stroke-linecap:butt;stroke-linejoin:miter;stroke-opacity:1"/>
<path class="bond-8 atom-4 atom-9" d="M 162.4,75.8 L 173.1,69.6" style="fill:none;fill-rule:evenodd;stroke:#000000;stroke-width:2.0px;stroke-linecap:butt;stroke-linejoin:miter;stroke-opacity:1"/>
<path class="bond-9 atom-5 atom-10" d="M 175.9,92.6 L 179.8,90.3" style="fill:none;fill-rule:evenodd;stroke:#0000FF;stroke-width:2.0px;stroke-linecap:butt;stroke-linejoin:miter;stroke-opacity:1"/>
<path class="bond-9 atom-5 atom-10" d="M 179.8,90.3 L 183.7,88.1" style="fill:none;fill-rule:evenodd;stroke:#000000;stroke-width:2.0px;stroke-linecap:butt;stroke-linejoin:miter;stroke-opacity:1"/>
<path class="bond-9 atom-5 atom-10" d="M 175.0,91.0 L 178.4,89.0" style="fill:none;fill-rule:evenodd;stroke:#0000FF;stroke-width:2.0px;stroke-linecap:butt;stroke-linejoin:miter;stroke-opacity:1"/>
<path class="bond-9 atom-5 atom-10" d="M 178.4,89.0 L 181.9,87.0" style="fill:none;fill-rule:evenodd;stroke:#000000;stroke-width:2.0px;stroke-linecap:butt;stroke-linejoin:miter;stroke-opacity:1"/>
<path class="bond-10 atom-6 atom-11" d="M 135.2,111.1 L 135.2,115.4" style="fill:none;fill-rule:evenodd;stroke:#FF0000;stroke-width:2.0px;stroke-linecap:butt;stroke-linejoin:miter;stroke-opacity:1"/>
<path class="bond-10 atom-6 atom-11" d="M 135.2,115.4 L 135.2,119.7" style="fill:none;fill-rule:evenodd;stroke:#000000;stroke-width:2.0px;stroke-linecap:butt;stroke-linejoin:miter;stroke-opacity:1"/>
<path class="bond-11 atom-7 atom-12" d="M 154.1,113.6 L 146.9,123.5" style="fill:none;fill-rule:evenodd;stroke:#000000;stroke-width:2.0px;stroke-linecap:butt;stroke-linejoin:miter;stroke-opacity:1"/>
<path class="bond-12 atom-7 atom-43" d="M 158.4,114.5 L 158.4,112.6" style="fill:none;fill-rule:evenodd;stroke:#000000;stroke-width:1.0px;stroke-linecap:butt;stroke-linejoin:miter;stroke-opacity:1"/>
<path class="bond-13 atom-9 atom-13" d="M 173.1,69.6 L 177.0,71.9" style="fill:none;fill-rule:evenodd;stroke:#000000;stroke-width:2.0px;stroke-linecap:butt;stroke-linejoin:miter;stroke-opacity:1"/>
<path class="bond-13 atom-9 atom-13" d="M 177.0,71.9 L 180.9,74.1" style="fill:none;fill-rule:evenodd;stroke:#0000FF;stroke-width:2.0px;stroke-linecap:butt;stroke-linejoin:miter;stroke-opacity:1"/>
<path class="bond-13 atom-9 atom-13" d="M 173.1,71.7 L 176.5,73.7" style="fill:none;fill-rule:evenodd;stroke:#000000;stroke-width:2.0px;stroke-linecap:butt;stroke-linejoin:miter;stroke-opacity:1"/>
<path class="bond-13 atom-9 atom-13" d="M 176.5,73.7 L 180.0,75.7" style="fill:none;fill-rule:evenodd;stroke:#0000FF;stroke-width:2.0px;stroke-linecap:butt;stroke-linejoin:miter;stroke-opacity:1"/>
<path class="bond-14 atom-9 atom-14" d="M 173.1,69.6 L 173.1,65.2" style="fill:none;fill-rule:evenodd;stroke:#000000;stroke-width:2.0px;stroke-linecap:butt;stroke-linejoin:miter;stroke-opacity:1"/>
<path class="bond-14 atom-9 atom-14" d="M 173.1,65.2 L 173.1,60.9" style="fill:none;fill-rule:evenodd;stroke:#0000FF;stroke-width:2.0px;stroke-linecap:butt;stroke-linejoin:miter;stroke-opacity:1"/>
<path class="bond-15 atom-11 atom-15" d="M 135.2,119.7 L 126.2,127.4 L 124.2,126.5 Z" style="fill:#000000;fill-rule:evenodd;fill-opacity:1;stroke:#000000;stroke-width:0.5px;stroke-linecap:butt;stroke-linejoin:miter;stroke-opacity:1;"/>
<path class="bond-16 atom-12 atom-16" d="M 148.6,127.2 L 147.7,127.5" style="fill:none;fill-rule:evenodd;stroke:#000000;stroke-width:1.0px;stroke-linecap:butt;stroke-linejoin:miter;stroke-opacity:1"/>
<path class="bond-16 atom-12 atom-16" d="M 150.3,130.9 L 148.5,131.5" style="fill:none;fill-rule:evenodd;stroke:#FF0000;stroke-width:1.0px;stroke-linecap:butt;stroke-linejoin:miter;stroke-opacity:1"/>
<path class="bond-17 atom-15 atom-17" d="M 126.2,127.4 L 121.3,125.2" style="fill:none;fill-rule:evenodd;stroke:#000000;stroke-width:2.0px;stroke-linecap:butt;stroke-linejoin:miter;stroke-opacity:1"/>
<path class="bond-17 atom-15 atom-17" d="M 121.3,125.2 L 117.3,123.4" style="fill:none;fill-rule:evenodd;stroke:#FF0000;stroke-width:2.0px;stroke-linecap:butt;stroke-linejoin:miter;stroke-opacity:1"/>
<path class="bond-18 atom-18 atom-19" d="M 68.0,124.4 L 64.7,126.8" style="fill:none;fill-rule:evenodd;stroke:#FF0000;stroke-width:2.0px;stroke-linecap:butt;stroke-linejoin:miter;stroke-opacity:1"/>
<path class="bond-18 atom-18 atom-19" d="M 64.7,126.8 L 61.4,129.2" style="fill:none;fill-rule:evenodd;stroke:#000000;stroke-width:2.0px;stroke-linecap:butt;stroke-linejoin:miter;stroke-opacity:1"/>
<path class="bond-19 atom-20 atom-19" d="M 52.8,125.7 L 53.1,125.1" style="fill:none;fill-rule:evenodd;stroke:#000000;stroke-width:1.0px;stroke-linecap:butt;stroke-linejoin:miter;stroke-opacity:1"/>
<path class="bond-19 atom-20 atom-19" d="M 55.5,127.2 L 56.0,126.1" style="fill:none;fill-rule:evenodd;stroke:#000000;stroke-width:1.0px;stroke-linecap:butt;stroke-linejoin:miter;stroke-opacity:1"/>
<path class="bond-19 atom-20 atom-19" d="M 58.2,128.8 L 58.9,127.1" style="fill:none;fill-rule:evenodd;stroke:#000000;stroke-width:1.0px;stroke-linecap:butt;stroke-linejoin:miter;stroke-opacity:1"/>
<path class="bond-20 atom-20 atom-21" d="M 50.1,124.2 L 49.2,120.0" style="fill:none;fill-rule:evenodd;stroke:#000000;stroke-width:2.0px;stroke-linecap:butt;stroke-linejoin:miter;stroke-opacity:1"/>
<path class="bond-20 atom-20 atom-21" d="M 49.2,120.0 L 48.3,115.8" style="fill:none;fill-rule:evenodd;stroke:#FF0000;stroke-width:2.0px;stroke-linecap:butt;stroke-linejoin:miter;stroke-opacity:1"/>
<path class="bond-21 atom-20 atom-22" d="M 50.1,124.2 L 39.5,130.3" style="fill:none;fill-rule:evenodd;stroke:#000000;stroke-width:2.0px;stroke-linecap:butt;stroke-linejoin:miter;stroke-opacity:1"/>
<path class="bond-22 atom-21 atom-23" d="M 44.2,111.8 L 39.8,111.3" style="fill:none;fill-rule:evenodd;stroke:#FF0000;stroke-width:2.0px;stroke-linecap:butt;stroke-linejoin:miter;stroke-opacity:1"/>
<path class="bond-22 atom-21 atom-23" d="M 39.8,111.3 L 35.3,110.8" style="fill:none;fill-rule:evenodd;stroke:#000000;stroke-width:2.0px;stroke-linecap:butt;stroke-linejoin:miter;stroke-opacity:1"/>
<path class="bond-23 atom-22 atom-24" d="M 39.5,130.3 L 30.3,122.1" style="fill:none;fill-rule:evenodd;stroke:#000000;stroke-width:2.0px;stroke-linecap:butt;stroke-linejoin:miter;stroke-opacity:1"/>
<path class="bond-24 atom-22 atom-25" d="M 39.5,130.3 L 39.5,134.5 L 38.6,134.4 Z" style="fill:#000000;fill-rule:evenodd;fill-opacity:1;stroke:#000000;stroke-width:0.5px;stroke-linecap:butt;stroke-linejoin:miter;stroke-opacity:1;"/>
<path class="bond-24 atom-22 atom-25" d="M 39.5,134.5 L 37.7,138.5 L 39.5,138.7 Z" style="fill:#FF0000;fill-rule:evenodd;fill-opacity:1;stroke:#FF0000;stroke-width:0.5px;stroke-linecap:butt;stroke-linejoin:miter;stroke-opacity:1;"/>
<path class="bond-24 atom-22 atom-25" d="M 39.5,134.5 L 38.6,134.4 L 37.7,138.5 Z" style="fill:#FF0000;fill-rule:evenodd;fill-opacity:1;stroke:#FF0000;stroke-width:0.5px;stroke-linecap:butt;stroke-linejoin:miter;stroke-opacity:1;"/>
<path class="bond-25 atom-23 atom-26" d="M 34.2,107.1 L 32.6,108.0" style="fill:none;fill-rule:evenodd;stroke:#000000;stroke-width:1.0px;stroke-linecap:butt;stroke-linejoin:miter;stroke-opacity:1"/>
<path class="bond-26 atom-24 atom-27" d="M 30.3,122.1 L 26.2,123.4 L 26.1,122.5 Z" style="fill:#000000;fill-rule:evenodd;fill-opacity:1;stroke:#000000;stroke-width:0.5px;stroke-linecap:butt;stroke-linejoin:miter;stroke-opacity:1;"/>
<path class="bond-26 atom-24 atom-27" d="M 26.2,123.4 L 21.8,123.0 L 22.2,124.8 Z" style="fill:#FF0000;fill-rule:evenodd;fill-opacity:1;stroke:#FF0000;stroke-width:0.5px;stroke-linecap:butt;stroke-linejoin:miter;stroke-opacity:1;"/>
<path class="bond-26 atom-24 atom-27" d="M 26.2,123.4 L 26.1,122.5 L 21.8,123.0 Z" style="fill:#FF0000;fill-rule:evenodd;fill-opacity:1;stroke:#FF0000;stroke-width:0.5px;stroke-linecap:butt;stroke-linejoin:miter;stroke-opacity:1;"/>
<path class="bond-27 atom-26 atom-28" d="M 31.2,96.6 L 33.3,93.1" style="fill:none;fill-rule:evenodd;stroke:#0000FF;stroke-width:2.0px;stroke-linecap:butt;stroke-linejoin:miter;stroke-opacity:1"/>
<path class="bond-27 atom-26 atom-28" d="M 33.3,93.1 L 35.3,89.5" style="fill:none;fill-rule:evenodd;stroke:#000000;stroke-width:2.0px;stroke-linecap:butt;stroke-linejoin:miter;stroke-opacity:1"/>
<path class="bond-28 atom-26 atom-29" d="M 26.3,100.2 L 21.6,100.2" style="fill:none;fill-rule:evenodd;stroke:#0000FF;stroke-width:2.0px;stroke-linecap:butt;stroke-linejoin:miter;stroke-opacity:1"/>
<path class="bond-28 atom-26 atom-29" d="M 21.6,100.2 L 16.8,100.2" style="fill:none;fill-rule:evenodd;stroke:#000000;stroke-width:2.0px;stroke-linecap:butt;stroke-linejoin:miter;stroke-opacity:1"/>
<path class="bond-29 atom-28 atom-30" d="M 35.3,89.5 L 29.2,78.8" style="fill:none;fill-rule:evenodd;stroke:#000000;stroke-width:2.0px;stroke-linecap:butt;stroke-linejoin:miter;stroke-opacity:1"/>
<path class="bond-29 atom-28 atom-30" d="M 33.2,89.5 L 28.1,80.7" style="fill:none;fill-rule:evenodd;stroke:#000000;stroke-width:2.0px;stroke-linecap:butt;stroke-linejoin:miter;stroke-opacity:1"/>
<path class="bond-30 atom-29 atom-31" d="M 16.8,100.2 L 10.7,89.5" style="fill:none;fill-rule:evenodd;stroke:#000000;stroke-width:2.0px;stroke-linecap:butt;stroke-linejoin:miter;stroke-opacity:1"/>
<path class="bond-30 atom-29 atom-31" d="M 17.9,98.3 L 12.8,89.5" style="fill:none;fill-rule:evenodd;stroke:#000000;stroke-width:2.0px;stroke-linecap:butt;stroke-linejoin:miter;stroke-opacity:1"/>
<path class="bond-31 atom-30 atom-32" d="M 29.2,78.8 L 16.8,78.8" style="fill:none;fill-rule:evenodd;stroke:#000000;stroke-width:2.0px;stroke-linecap:butt;stroke-linejoin:miter;stroke-opacity:1"/>
<path class="bond-32 atom-30 atom-33" d="M 29.2,78.8 L 35.3,68.2" style="fill:none;fill-rule:evenodd;stroke:#000000;stroke-width:2.0px;stroke-linecap:butt;stroke-linejoin:miter;stroke-opacity:1"/>
<path class="bond-33 atom-33 atom-34" d="M 36.4,68.2 L 34.2,64.5" style="fill:none;fill-rule:evenodd;stroke:#000000;stroke-width:2.0px;stroke-linecap:butt;stroke-linejoin:miter;stroke-opacity:1"/>
<path class="bond-33 atom-33 atom-34" d="M 34.2,64.5 L 32.1,60.8" style="fill:none;fill-rule:evenodd;stroke:#FF0000;stroke-width:2.0px;stroke-linecap:butt;stroke-linejoin:miter;stroke-opacity:1"/>
<path class="bond-33 atom-33 atom-34" d="M 34.8,69.1 L 32.6,65.4" style="fill:none;fill-rule:evenodd;stroke:#000000;stroke-width:2.0px;stroke-linecap:butt;stroke-linejoin:miter;stroke-opacity:1"/>
<path class="bond-33 atom-33 atom-34" d="M 32.6,65.4 L 30.5,61.7" style="fill:none;fill-rule:evenodd;stroke:#FF0000;stroke-width:2.0px;stroke-linecap:butt;stroke-linejoin:miter;stroke-opacity:1"/>
<path class="bond-34 atom-33 atom-35" d="M 35.3,68.2 L 40.1,68.2" style="fill:none;fill-rule:evenodd;stroke:#000000;stroke-width:2.0px;stroke-linecap:butt;stroke-linejoin:miter;stroke-opacity:1"/>
<path class="bond-34 atom-33 atom-35" d="M 40.1,68.2 L 44.8,68.2" style="fill:none;fill-rule:evenodd;stroke:#0000FF;stroke-width:2.0px;stroke-linecap:butt;stroke-linejoin:miter;stroke-opacity:1"/>
<path class="bond-35 atom-4 atom-8" d="M 162.4,75.8 L 158.0,74.3" style="fill:none;fill-rule:evenodd;stroke:#000000;stroke-width:2.0px;stroke-linecap:butt;stroke-linejoin:miter;stroke-opacity:1"/>
<path class="bond-35 atom-4 atom-8" d="M 158.0,74.3 L 153.5,72.9" style="fill:none;fill-rule:evenodd;stroke:#0000FF;stroke-width:2.0px;stroke-linecap:butt;stroke-linejoin:miter;stroke-opacity:1"/>
<path class="bond-36 atom-10 atom-13" d="M 183.7,88.1 L 183.7,83.7" style="fill:none;fill-rule:evenodd;stroke:#000000;stroke-width:2.0px;stroke-linecap:butt;stroke-linejoin:miter;stroke-opacity:1"/>
<path class="bond-36 atom-10 atom-13" d="M 183.7,83.7 L 183.7,79.3" style="fill:none;fill-rule:evenodd;stroke:#0000FF;stroke-width:2.0px;stroke-linecap:butt;stroke-linejoin:miter;stroke-opacity:1"/>
<path class="bond-37 atom-11 atom-12" d="M 135.2,119.7 L 146.9,123.5" style="fill:none;fill-rule:evenodd;stroke:#000000;stroke-width:2.0px;stroke-linecap:butt;stroke-linejoin:miter;stroke-opacity:1"/>
<path class="bond-38 atom-23 atom-24" d="M 35.3,110.8 L 30.3,122.1" style="fill:none;fill-rule:evenodd;stroke:#000000;stroke-width:2.0px;stroke-linecap:butt;stroke-linejoin:miter;stroke-opacity:1"/>
<path class="bond-39 atom-31 atom-32" d="M 10.7,89.5 L 16.8,78.8" style="fill:none;fill-rule:evenodd;stroke:#000000;stroke-width:2.0px;stroke-linecap:butt;stroke-linejoin:miter;stroke-opacity:1"/>
<path class="bond-40 atom-17 atom-41" d="M 110.7,123.9 L 108.2,125.3" style="fill:none;fill-rule:evenodd;stroke:#FF0000;stroke-width:2.0px;stroke-linecap:butt;stroke-linejoin:miter;stroke-opacity:1"/>
<path class="bond-40 atom-17 atom-41" d="M 108.2,125.3 L 105.8,126.7" style="fill:none;fill-rule:evenodd;stroke:#FF7F00;stroke-width:2.0px;stroke-linecap:butt;stroke-linejoin:miter;stroke-opacity:1"/>
<path class="bond-41 atom-41 atom-36" d="M 100.9,126.7 L 98.4,125.3" style="fill:none;fill-rule:evenodd;stroke:#FF7F00;stroke-width:2.0px;stroke-linecap:butt;stroke-linejoin:miter;stroke-opacity:1"/>
<path class="bond-41 atom-41 atom-36" d="M 98.4,125.3 L 96.0,123.9" style="fill:none;fill-rule:evenodd;stroke:#FF0000;stroke-width:2.0px;stroke-linecap:butt;stroke-linejoin:miter;stroke-opacity:1"/>
<path class="bond-42 atom-36 atom-39" d="M 89.3,123.9 L 86.9,125.3" style="fill:none;fill-rule:evenodd;stroke:#FF0000;stroke-width:2.0px;stroke-linecap:butt;stroke-linejoin:miter;stroke-opacity:1"/>
<path class="bond-42 atom-36 atom-39" d="M 86.9,125.3 L 84.4,126.7" style="fill:none;fill-rule:evenodd;stroke:#FF7F00;stroke-width:2.0px;stroke-linecap:butt;stroke-linejoin:miter;stroke-opacity:1"/>
<path class="bond-43 atom-41 atom-37" d="M 102.4,131.7 L 102.4,134.2" style="fill:none;fill-rule:evenodd;stroke:#FF7F00;stroke-width:2.0px;stroke-linecap:butt;stroke-linejoin:miter;stroke-opacity:1"/>
<path class="bond-43 atom-41 atom-37" d="M 102.4,134.2 L 102.4,136.8" style="fill:none;fill-rule:evenodd;stroke:#FF0000;stroke-width:2.0px;stroke-linecap:butt;stroke-linejoin:miter;stroke-opacity:1"/>
<path class="bond-43 atom-41 atom-37" d="M 104.2,131.7 L 104.2,134.2" style="fill:none;fill-rule:evenodd;stroke:#FF7F00;stroke-width:2.0px;stroke-linecap:butt;stroke-linejoin:miter;stroke-opacity:1"/>
<path class="bond-43 atom-41 atom-37" d="M 104.2,134.2 L 104.2,136.8" style="fill:none;fill-rule:evenodd;stroke:#FF0000;stroke-width:2.0px;stroke-linecap:butt;stroke-linejoin:miter;stroke-opacity:1"/>
<path class="bond-44 atom-39 atom-18" d="M 79.6,126.7 L 77.1,125.3" style="fill:none;fill-rule:evenodd;stroke:#FF7F00;stroke-width:2.0px;stroke-linecap:butt;stroke-linejoin:miter;stroke-opacity:1"/>
<path class="bond-44 atom-39 atom-18" d="M 77.1,125.3 L 74.6,123.9" style="fill:none;fill-rule:evenodd;stroke:#FF0000;stroke-width:2.0px;stroke-linecap:butt;stroke-linejoin:miter;stroke-opacity:1"/>
<path class="bond-45 atom-39 atom-38" d="M 81.1,131.7 L 81.1,134.2" style="fill:none;fill-rule:evenodd;stroke:#FF7F00;stroke-width:2.0px;stroke-linecap:butt;stroke-linejoin:miter;stroke-opacity:1"/>
<path class="bond-45 atom-39 atom-38" d="M 81.1,134.2 L 81.1,136.8" style="fill:none;fill-rule:evenodd;stroke:#FF0000;stroke-width:2.0px;stroke-linecap:butt;stroke-linejoin:miter;stroke-opacity:1"/>
<path class="bond-45 atom-39 atom-38" d="M 82.9,131.7 L 82.9,134.2" style="fill:none;fill-rule:evenodd;stroke:#FF7F00;stroke-width:2.0px;stroke-linecap:butt;stroke-linejoin:miter;stroke-opacity:1"/>
<path class="bond-45 atom-39 atom-38" d="M 82.9,134.2 L 82.9,136.8" style="fill:none;fill-rule:evenodd;stroke:#FF0000;stroke-width:2.0px;stroke-linecap:butt;stroke-linejoin:miter;stroke-opacity:1"/>
<path class="bond-46 atom-39 atom-40" d="M 82.0,124.5 L 82.0,122.0" style="fill:none;fill-rule:evenodd;stroke:#FF7F00;stroke-width:2.0px;stroke-linecap:butt;stroke-linejoin:miter;stroke-opacity:1"/>
<path class="bond-46 atom-39 atom-40" d="M 82.0,122.0 L 82.0,119.5" style="fill:none;fill-rule:evenodd;stroke:#FF0000;stroke-width:2.0px;stroke-linecap:butt;stroke-linejoin:miter;stroke-opacity:1"/>
<path class="bond-47 atom-41 atom-42" d="M 103.3,124.5 L 103.3,122.0" style="fill:none;fill-rule:evenodd;stroke:#FF7F00;stroke-width:2.0px;stroke-linecap:butt;stroke-linejoin:miter;stroke-opacity:1"/>
<path class="bond-47 atom-41 atom-42" d="M 103.3,122.0 L 103.3,119.5" style="fill:none;fill-rule:evenodd;stroke:#FF0000;stroke-width:2.0px;stroke-linecap:butt;stroke-linejoin:miter;stroke-opacity:1"/>
<path class="bond-48 atom-43 atom-46" d="M 168.6,117.3 L 169.6,119.0" style="fill:none;fill-rule:evenodd;stroke:#FF0000;stroke-width:2.0px;stroke-linecap:butt;stroke-linejoin:miter;stroke-opacity:1"/>
<path class="bond-48 atom-43 atom-46" d="M 169.6,119.0 L 170.5,120.6" style="fill:none;fill-rule:evenodd;stroke:#FF7F00;stroke-width:2.0px;stroke-linecap:butt;stroke-linejoin:miter;stroke-opacity:1"/>
<path class="bond-49 atom-46 atom-44" d="M 169.7,127.3 L 168.7,129.1" style="fill:none;fill-rule:evenodd;stroke:#FF7F00;stroke-width:2.0px;stroke-linecap:butt;stroke-linejoin:miter;stroke-opacity:1"/>
<path class="bond-49 atom-46 atom-44" d="M 168.7,129.1 L 167.7,130.8" style="fill:none;fill-rule:evenodd;stroke:#FF0000;stroke-width:2.0px;stroke-linecap:butt;stroke-linejoin:miter;stroke-opacity:1"/>
<path class="bond-49 atom-46 atom-44" d="M 171.3,128.3 L 170.3,130.0" style="fill:none;fill-rule:evenodd;stroke:#FF7F00;stroke-width:2.0px;stroke-linecap:butt;stroke-linejoin:miter;stroke-opacity:1"/>
<path class="bond-49 atom-46 atom-44" d="M 170.3,130.0 L 169.3,131.7" style="fill:none;fill-rule:evenodd;stroke:#FF0000;stroke-width:2.0px;stroke-linecap:butt;stroke-linejoin:miter;stroke-opacity:1"/>
<path class="bond-50 atom-46 atom-45" d="M 175.0,124.2 L 178.3,124.2" style="fill:none;fill-rule:evenodd;stroke:#FF7F00;stroke-width:2.0px;stroke-linecap:butt;stroke-linejoin:miter;stroke-opacity:1"/>
<path class="bond-50 atom-46 atom-45" d="M 178.3,124.2 L 181.6,124.2" style="fill:none;fill-rule:evenodd;stroke:#FF0000;stroke-width:2.0px;stroke-linecap:butt;stroke-linejoin:miter;stroke-opacity:1"/>
<path class="bond-51 atom-46 atom-47" d="M 174.7,127.8 L 175.7,129.5" style="fill:none;fill-rule:evenodd;stroke:#FF7F00;stroke-width:2.0px;stroke-linecap:butt;stroke-linejoin:miter;stroke-opacity:1"/>
<path class="bond-51 atom-46 atom-47" d="M 175.7,129.5 L 176.7,131.3" style="fill:none;fill-rule:evenodd;stroke:#FF0000;stroke-width:2.0px;stroke-linecap:butt;stroke-linejoin:miter;stroke-opacity:1"/>
<path d="M 146.7,103.7 L 146.9,103.6 L 147.3,104.1" style="fill:none;stroke:#000000;stroke-width:2.0px;stroke-linecap:butt;stroke-linejoin:miter;stroke-opacity:1;"/>
<path d="M 143.6,82.1 L 143.5,81.9 L 143.6,81.8" style="fill:none;stroke:#000000;stroke-width:2.0px;stroke-linecap:butt;stroke-linejoin:miter;stroke-opacity:1;"/>
<path d="M 153.8,113.1 L 154.1,113.6 L 153.8,114.1" style="fill:none;stroke:#000000;stroke-width:2.0px;stroke-linecap:butt;stroke-linejoin:miter;stroke-opacity:1;"/>
<path d="M 183.6,88.2 L 183.7,88.1 L 183.7,87.9" style="fill:none;stroke:#000000;stroke-width:2.0px;stroke-linecap:butt;stroke-linejoin:miter;stroke-opacity:1;"/>
<path d="M 135.2,119.5 L 135.2,119.7 L 135.8,119.9" style="fill:none;stroke:#000000;stroke-width:2.0px;stroke-linecap:butt;stroke-linejoin:miter;stroke-opacity:1;"/>
<path d="M 147.3,123.0 L 146.9,123.5 L 146.3,123.3" style="fill:none;stroke:#000000;stroke-width:2.0px;stroke-linecap:butt;stroke-linejoin:miter;stroke-opacity:1;"/>
<path d="M 50.1,124.0 L 50.1,124.2 L 49.6,124.5" style="fill:none;stroke:#000000;stroke-width:2.0px;stroke-linecap:butt;stroke-linejoin:miter;stroke-opacity:1;"/>
<path d="M 40.0,130.0 L 39.5,130.3 L 39.0,129.9" style="fill:none;stroke:#000000;stroke-width:2.0px;stroke-linecap:butt;stroke-linejoin:miter;stroke-opacity:1;"/>
<path d="M 35.5,110.9 L 35.3,110.8 L 35.1,111.4" style="fill:none;stroke:#000000;stroke-width:2.0px;stroke-linecap:butt;stroke-linejoin:miter;stroke-opacity:1;"/>
<path d="M 30.8,122.5 L 30.3,122.1 L 30.6,121.5" style="fill:none;stroke:#000000;stroke-width:2.0px;stroke-linecap:butt;stroke-linejoin:miter;stroke-opacity:1;"/>
<path d="M 35.2,89.7 L 35.3,89.5 L 35.0,89.0" style="fill:none;stroke:#000000;stroke-width:2.0px;stroke-linecap:butt;stroke-linejoin:miter;stroke-opacity:1;"/>
<path d="M 17.1,100.2 L 16.8,100.2 L 16.5,99.6" style="fill:none;stroke:#000000;stroke-width:2.0px;stroke-linecap:butt;stroke-linejoin:miter;stroke-opacity:1;"/>
<path d="M 11.0,90.0 L 10.7,89.5 L 11.0,89.0" style="fill:none;stroke:#000000;stroke-width:2.0px;stroke-linecap:butt;stroke-linejoin:miter;stroke-opacity:1;"/>
<path d="M 17.5,78.8 L 16.8,78.8 L 16.5,79.4" style="fill:none;stroke:#000000;stroke-width:2.0px;stroke-linecap:butt;stroke-linejoin:miter;stroke-opacity:1;"/>
<path d="M 35.0,68.7 L 35.3,68.2 L 35.6,68.2" style="fill:none;stroke:#000000;stroke-width:2.0px;stroke-linecap:butt;stroke-linejoin:miter;stroke-opacity:1;"/>
<path class="atom-0" d="M 149.3 88.7 L 151.4 92.1 Q 151.6 92.4, 151.9 93.0 Q 152.3 93.6, 152.3 93.6 L 152.3 88.7 L 153.1 88.7 L 153.1 95.1 L 152.2 95.1 L 150.0 91.4 Q 149.8 90.9, 149.5 90.5 Q 149.2 90.0, 149.1 89.8 L 149.1 95.1 L 148.3 95.1 L 148.3 88.7 L 149.3 88.7 " fill="#0000FF"/>
<path class="atom-5" d="M 171.7 91.1 L 173.8 94.4 Q 174.0 94.8, 174.3 95.4 Q 174.6 96.0, 174.6 96.0 L 174.6 91.1 L 175.5 91.1 L 175.5 97.4 L 174.6 97.4 L 172.4 93.7 Q 172.1 93.3, 171.9 92.8 Q 171.6 92.3, 171.5 92.2 L 171.5 97.4 L 170.7 97.4 L 170.7 91.1 L 171.7 91.1 " fill="#0000FF"/>
<path class="atom-6" d="M 132.3 107.4 Q 132.3 105.9, 133.0 105.0 Q 133.8 104.2, 135.2 104.2 Q 136.6 104.2, 137.4 105.0 Q 138.1 105.9, 138.1 107.4 Q 138.1 109.0, 137.3 109.8 Q 136.6 110.7, 135.2 110.7 Q 133.8 110.7, 133.0 109.8 Q 132.3 109.0, 132.3 107.4 M 135.2 110.0 Q 136.2 110.0, 136.7 109.3 Q 137.2 108.7, 137.2 107.4 Q 137.2 106.2, 136.7 105.5 Q 136.2 104.9, 135.2 104.9 Q 134.2 104.9, 133.7 105.5 Q 133.2 106.2, 133.2 107.4 Q 133.2 108.7, 133.7 109.3 Q 134.2 110.0, 135.2 110.0 " fill="#FF0000"/>
<path class="atom-8" d="M 149.3 68.8 L 151.4 72.1 Q 151.6 72.5, 151.9 73.1 Q 152.3 73.7, 152.3 73.7 L 152.3 68.8 L 153.1 68.8 L 153.1 75.1 L 152.2 75.1 L 150.0 71.5 Q 149.8 71.0, 149.5 70.5 Q 149.2 70.0, 149.1 69.9 L 149.1 75.1 L 148.3 75.1 L 148.3 68.8 L 149.3 68.8 " fill="#0000FF"/>
<path class="atom-13" d="M 182.3 72.6 L 184.4 76.0 Q 184.6 76.3, 185.0 76.9 Q 185.3 77.5, 185.3 77.5 L 185.3 72.6 L 186.2 72.6 L 186.2 78.9 L 185.3 78.9 L 183.1 75.3 Q 182.8 74.8, 182.5 74.3 Q 182.2 73.8, 182.2 73.7 L 182.2 78.9 L 181.3 78.9 L 181.3 72.6 L 182.3 72.6 " fill="#0000FF"/>
<path class="atom-14" d="M 171.7 54.1 L 173.8 57.5 Q 174.0 57.8, 174.3 58.4 Q 174.6 59.0, 174.6 59.0 L 174.6 54.1 L 175.5 54.1 L 175.5 60.5 L 174.6 60.5 L 172.4 56.8 Q 172.1 56.4, 171.9 55.9 Q 171.6 55.4, 171.5 55.2 L 171.5 60.5 L 170.7 60.5 L 170.7 54.1 L 171.7 54.1 " fill="#0000FF"/>
<path class="atom-14" d="M 176.7 54.1 L 177.6 54.1 L 177.6 56.8 L 180.8 56.8 L 180.8 54.1 L 181.7 54.1 L 181.7 60.5 L 180.8 60.5 L 180.8 57.5 L 177.6 57.5 L 177.6 60.5 L 176.7 60.5 L 176.7 54.1 " fill="#0000FF"/>
<path class="atom-14" d="M 182.9 60.2 Q 183.1 59.8, 183.4 59.6 Q 183.8 59.4, 184.3 59.4 Q 184.9 59.4, 185.3 59.7 Q 185.6 60.1, 185.6 60.7 Q 185.6 61.3, 185.2 61.9 Q 184.7 62.5, 183.8 63.2 L 185.7 63.2 L 185.7 63.6 L 182.9 63.6 L 182.9 63.2 Q 183.7 62.7, 184.1 62.3 Q 184.6 61.9, 184.8 61.5 Q 185.0 61.1, 185.0 60.7 Q 185.0 60.3, 184.8 60.1 Q 184.6 59.9, 184.3 59.9 Q 184.0 59.9, 183.7 60.0 Q 183.5 60.1, 183.4 60.4 L 182.9 60.2 " fill="#0000FF"/>
<path class="atom-16" d="M 147.8 135.2 Q 147.8 133.7, 148.6 132.9 Q 149.3 132.0, 150.7 132.0 Q 152.1 132.0, 152.9 132.9 Q 153.6 133.7, 153.6 135.2 Q 153.6 136.8, 152.9 137.7 Q 152.1 138.5, 150.7 138.5 Q 149.3 138.5, 148.6 137.7 Q 147.8 136.8, 147.8 135.2 M 150.7 137.8 Q 151.7 137.8, 152.2 137.2 Q 152.7 136.5, 152.7 135.2 Q 152.7 134.0, 152.2 133.4 Q 151.7 132.7, 150.7 132.7 Q 149.7 132.7, 149.2 133.4 Q 148.7 134.0, 148.7 135.2 Q 148.7 136.5, 149.2 137.2 Q 149.7 137.8, 150.7 137.8 " fill="#FF0000"/>
<path class="atom-16" d="M 154.6 132.1 L 155.5 132.1 L 155.5 134.8 L 158.7 134.8 L 158.7 132.1 L 159.6 132.1 L 159.6 138.4 L 158.7 138.4 L 158.7 135.5 L 155.5 135.5 L 155.5 138.4 L 154.6 138.4 L 154.6 132.1 " fill="#FF0000"/>
<path class="atom-17" d="M 111.1 122.0 Q 111.1 120.4, 111.8 119.6 Q 112.6 118.7, 114.0 118.7 Q 115.4 118.7, 116.1 119.6 Q 116.9 120.4, 116.9 122.0 Q 116.9 123.5, 116.1 124.4 Q 115.4 125.2, 114.0 125.2 Q 112.6 125.2, 111.8 124.4 Q 111.1 123.5, 111.1 122.0 M 114.0 124.5 Q 115.0 124.5, 115.5 123.9 Q 116.0 123.2, 116.0 122.0 Q 116.0 120.7, 115.5 120.1 Q 115.0 119.4, 114.0 119.4 Q 113.0 119.4, 112.5 120.1 Q 112.0 120.7, 112.0 122.0 Q 112.0 123.2, 112.5 123.9 Q 113.0 124.5, 114.0 124.5 " fill="#FF0000"/>
<path class="atom-18" d="M 68.4 122.0 Q 68.4 120.4, 69.2 119.6 Q 69.9 118.7, 71.3 118.7 Q 72.7 118.7, 73.5 119.6 Q 74.2 120.4, 74.2 122.0 Q 74.2 123.5, 73.5 124.4 Q 72.7 125.2, 71.3 125.2 Q 69.9 125.2, 69.2 124.4 Q 68.4 123.5, 68.4 122.0 M 71.3 124.5 Q 72.3 124.5, 72.8 123.9 Q 73.3 123.2, 73.3 122.0 Q 73.3 120.7, 72.8 120.1 Q 72.3 119.5, 71.3 119.5 Q 70.4 119.5, 69.8 120.1 Q 69.3 120.7, 69.3 122.0 Q 69.3 123.2, 69.8 123.9 Q 70.4 124.5, 71.3 124.5 " fill="#FF0000"/>
<path class="atom-21" d="M 44.7 112.1 Q 44.7 110.6, 45.4 109.8 Q 46.2 108.9, 47.6 108.9 Q 49.0 108.9, 49.7 109.8 Q 50.5 110.6, 50.5 112.1 Q 50.5 113.7, 49.7 114.6 Q 48.9 115.4, 47.6 115.4 Q 46.2 115.4, 45.4 114.6 Q 44.7 113.7, 44.7 112.1 M 47.6 114.7 Q 48.5 114.7, 49.0 114.1 Q 49.6 113.4, 49.6 112.1 Q 49.6 110.9, 49.0 110.3 Q 48.5 109.6, 47.6 109.6 Q 46.6 109.6, 46.1 110.3 Q 45.5 110.9, 45.5 112.1 Q 45.5 113.4, 46.1 114.1 Q 46.6 114.7, 47.6 114.7 " fill="#FF0000"/>
<path class="atom-25" d="M 35.3 142.6 Q 35.3 141.1, 36.0 140.2 Q 36.8 139.4, 38.2 139.4 Q 39.6 139.4, 40.3 140.2 Q 41.1 141.1, 41.1 142.6 Q 41.1 144.1, 40.3 145.0 Q 39.6 145.9, 38.2 145.9 Q 36.8 145.9, 36.0 145.0 Q 35.3 144.1, 35.3 142.6 M 38.2 145.2 Q 39.1 145.2, 39.7 144.5 Q 40.2 143.9, 40.2 142.6 Q 40.2 141.3, 39.7 140.7 Q 39.1 140.1, 38.2 140.1 Q 37.2 140.1, 36.7 140.7 Q 36.2 141.3, 36.2 142.6 Q 36.2 143.9, 36.7 144.5 Q 37.2 145.2, 38.2 145.2 " fill="#FF0000"/>
<path class="atom-25" d="M 42.1 139.4 L 42.9 139.4 L 42.9 142.1 L 46.2 142.1 L 46.2 139.4 L 47.0 139.4 L 47.0 145.8 L 46.2 145.8 L 46.2 142.8 L 42.9 142.8 L 42.9 145.8 L 42.1 145.8 L 42.1 139.4 " fill="#FF0000"/>
<path class="atom-26" d="M 27.8 97.0 L 29.8 100.4 Q 30.0 100.7, 30.4 101.3 Q 30.7 101.9, 30.7 101.9 L 30.7 97.0 L 31.6 97.0 L 31.6 103.3 L 30.7 103.3 L 28.5 99.7 Q 28.2 99.2, 27.9 98.8 Q 27.7 98.3, 27.6 98.1 L 27.6 103.3 L 26.8 103.3 L 26.8 97.0 L 27.8 97.0 " fill="#0000FF"/>
<path class="atom-27" d="M 9.1 121.5 L 10.0 121.5 L 10.0 124.2 L 13.2 124.2 L 13.2 121.5 L 14.1 121.5 L 14.1 127.9 L 13.2 127.9 L 13.2 124.9 L 10.0 124.9 L 10.0 127.9 L 9.1 127.9 L 9.1 121.5 " fill="#FF0000"/>
<path class="atom-27" d="M 15.4 124.7 Q 15.4 123.1, 16.1 122.3 Q 16.9 121.4, 18.3 121.4 Q 19.7 121.4, 20.4 122.3 Q 21.2 123.1, 21.2 124.7 Q 21.2 126.2, 20.4 127.1 Q 19.7 128.0, 18.3 128.0 Q 16.9 128.0, 16.1 127.1 Q 15.4 126.2, 15.4 124.7 M 18.3 127.2 Q 19.2 127.2, 19.7 126.6 Q 20.3 125.9, 20.3 124.7 Q 20.3 123.4, 19.7 122.8 Q 19.2 122.2, 18.3 122.2 Q 17.3 122.2, 16.8 122.8 Q 16.2 123.4, 16.2 124.7 Q 16.2 125.9, 16.8 126.6 Q 17.3 127.2, 18.3 127.2 " fill="#FF0000"/>
<path class="atom-34" d="M 26.2 57.5 Q 26.2 56.0, 27.0 55.2 Q 27.8 54.3, 29.2 54.3 Q 30.6 54.3, 31.3 55.2 Q 32.1 56.0, 32.1 57.5 Q 32.1 59.1, 31.3 60.0 Q 30.5 60.8, 29.2 60.8 Q 27.8 60.8, 27.0 60.0 Q 26.2 59.1, 26.2 57.5 M 29.2 60.1 Q 30.1 60.1, 30.6 59.5 Q 31.2 58.8, 31.2 57.5 Q 31.2 56.3, 30.6 55.7 Q 30.1 55.0, 29.2 55.0 Q 28.2 55.0, 27.7 55.7 Q 27.1 56.3, 27.1 57.5 Q 27.1 58.8, 27.7 59.5 Q 28.2 60.1, 29.2 60.1 " fill="#FF0000"/>
<path class="atom-35" d="M 46.2 65.0 L 48.3 68.4 Q 48.5 68.7, 48.8 69.3 Q 49.2 69.9, 49.2 69.9 L 49.2 65.0 L 50.0 65.0 L 50.0 71.4 L 49.2 71.4 L 46.9 67.7 Q 46.7 67.3, 46.4 66.8 Q 46.1 66.3, 46.0 66.1 L 46.0 71.4 L 45.2 71.4 L 45.2 65.0 L 46.2 65.0 " fill="#0000FF"/>
<path class="atom-35" d="M 51.2 65.0 L 52.1 65.0 L 52.1 67.7 L 55.3 67.7 L 55.3 65.0 L 56.2 65.0 L 56.2 71.4 L 55.3 71.4 L 55.3 68.4 L 52.1 68.4 L 52.1 71.4 L 51.2 71.4 L 51.2 65.0 " fill="#0000FF"/>
<path class="atom-35" d="M 57.4 71.1 Q 57.6 70.7, 58.0 70.5 Q 58.3 70.3, 58.8 70.3 Q 59.5 70.3, 59.8 70.6 Q 60.2 71.0, 60.2 71.6 Q 60.2 72.2, 59.7 72.8 Q 59.3 73.4, 58.3 74.1 L 60.3 74.1 L 60.3 74.5 L 57.4 74.5 L 57.4 74.1 Q 58.2 73.6, 58.7 73.2 Q 59.1 72.7, 59.4 72.4 Q 59.6 72.0, 59.6 71.6 Q 59.6 71.2, 59.4 71.0 Q 59.2 70.8, 58.8 70.8 Q 58.5 70.8, 58.3 70.9 Q 58.1 71.0, 57.9 71.3 L 57.4 71.1 " fill="#0000FF"/>
<path class="atom-36" d="M 89.7 122.0 Q 89.7 120.4, 90.5 119.6 Q 91.3 118.7, 92.7 118.7 Q 94.1 118.7, 94.8 119.6 Q 95.6 120.4, 95.6 122.0 Q 95.6 123.5, 94.8 124.4 Q 94.0 125.2, 92.7 125.2 Q 91.3 125.2, 90.5 124.4 Q 89.7 123.5, 89.7 122.0 M 92.7 124.5 Q 93.6 124.5, 94.1 123.9 Q 94.7 123.2, 94.7 122.0 Q 94.7 120.7, 94.1 120.1 Q 93.6 119.5, 92.7 119.5 Q 91.7 119.5, 91.2 120.1 Q 90.6 120.7, 90.6 122.0 Q 90.6 123.2, 91.2 123.9 Q 91.7 124.5, 92.7 124.5 " fill="#FF0000"/>
<path class="atom-37" d="M 100.4 140.4 Q 100.4 138.9, 101.2 138.1 Q 101.9 137.2, 103.3 137.2 Q 104.7 137.2, 105.5 138.1 Q 106.2 138.9, 106.2 140.4 Q 106.2 142.0, 105.5 142.8 Q 104.7 143.7, 103.3 143.7 Q 101.9 143.7, 101.2 142.8 Q 100.4 142.0, 100.4 140.4 M 103.3 143.0 Q 104.3 143.0, 104.8 142.4 Q 105.3 141.7, 105.3 140.4 Q 105.3 139.2, 104.8 138.6 Q 104.3 137.9, 103.3 137.9 Q 102.4 137.9, 101.8 138.5 Q 101.3 139.2, 101.3 140.4 Q 101.3 141.7, 101.8 142.4 Q 102.4 143.0, 103.3 143.0 " fill="#FF0000"/>
<path class="atom-38" d="M 79.1 140.4 Q 79.1 138.9, 79.8 138.1 Q 80.6 137.2, 82.0 137.2 Q 83.4 137.2, 84.2 138.1 Q 84.9 138.9, 84.9 140.4 Q 84.9 142.0, 84.1 142.8 Q 83.4 143.7, 82.0 143.7 Q 80.6 143.7, 79.8 142.8 Q 79.1 142.0, 79.1 140.4 M 82.0 143.0 Q 83.0 143.0, 83.5 142.4 Q 84.0 141.7, 84.0 140.4 Q 84.0 139.2, 83.5 138.6 Q 83.0 137.9, 82.0 137.9 Q 81.0 137.9, 80.5 138.5 Q 80.0 139.2, 80.0 140.4 Q 80.0 141.7, 80.5 142.4 Q 81.0 143.0, 82.0 143.0 " fill="#FF0000"/>
<path class="atom-39" d="M 81.8 124.9 Q 82.9 124.9, 83.5 125.4 Q 84.0 125.9, 84.0 126.8 Q 84.0 127.7, 83.5 128.2 Q 82.9 128.7, 81.8 128.7 L 80.8 128.7 L 80.8 131.3 L 80.0 131.3 L 80.0 124.9 L 81.8 124.9 M 81.8 127.9 Q 82.5 127.9, 82.8 127.6 Q 83.1 127.4, 83.1 126.8 Q 83.1 126.2, 82.8 125.9 Q 82.5 125.6, 81.8 125.6 L 80.8 125.6 L 80.8 127.9 L 81.8 127.9 " fill="#FF7F00"/>
<path class="atom-40" d="M 79.1 115.8 Q 79.1 114.3, 79.8 113.4 Q 80.6 112.6, 82.0 112.6 Q 83.4 112.6, 84.2 113.4 Q 84.9 114.3, 84.9 115.8 Q 84.9 117.3, 84.1 118.2 Q 83.4 119.1, 82.0 119.1 Q 80.6 119.1, 79.8 118.2 Q 79.1 117.4, 79.1 115.8 M 82.0 118.4 Q 83.0 118.4, 83.5 117.7 Q 84.0 117.1, 84.0 115.8 Q 84.0 114.6, 83.5 113.9 Q 83.0 113.3, 82.0 113.3 Q 81.0 113.3, 80.5 113.9 Q 80.0 114.5, 80.0 115.8 Q 80.0 117.1, 80.5 117.7 Q 81.0 118.4, 82.0 118.4 " fill="#FF0000"/>
<path class="atom-40" d="M 85.8 113.6 L 88.0 113.6 L 88.0 114.1 L 85.8 114.1 L 85.8 113.6 " fill="#FF0000"/>
<path class="atom-41" d="M 103.2 124.9 Q 104.3 124.9, 104.8 125.4 Q 105.3 125.9, 105.3 126.8 Q 105.3 127.7, 104.8 128.2 Q 104.2 128.7, 103.2 128.7 L 102.2 128.7 L 102.2 131.3 L 101.3 131.3 L 101.3 124.9 L 103.2 124.9 M 103.2 127.9 Q 103.8 127.9, 104.1 127.6 Q 104.5 127.4, 104.5 126.8 Q 104.5 126.2, 104.1 125.9 Q 103.8 125.6, 103.2 125.6 L 102.2 125.6 L 102.2 127.9 L 103.2 127.9 " fill="#FF7F00"/>
<path class="atom-42" d="M 100.4 115.8 Q 100.4 114.3, 101.2 113.4 Q 101.9 112.6, 103.3 112.6 Q 104.7 112.6, 105.5 113.4 Q 106.2 114.3, 106.2 115.8 Q 106.2 117.3, 105.5 118.2 Q 104.7 119.1, 103.3 119.1 Q 101.9 119.1, 101.2 118.2 Q 100.4 117.4, 100.4 115.8 M 103.3 118.4 Q 104.3 118.4, 104.8 117.7 Q 105.3 117.1, 105.3 115.8 Q 105.3 114.6, 104.8 113.9 Q 104.3 113.3, 103.3 113.3 Q 102.4 113.3, 101.8 113.9 Q 101.3 114.5, 101.3 115.8 Q 101.3 117.1, 101.8 117.7 Q 102.4 118.4, 103.3 118.4 " fill="#FF0000"/>
<path class="atom-42" d="M 107.1 113.6 L 109.3 113.6 L 109.3 114.1 L 107.1 114.1 L 107.1 113.6 " fill="#FF0000"/>
<path class="atom-43" d="M 163.5 113.6 Q 163.5 112.0, 164.3 111.2 Q 165.1 110.3, 166.5 110.3 Q 167.9 110.3, 168.6 111.2 Q 169.4 112.0, 169.4 113.6 Q 169.4 115.1, 168.6 116.0 Q 167.8 116.9, 166.5 116.9 Q 165.1 116.9, 164.3 116.0 Q 163.5 115.1, 163.5 113.6 M 166.5 116.1 Q 167.4 116.1, 167.9 115.5 Q 168.5 114.8, 168.5 113.6 Q 168.5 112.3, 167.9 111.7 Q 167.4 111.1, 166.5 111.1 Q 165.5 111.1, 165.0 111.7 Q 164.4 112.3, 164.4 113.6 Q 164.4 114.9, 165.0 115.5 Q 165.5 116.1, 166.5 116.1 " fill="#FF0000"/>
<path class="atom-44" d="M 163.5 134.9 Q 163.5 133.4, 164.3 132.5 Q 165.1 131.7, 166.5 131.7 Q 167.9 131.7, 168.6 132.5 Q 169.4 133.4, 169.4 134.9 Q 169.4 136.4, 168.6 137.3 Q 167.8 138.2, 166.5 138.2 Q 165.1 138.2, 164.3 137.3 Q 163.5 136.4, 163.5 134.9 M 166.5 137.5 Q 167.4 137.5, 167.9 136.8 Q 168.5 136.2, 168.5 134.9 Q 168.5 133.7, 167.9 133.0 Q 167.4 132.4, 166.5 132.4 Q 165.5 132.4, 165.0 133.0 Q 164.4 133.6, 164.4 134.9 Q 164.4 136.2, 165.0 136.8 Q 165.5 137.5, 166.5 137.5 " fill="#FF0000"/>
<path class="atom-45" d="M 182.0 124.2 Q 182.0 122.7, 182.8 121.9 Q 183.5 121.0, 184.9 121.0 Q 186.3 121.0, 187.1 121.9 Q 187.8 122.7, 187.8 124.2 Q 187.8 125.8, 187.1 126.7 Q 186.3 127.5, 184.9 127.5 Q 183.5 127.5, 182.8 126.7 Q 182.0 125.8, 182.0 124.2 M 184.9 126.8 Q 185.9 126.8, 186.4 126.2 Q 186.9 125.5, 186.9 124.2 Q 186.9 123.0, 186.4 122.4 Q 185.9 121.7, 184.9 121.7 Q 184.0 121.7, 183.4 122.4 Q 182.9 123.0, 182.9 124.2 Q 182.9 125.5, 183.4 126.2 Q 184.0 126.8, 184.9 126.8 " fill="#FF0000"/>
<path class="atom-45" d="M 188.7 122.0 L 190.9 122.0 L 190.9 122.5 L 188.7 122.5 L 188.7 122.0 " fill="#FF0000"/>
<path class="atom-46" d="M 172.5 121.0 Q 173.5 121.0, 174.1 121.5 Q 174.6 122.0, 174.6 122.9 Q 174.6 123.8, 174.1 124.3 Q 173.5 124.8, 172.5 124.8 L 171.4 124.8 L 171.4 127.4 L 170.6 127.4 L 170.6 121.0 L 172.5 121.0 M 172.5 124.1 Q 173.1 124.1, 173.4 123.8 Q 173.7 123.5, 173.7 122.9 Q 173.7 122.3, 173.4 122.1 Q 173.1 121.8, 172.5 121.8 L 171.4 121.8 L 171.4 124.1 L 172.5 124.1 " fill="#FF7F00"/>
<path class="atom-47" d="M 175.9 134.9 Q 175.9 133.4, 176.6 132.5 Q 177.4 131.7, 178.8 131.7 Q 180.2 131.7, 180.9 132.5 Q 181.7 133.4, 181.7 134.9 Q 181.7 136.4, 180.9 137.3 Q 180.2 138.2, 178.8 138.2 Q 177.4 138.2, 176.6 137.3 Q 175.9 136.4, 175.9 134.9 M 178.8 137.5 Q 179.7 137.5, 180.3 136.8 Q 180.8 136.2, 180.8 134.9 Q 180.8 133.7, 180.3 133.0 Q 179.7 132.4, 178.8 132.4 Q 177.8 132.4, 177.3 133.0 Q 176.8 133.6, 176.8 134.9 Q 176.8 136.2, 177.3 136.8 Q 177.8 137.5, 178.8 137.5 " fill="#FF0000"/>
<path class="atom-47" d="M 182.6 132.7 L 184.8 132.7 L 184.8 133.2 L 182.6 133.2 L 182.6 132.7 " fill="#FF0000"/>
</svg>