<svg xmlns="http://www.w3.org/2000/svg" xmlns:rdkit="http://www.rdkit.org/xml" xmlns:xlink="http://www.w3.org/1999/xlink" viewBox="-10.9 15.5 221.8 169.0">
<path class="bond-0 atom-8 atom-0" d="M 36.1,134.7 L 48.1,130.8" style="fill:none;fill-rule:evenodd;stroke:rgb(134.87500000000003,134.87500000000003,249.62499999999997);stroke-width:2.0px;stroke-linecap:butt;stroke-linejoin:miter;stroke-opacity:1"/>
<path class="bond-0 atom-8 atom-0" d="M 48.1,130.8 L 60.1,127.0" style="fill:none;fill-rule:evenodd;stroke:rgb(256.0,256.0,256.0);stroke-width:2.0px;stroke-linecap:butt;stroke-linejoin:miter;stroke-opacity:1"/>
<path class="bond-1 atom-4 atom-1" d="M 146.1,77.3 L 117.4,93.8" style="fill:none;fill-rule:evenodd;stroke:rgb(256.0,256.0,256.0);stroke-width:2.0px;stroke-linecap:butt;stroke-linejoin:miter;stroke-opacity:1"/>
<path class="bond-2 atom-1 atom-2" d="M 117.4,93.8 L 86.2,78.8 L 91.1,75.9 Z" style="fill:rgb(256.0,256.0,256.0);fill-rule:evenodd;fill-opacity:1;stroke:rgb(256.0,256.0,256.0);stroke-width:0.5px;stroke-linecap:butt;stroke-linejoin:miter;stroke-opacity:1"/>
<path class="bond-3 atom-1 atom-10" d="M 117.4,93.8 L 117.4,105.6" style="fill:none;fill-rule:evenodd;stroke:rgb(256.0,256.0,256.0);stroke-width:2.0px;stroke-linecap:butt;stroke-linejoin:miter;stroke-opacity:1"/>
<path class="bond-3 atom-1 atom-10" d="M 117.4,105.6 L 117.4,117.3" style="fill:none;fill-rule:evenodd;stroke:rgb(134.87500000000003,134.87500000000003,249.62499999999997);stroke-width:2.0px;stroke-linecap:butt;stroke-linejoin:miter;stroke-opacity:1"/>
<path class="bond-4 atom-3 atom-0" d="M 60.1,93.8 L 60.1,127.0" style="fill:none;fill-rule:evenodd;stroke:rgb(256.0,256.0,256.0);stroke-width:2.0px;stroke-linecap:butt;stroke-linejoin:miter;stroke-opacity:1"/>
<path class="bond-4 atom-3 atom-0" d="M 55.1,97.4 L 55.1,123.3" style="fill:none;fill-rule:evenodd;stroke:rgb(256.0,256.0,256.0);stroke-width:2.0px;stroke-linecap:butt;stroke-linejoin:miter;stroke-opacity:1"/>
<path class="bond-5 atom-2 atom-3" d="M 91.1,75.9 L 60.1,93.8" style="fill:none;fill-rule:evenodd;stroke:rgb(256.0,256.0,256.0);stroke-width:2.0px;stroke-linecap:butt;stroke-linejoin:miter;stroke-opacity:1"/>
<path class="bond-6 atom-3 atom-6" d="M 60.1,93.8 L 48.1,89.9" style="fill:none;fill-rule:evenodd;stroke:rgb(256.0,256.0,256.0);stroke-width:2.0px;stroke-linecap:butt;stroke-linejoin:miter;stroke-opacity:1"/>
<path class="bond-6 atom-3 atom-6" d="M 48.1,89.9 L 36.1,86.0" style="fill:none;fill-rule:evenodd;stroke:rgb(134.87500000000003,134.87500000000003,249.62499999999997);stroke-width:2.0px;stroke-linecap:butt;stroke-linejoin:miter;stroke-opacity:1"/>
<path class="bond-7 atom-4 atom-5" d="M 146.1,77.3 L 156.0,83.0" style="fill:none;fill-rule:evenodd;stroke:rgb(256.0,256.0,256.0);stroke-width:2.0px;stroke-linecap:butt;stroke-linejoin:miter;stroke-opacity:1"/>
<path class="bond-7 atom-4 atom-5" d="M 156.0,83.0 L 165.9,88.7" style="fill:none;fill-rule:evenodd;stroke:rgb(249.62499999999997,134.87500000000003,134.87500000000003);stroke-width:2.0px;stroke-linecap:butt;stroke-linejoin:miter;stroke-opacity:1"/>
<path class="bond-8 atom-9 atom-4" d="M 148.6,54.1 L 148.6,66.4" style="fill:none;fill-rule:evenodd;stroke:rgb(249.62499999999997,134.87500000000003,134.87500000000003);stroke-width:2.0px;stroke-linecap:butt;stroke-linejoin:miter;stroke-opacity:1"/>
<path class="bond-8 atom-9 atom-4" d="M 148.6,66.4 L 148.6,78.7" style="fill:none;fill-rule:evenodd;stroke:rgb(256.0,256.0,256.0);stroke-width:2.0px;stroke-linecap:butt;stroke-linejoin:miter;stroke-opacity:1"/>
<path class="bond-8 atom-9 atom-4" d="M 143.6,54.1 L 143.6,66.4" style="fill:none;fill-rule:evenodd;stroke:rgb(249.62499999999997,134.87500000000003,134.87500000000003);stroke-width:2.0px;stroke-linecap:butt;stroke-linejoin:miter;stroke-opacity:1"/>
<path class="bond-8 atom-9 atom-4" d="M 143.6,66.4 L 143.6,78.7" style="fill:none;fill-rule:evenodd;stroke:rgb(256.0,256.0,256.0);stroke-width:2.0px;stroke-linecap:butt;stroke-linejoin:miter;stroke-opacity:1"/>
<path class="bond-9 atom-6 atom-7" d="M 21.6,93.2 L 15.3,101.8" style="fill:none;fill-rule:evenodd;stroke:rgb(134.87500000000003,134.87500000000003,249.62499999999997);stroke-width:2.0px;stroke-linecap:butt;stroke-linejoin:miter;stroke-opacity:1"/>
<path class="bond-9 atom-6 atom-7" d="M 15.3,101.8 L 9.1,110.4" style="fill:none;fill-rule:evenodd;stroke:rgb(256.0,256.0,256.0);stroke-width:2.0px;stroke-linecap:butt;stroke-linejoin:miter;stroke-opacity:1"/>
<path class="bond-9 atom-6 atom-7" d="M 25.6,96.1 L 20.4,103.3" style="fill:none;fill-rule:evenodd;stroke:rgb(134.87500000000003,134.87500000000003,249.62499999999997);stroke-width:2.0px;stroke-linecap:butt;stroke-linejoin:miter;stroke-opacity:1"/>
<path class="bond-9 atom-6 atom-7" d="M 20.4,103.3 L 15.2,110.4" style="fill:none;fill-rule:evenodd;stroke:rgb(256.0,256.0,256.0);stroke-width:2.0px;stroke-linecap:butt;stroke-linejoin:miter;stroke-opacity:1"/>
<path class="bond-10 atom-7 atom-8" d="M 9.1,110.4 L 15.3,119.0" style="fill:none;fill-rule:evenodd;stroke:rgb(256.0,256.0,256.0);stroke-width:2.0px;stroke-linecap:butt;stroke-linejoin:miter;stroke-opacity:1"/>
<path class="bond-10 atom-7 atom-8" d="M 15.3,119.0 L 21.6,127.6" style="fill:none;fill-rule:evenodd;stroke:rgb(134.87500000000003,134.87500000000003,249.62499999999997);stroke-width:2.0px;stroke-linecap:butt;stroke-linejoin:miter;stroke-opacity:1"/>
<path class="bond-11 atom-10 atom-11" d="M 125.0,131.3 L 135.6,137.4" style="fill:none;fill-rule:evenodd;stroke:rgb(134.87500000000003,134.87500000000003,249.62499999999997);stroke-width:2.0px;stroke-linecap:butt;stroke-linejoin:miter;stroke-opacity:1"/>
<path class="bond-11 atom-10 atom-11" d="M 135.6,137.4 L 146.1,143.5" style="fill:none;fill-rule:evenodd;stroke:rgb(256.0,256.0,256.0);stroke-width:2.0px;stroke-linecap:butt;stroke-linejoin:miter;stroke-opacity:1"/>
<path d="M 59.5,127.1 L 60.1,127.0 L 60.1,125.3" style="fill:none;stroke:rgb(256.0,256.0,256.0);stroke-width:2.0px;stroke-linecap:butt;stroke-linejoin:miter;stroke-opacity:1"/>
<path d="M 118.9,93.0 L 117.4,93.8 L 117.4,94.4" style="fill:none;stroke:rgb(256.0,256.0,256.0);stroke-width:2.0px;stroke-linecap:butt;stroke-linejoin:miter;stroke-opacity:1"/>
<path d="M 144.7,78.1 L 146.1,77.3 L 146.6,77.6" style="fill:none;stroke:rgb(256.0,256.0,256.0);stroke-width:2.0px;stroke-linecap:butt;stroke-linejoin:miter;stroke-opacity:1"/>
<path d="M 9.4,110.0 L 9.1,110.4 L 9.4,110.8" style="fill:none;stroke:rgb(256.0,256.0,256.0);stroke-width:2.0px;stroke-linecap:butt;stroke-linejoin:miter;stroke-opacity:1"/>
<path class="atom-5" d="M 167.0 93.9 Q 167.0 89.8, 169.0 87.5 Q 171.0 85.2, 174.8 85.2 Q 178.6 85.2, 180.6 87.5 Q 182.6 89.8, 182.6 93.9 Q 182.6 98.0, 180.6 100.4 Q 178.5 102.7, 174.8 102.7 Q 171.1 102.7, 169.0 100.4 Q 167.0 98.0, 167.0 93.9 M 174.8 100.8 Q 177.4 100.8, 178.8 99.1 Q 180.2 97.3, 180.2 93.9 Q 180.2 90.5, 178.8 88.8 Q 177.4 87.1, 174.8 87.1 Q 172.2 87.1, 170.8 88.8 Q 169.4 90.5, 169.4 93.9 Q 169.4 97.3, 170.8 99.1 Q 172.2 100.8, 174.8 100.8 " fill="rgb(249.62499999999997,134.87500000000003,134.87500000000003)"/>
<path class="atom-5" d="M 185.1 88.0 L 190.9 88.0 L 190.9 89.3 L 185.1 89.3 L 185.1 88.0 " fill="rgb(249.62499999999997,134.87500000000003,134.87500000000003)"/>
<path class="atom-6" d="M 24.8 75.1 L 30.4 84.1 Q 30.9 85.0, 31.8 86.6 Q 32.7 88.2, 32.8 88.3 L 32.8 75.1 L 35.0 75.1 L 35.0 92.1 L 32.7 92.1 L 26.7 82.2 Q 26.0 81.1, 25.2 79.8 Q 24.5 78.4, 24.3 78.0 L 24.3 92.1 L 22.1 92.1 L 22.1 75.1 L 24.8 75.1 " fill="rgb(134.87500000000003,134.87500000000003,249.62499999999997)"/>
<path class="atom-8" d="M 24.8 128.7 L 30.4 137.7 Q 30.9 138.6, 31.8 140.2 Q 32.7 141.8, 32.8 141.9 L 32.8 128.7 L 35.0 128.7 L 35.0 145.7 L 32.7 145.7 L 26.7 135.8 Q 26.0 134.7, 25.2 133.4 Q 24.5 132.0, 24.3 131.6 L 24.3 145.7 L 22.1 145.7 L 22.1 128.7 L 24.8 128.7 " fill="rgb(134.87500000000003,134.87500000000003,249.62499999999997)"/>
<path class="atom-8" d="M 21.9 147.4 L 24.2 147.4 L 24.2 154.7 L 32.9 154.7 L 32.9 147.4 L 35.2 147.4 L 35.2 164.5 L 32.9 164.5 L 32.9 156.6 L 24.2 156.6 L 24.2 164.5 L 21.9 164.5 L 21.9 147.4 " fill="rgb(134.87500000000003,134.87500000000003,249.62499999999997)"/>
<path class="atom-9" d="M 138.3 44.2 Q 138.3 40.1, 140.3 37.8 Q 142.3 35.5, 146.1 35.5 Q 149.9 35.5, 151.9 37.8 Q 154.0 40.1, 154.0 44.2 Q 154.0 48.3, 151.9 50.7 Q 149.9 53.0, 146.1 53.0 Q 142.4 53.0, 140.3 50.7 Q 138.3 48.4, 138.3 44.2 M 146.1 51.1 Q 148.7 51.1, 150.1 49.4 Q 151.5 47.6, 151.5 44.2 Q 151.5 40.8, 150.1 39.2 Q 148.7 37.4, 146.1 37.4 Q 143.5 37.4, 142.1 39.1 Q 140.7 40.8, 140.7 44.2 Q 140.7 47.6, 142.1 49.4 Q 143.5 51.1, 146.1 51.1 " fill="rgb(249.62499999999997,134.87500000000003,134.87500000000003)"/>
<path class="atom-10" d="M 84.6 118.4 L 86.9 118.4 L 86.9 125.7 L 95.6 125.7 L 95.6 118.4 L 97.9 118.4 L 97.9 135.5 L 95.6 135.5 L 95.6 127.6 L 86.9 127.6 L 86.9 135.5 L 84.6 135.5 L 84.6 118.4 " fill="rgb(134.87500000000003,134.87500000000003,249.62499999999997)"/>
<path class="atom-10" d="M 101.2 134.9 Q 101.7 133.8, 102.6 133.2 Q 103.6 132.6, 105.0 132.6 Q 106.7 132.6, 107.6 133.5 Q 108.6 134.5, 108.6 136.1 Q 108.6 137.8, 107.4 139.3 Q 106.1 140.9, 103.6 142.7 L 108.8 142.7 L 108.8 144.0 L 101.2 144.0 L 101.2 142.9 Q 103.3 141.5, 104.5 140.3 Q 105.8 139.2, 106.4 138.2 Q 107.0 137.2, 107.0 136.2 Q 107.0 135.1, 106.5 134.5 Q 105.9 133.9, 105.0 133.9 Q 104.1 133.9, 103.5 134.3 Q 102.9 134.6, 102.4 135.4 L 101.2 134.9 " fill="rgb(134.87500000000003,134.87500000000003,249.62499999999997)"/>
<path class="atom-10" d="M 113.7 118.4 L 119.3 127.5 Q 119.8 128.4, 120.7 130.0 Q 121.6 131.6, 121.6 131.7 L 121.6 118.4 L 123.9 118.4 L 123.9 135.5 L 121.6 135.5 L 115.6 125.6 Q 114.9 124.4, 114.1 123.1 Q 113.4 121.8, 113.2 121.4 L 113.2 135.5 L 111.0 135.5 L 111.0 118.4 L 113.7 118.4 " fill="rgb(134.87500000000003,134.87500000000003,249.62499999999997)"/>
<path class="atom-10" d="M 127.1 121.5 L 130.1 121.5 L 130.1 118.3 L 131.5 118.3 L 131.5 121.5 L 134.6 121.5 L 134.6 122.6 L 131.5 122.6 L 131.5 125.8 L 130.1 125.8 L 130.1 122.6 L 127.1 122.6 L 127.1 121.5 " fill="rgb(134.87500000000003,134.87500000000003,249.62499999999997)"/>
</svg>