<svg xmlns="http://www.w3.org/2000/svg" xmlns:rdkit="http://www.rdkit.org/xml" xmlns:xlink="http://www.w3.org/1999/xlink" viewBox="-10.9 21.799999999999997 221.8 156.39999999999998">
<path class="bond-0 atom-7 atom-0" d="M 54.4,63.4 L 54.4,71.2" style="fill:none;fill-rule:evenodd;stroke:#FF0000;stroke-width:2.0px;stroke-linecap:butt;stroke-linejoin:miter;stroke-opacity:1"/>
<path class="bond-0 atom-7 atom-0" d="M 54.4,71.2 L 54.4,79.1" style="fill:none;fill-rule:evenodd;stroke:#FF7F00;stroke-width:2.0px;stroke-linecap:butt;stroke-linejoin:miter;stroke-opacity:1"/>
<path class="bond-0 atom-7 atom-0" d="M 48.6,63.4 L 48.6,71.2" style="fill:none;fill-rule:evenodd;stroke:#FF0000;stroke-width:2.0px;stroke-linecap:butt;stroke-linejoin:miter;stroke-opacity:1"/>
<path class="bond-0 atom-7 atom-0" d="M 48.6,71.2 L 48.6,79.1" style="fill:none;fill-rule:evenodd;stroke:#FF7F00;stroke-width:2.0px;stroke-linecap:butt;stroke-linejoin:miter;stroke-opacity:1"/>
<path class="bond-1 atom-0 atom-9" d="M 51.5,101.4 L 51.5,109.4" style="fill:none;fill-rule:evenodd;stroke:#FF7F00;stroke-width:2.0px;stroke-linecap:butt;stroke-linejoin:miter;stroke-opacity:1"/>
<path class="bond-1 atom-0 atom-9" d="M 51.5,109.4 L 51.5,117.4" style="fill:none;fill-rule:evenodd;stroke:#FF0000;stroke-width:2.0px;stroke-linecap:butt;stroke-linejoin:miter;stroke-opacity:1"/>
<path class="bond-2 atom-1 atom-0" d="M 74.4,103.5 L 66.8,99.0" style="fill:none;fill-rule:evenodd;stroke:#FF0000;stroke-width:2.0px;stroke-linecap:butt;stroke-linejoin:miter;stroke-opacity:1"/>
<path class="bond-2 atom-1 atom-0" d="M 66.8,99.0 L 59.1,94.6" style="fill:none;fill-rule:evenodd;stroke:#FF7F00;stroke-width:2.0px;stroke-linecap:butt;stroke-linejoin:miter;stroke-opacity:1"/>
<path class="bond-3 atom-2 atom-6" d="M 151.8,113.2 L 151.0,113.2" style="fill:none;fill-rule:evenodd;stroke:#000000;stroke-width:1.0px;stroke-linecap:butt;stroke-linejoin:miter;stroke-opacity:1"/>
<path class="bond-3 atom-2 atom-6" d="M 152.2,116.9 L 150.6,116.9" style="fill:none;fill-rule:evenodd;stroke:#000000;stroke-width:1.0px;stroke-linecap:butt;stroke-linejoin:miter;stroke-opacity:1"/>
<path class="bond-3 atom-2 atom-6" d="M 152.6,120.6 L 150.2,120.6" style="fill:none;fill-rule:evenodd;stroke:#000000;stroke-width:1.0px;stroke-linecap:butt;stroke-linejoin:miter;stroke-opacity:1"/>
<path class="bond-3 atom-2 atom-6" d="M 153.0,124.3 L 149.8,124.3" style="fill:none;fill-rule:evenodd;stroke:#FF0000;stroke-width:1.0px;stroke-linecap:butt;stroke-linejoin:miter;stroke-opacity:1"/>
<path class="bond-3 atom-2 atom-6" d="M 153.5,128.0 L 149.3,128.0" style="fill:none;fill-rule:evenodd;stroke:#FF0000;stroke-width:1.0px;stroke-linecap:butt;stroke-linejoin:miter;stroke-opacity:1"/>
<path class="bond-3 atom-2 atom-6" d="M 153.9,131.7 L 148.9,131.7" style="fill:none;fill-rule:evenodd;stroke:#FF0000;stroke-width:1.0px;stroke-linecap:butt;stroke-linejoin:miter;stroke-opacity:1"/>
<path class="bond-3 atom-2 atom-6" d="M 154.3,135.4 L 148.5,135.4" style="fill:none;fill-rule:evenodd;stroke:#FF0000;stroke-width:1.0px;stroke-linecap:butt;stroke-linejoin:miter;stroke-opacity:1"/>
<path class="bond-4 atom-1 atom-3" d="M 95.1,103.5 L 106.6,96.9" style="fill:none;fill-rule:evenodd;stroke:#FF0000;stroke-width:2.0px;stroke-linecap:butt;stroke-linejoin:miter;stroke-opacity:1"/>
<path class="bond-4 atom-1 atom-3" d="M 106.6,96.9 L 118.1,90.2" style="fill:none;fill-rule:evenodd;stroke:#000000;stroke-width:2.0px;stroke-linecap:butt;stroke-linejoin:miter;stroke-opacity:1"/>
<path class="bond-5 atom-2 atom-3" d="M 151.4,109.5 L 118.1,90.2" style="fill:none;fill-rule:evenodd;stroke:#000000;stroke-width:2.0px;stroke-linecap:butt;stroke-linejoin:miter;stroke-opacity:1"/>
<path class="bond-6 atom-4 atom-0" d="M 32.1,101.4 L 38.0,98.0" style="fill:none;fill-rule:evenodd;stroke:#FF0000;stroke-width:2.0px;stroke-linecap:butt;stroke-linejoin:miter;stroke-opacity:1"/>
<path class="bond-6 atom-4 atom-0" d="M 38.0,98.0 L 43.9,94.6" style="fill:none;fill-rule:evenodd;stroke:#FF7F00;stroke-width:2.0px;stroke-linecap:butt;stroke-linejoin:miter;stroke-opacity:1"/>
<path class="bond-7 atom-2 atom-5" d="M 151.4,109.5 L 184.7,90.2" style="fill:none;fill-rule:evenodd;stroke:#000000;stroke-width:2.0px;stroke-linecap:butt;stroke-linejoin:miter;stroke-opacity:1"/>
<path class="bond-8 atom-5 atom-8" d="M 184.7,90.2 L 184.7,76.8" style="fill:none;fill-rule:evenodd;stroke:#000000;stroke-width:2.0px;stroke-linecap:butt;stroke-linejoin:miter;stroke-opacity:1"/>
<path class="bond-8 atom-5 atom-8" d="M 184.7,76.8 L 184.7,63.4" style="fill:none;fill-rule:evenodd;stroke:#FF0000;stroke-width:2.0px;stroke-linecap:butt;stroke-linejoin:miter;stroke-opacity:1"/>
<path class="bond-8 atom-5 atom-8" d="M 178.9,86.9 L 178.9,76.8" style="fill:none;fill-rule:evenodd;stroke:#000000;stroke-width:2.0px;stroke-linecap:butt;stroke-linejoin:miter;stroke-opacity:1"/>
<path class="bond-8 atom-5 atom-8" d="M 178.9,76.8 L 178.9,63.4" style="fill:none;fill-rule:evenodd;stroke:#FF0000;stroke-width:2.0px;stroke-linecap:butt;stroke-linejoin:miter;stroke-opacity:1"/>
<path d="M 149.7,108.5 L 151.4,109.5 L 153.1,108.5" style="fill:none;stroke:#000000;stroke-width:2.0px;stroke-linecap:butt;stroke-linejoin:miter;stroke-opacity:1;"/>
<path d="M 117.5,90.6 L 118.1,90.2 L 119.8,91.2" style="fill:none;stroke:#000000;stroke-width:2.0px;stroke-linecap:butt;stroke-linejoin:miter;stroke-opacity:1;"/>
<path d="M 183.0,91.2 L 184.7,90.2 L 184.7,89.6" style="fill:none;stroke:#000000;stroke-width:2.0px;stroke-linecap:butt;stroke-linejoin:miter;stroke-opacity:1;"/>
<path class="atom-0" d="M 51.0 80.3 Q 54.4 80.3, 56.1 81.9 Q 57.8 83.4, 57.8 86.1 Q 57.8 88.9, 56.0 90.5 Q 54.3 92.0, 51.0 92.0 L 47.9 92.0 L 47.9 100.1 L 45.2 100.1 L 45.2 80.3 L 51.0 80.3 M 51.0 89.8 Q 52.9 89.8, 54.0 88.8 Q 55.0 87.9, 55.0 86.1 Q 55.0 84.4, 54.0 83.5 Q 53.0 82.6, 51.0 82.6 L 47.9 82.6 L 47.9 89.8 L 51.0 89.8 " fill="#FF7F00"/>
<path class="atom-1" d="M 75.7 109.5 Q 75.7 104.8, 78.0 102.1 Q 80.4 99.4, 84.8 99.4 Q 89.2 99.4, 91.5 102.1 Q 93.9 104.8, 93.9 109.5 Q 93.9 114.3, 91.5 117.1 Q 89.1 119.8, 84.8 119.8 Q 80.4 119.8, 78.0 117.1 Q 75.7 114.4, 75.7 109.5 M 84.8 117.5 Q 87.8 117.5, 89.4 115.5 Q 91.1 113.5, 91.1 109.5 Q 91.1 105.6, 89.4 103.7 Q 87.8 101.7, 84.8 101.7 Q 81.8 101.7, 80.1 103.6 Q 78.5 105.6, 78.5 109.5 Q 78.5 113.5, 80.1 115.5 Q 81.8 117.5, 84.8 117.5 " fill="#FF0000"/>
<path class="atom-4" d="M 9.1 109.5 Q 9.1 104.8, 11.4 102.1 Q 13.8 99.4, 18.2 99.4 Q 22.6 99.4, 24.9 102.1 Q 27.3 104.8, 27.3 109.5 Q 27.3 114.3, 24.9 117.1 Q 22.5 119.8, 18.2 119.8 Q 13.8 119.8, 11.4 117.1 Q 9.1 114.4, 9.1 109.5 M 18.2 117.5 Q 21.2 117.5, 22.8 115.5 Q 24.5 113.5, 24.5 109.5 Q 24.5 105.6, 22.8 103.7 Q 21.2 101.7, 18.2 101.7 Q 15.2 101.7, 13.5 103.6 Q 11.9 105.6, 11.9 109.5 Q 11.9 113.5, 13.5 115.5 Q 15.2 117.5, 18.2 117.5 " fill="#FF0000"/>
<path class="atom-4" d="M 30.1 102.7 L 36.9 102.7 L 36.9 104.2 L 30.1 104.2 L 30.1 102.7 " fill="#FF0000"/>
<path class="atom-6" d="M 142.3 148.0 Q 142.3 143.2, 144.7 140.6 Q 147.0 137.9, 151.4 137.9 Q 155.8 137.9, 158.1 140.6 Q 160.5 143.2, 160.5 148.0 Q 160.5 152.8, 158.1 155.5 Q 155.7 158.2, 151.4 158.2 Q 147.0 158.2, 144.7 155.5 Q 142.3 152.8, 142.3 148.0 M 151.4 156.0 Q 154.4 156.0, 156.0 154.0 Q 157.7 151.9, 157.7 148.0 Q 157.7 144.1, 156.0 142.1 Q 154.4 140.1, 151.4 140.1 Q 148.4 140.1, 146.7 142.1 Q 145.1 144.1, 145.1 148.0 Q 145.1 152.0, 146.7 154.0 Q 148.4 156.0, 151.4 156.0 " fill="#FF0000"/>
<path class="atom-6" d="M 163.6 138.1 L 166.3 138.1 L 166.3 146.5 L 176.4 146.5 L 176.4 138.1 L 179.1 138.1 L 179.1 157.9 L 176.4 157.9 L 176.4 148.8 L 166.3 148.8 L 166.3 157.9 L 163.6 157.9 L 163.6 138.1 " fill="#FF0000"/>
<path class="atom-7" d="M 42.4 51.8 Q 42.4 47.1, 44.7 44.4 Q 47.1 41.8, 51.5 41.8 Q 55.9 41.8, 58.2 44.4 Q 60.6 47.1, 60.6 51.8 Q 60.6 56.6, 58.2 59.4 Q 55.8 62.1, 51.5 62.1 Q 47.1 62.1, 44.7 59.4 Q 42.4 56.7, 42.4 51.8 M 51.5 59.9 Q 54.5 59.9, 56.1 57.8 Q 57.8 55.8, 57.8 51.8 Q 57.8 47.9, 56.1 46.0 Q 54.5 44.0, 51.5 44.0 Q 48.5 44.0, 46.8 46.0 Q 45.2 47.9, 45.2 51.8 Q 45.2 55.8, 46.8 57.8 Q 48.5 59.9, 51.5 59.9 " fill="#FF0000"/>
<path class="atom-8" d="M 172.7 51.8 Q 172.7 47.1, 175.1 44.4 Q 177.4 41.8, 181.8 41.8 Q 186.2 41.8, 188.6 44.4 Q 190.9 47.1, 190.9 51.8 Q 190.9 56.6, 188.5 59.4 Q 186.2 62.1, 181.8 62.1 Q 177.5 62.1, 175.1 59.4 Q 172.7 56.7, 172.7 51.8 M 181.8 59.9 Q 184.8 59.9, 186.5 57.8 Q 188.1 55.8, 188.1 51.8 Q 188.1 47.9, 186.5 46.0 Q 184.8 44.0, 181.8 44.0 Q 178.8 44.0, 177.1 46.0 Q 175.5 47.9, 175.5 51.8 Q 175.5 55.8, 177.1 57.8 Q 178.8 59.9, 181.8 59.9 " fill="#FF0000"/>
<path class="atom-9" d="M 42.4 128.7 Q 42.4 124.0, 44.7 121.3 Q 47.1 118.7, 51.5 118.7 Q 55.9 118.7, 58.2 121.3 Q 60.6 124.0, 60.6 128.7 Q 60.6 133.6, 58.2 136.3 Q 55.8 139.0, 51.5 139.0 Q 47.1 139.0, 44.7 136.3 Q 42.4 133.6, 42.4 128.7 M 51.5 136.8 Q 54.5 136.8, 56.1 134.8 Q 57.8 132.7, 57.8 128.7 Q 57.8 124.9, 56.1 122.9 Q 54.5 120.9, 51.5 120.9 Q 48.5 120.9, 46.8 122.9 Q 45.2 124.8, 45.2 128.7 Q 45.2 132.7, 46.8 134.8 Q 48.5 136.8, 51.5 136.8 " fill="#FF0000"/>
<path class="atom-9" d="M 63.4 121.9 L 70.2 121.9 L 70.2 123.4 L 63.4 123.4 L 63.4 121.9 " fill="#FF0000"/>
</svg>