<svg xmlns="http://www.w3.org/2000/svg" xmlns:rdkit="http://www.rdkit.org/xml" xmlns:xlink="http://www.w3.org/1999/xlink" viewBox="18.700000000000003 -10.9 162.60000000000002 221.8">
<path class="bond-0 atom-1 atom-0" d="M 95.0,119.1 L 91.1,114.7" style="fill:none;fill-rule:evenodd;stroke:#CCCC00;stroke-width:2.0px;stroke-linecap:butt;stroke-linejoin:miter;stroke-opacity:1"/>
<path class="bond-0 atom-1 atom-0" d="M 91.1,114.7 L 87.1,110.3" style="fill:none;fill-rule:evenodd;stroke:#000000;stroke-width:2.0px;stroke-linecap:butt;stroke-linejoin:miter;stroke-opacity:1"/>
<path class="bond-1 atom-1 atom-2" d="M 96.7,127.8 L 94.9,133.3" style="fill:none;fill-rule:evenodd;stroke:#CCCC00;stroke-width:2.0px;stroke-linecap:butt;stroke-linejoin:miter;stroke-opacity:1"/>
<path class="bond-1 atom-1 atom-2" d="M 94.9,133.3 L 93.1,138.7" style="fill:none;fill-rule:evenodd;stroke:#000000;stroke-width:2.0px;stroke-linecap:butt;stroke-linejoin:miter;stroke-opacity:1"/>
<path class="bond-2 atom-1 atom-9" d="M 106.5,121.0 L 110.6,120.2" style="fill:none;fill-rule:evenodd;stroke:#CCCC00;stroke-width:2.0px;stroke-linecap:butt;stroke-linejoin:miter;stroke-opacity:1"/>
<path class="bond-2 atom-1 atom-9" d="M 110.6,120.2 L 116.0,119.0" style="fill:none;fill-rule:evenodd;stroke:#000000;stroke-width:2.0px;stroke-linecap:butt;stroke-linejoin:miter;stroke-opacity:1"/>
<path class="bond-3 atom-2 atom-3" d="M 93.1,138.7 L 76.8,142.2" style="fill:none;fill-rule:evenodd;stroke:#000000;stroke-width:2.0px;stroke-linecap:butt;stroke-linejoin:miter;stroke-opacity:1"/>
<path class="bond-4 atom-3 atom-4" d="M 76.8,142.2 L 71.6,158.1" style="fill:none;fill-rule:evenodd;stroke:#000000;stroke-width:2.0px;stroke-linecap:butt;stroke-linejoin:miter;stroke-opacity:1"/>
<path class="bond-5 atom-4 atom-5" d="M 71.6,158.1 L 68.4,159.4 L 68.2,158.2 Z" style="fill:#000000;fill-rule:evenodd;fill-opacity:1;stroke:#000000;stroke-width:0.5px;stroke-linecap:butt;stroke-linejoin:miter;stroke-opacity:1;"/>
<path class="bond-5 atom-4 atom-5" d="M 68.4,159.4 L 64.7,158.3 L 65.3,160.7 Z" style="fill:#0000FF;fill-rule:evenodd;fill-opacity:1;stroke:#0000FF;stroke-width:0.5px;stroke-linecap:butt;stroke-linejoin:miter;stroke-opacity:1;"/>
<path class="bond-5 atom-4 atom-5" d="M 68.4,159.4 L 68.2,158.2 L 64.7,158.3 Z" style="fill:#0000FF;fill-rule:evenodd;fill-opacity:1;stroke:#0000FF;stroke-width:0.5px;stroke-linecap:butt;stroke-linejoin:miter;stroke-opacity:1;"/>
<path class="bond-6 atom-4 atom-6" d="M 71.6,158.1 L 82.8,170.5" style="fill:none;fill-rule:evenodd;stroke:#000000;stroke-width:2.0px;stroke-linecap:butt;stroke-linejoin:miter;stroke-opacity:1"/>
<path class="bond-7 atom-6 atom-7" d="M 82.8,170.5 L 81.0,176.0" style="fill:none;fill-rule:evenodd;stroke:#000000;stroke-width:2.0px;stroke-linecap:butt;stroke-linejoin:miter;stroke-opacity:1"/>
<path class="bond-7 atom-6 atom-7" d="M 81.0,176.0 L 79.2,181.5" style="fill:none;fill-rule:evenodd;stroke:#FF0000;stroke-width:2.0px;stroke-linecap:butt;stroke-linejoin:miter;stroke-opacity:1"/>
<path class="bond-8 atom-6 atom-8" d="M 82.4,171.9 L 88.6,170.5" style="fill:none;fill-rule:evenodd;stroke:#000000;stroke-width:2.0px;stroke-linecap:butt;stroke-linejoin:miter;stroke-opacity:1"/>
<path class="bond-8 atom-6 atom-8" d="M 88.6,170.5 L 94.9,169.2" style="fill:none;fill-rule:evenodd;stroke:#FF0000;stroke-width:2.0px;stroke-linecap:butt;stroke-linejoin:miter;stroke-opacity:1"/>
<path class="bond-8 atom-6 atom-8" d="M 81.8,169.4 L 88.1,168.1" style="fill:none;fill-rule:evenodd;stroke:#000000;stroke-width:2.0px;stroke-linecap:butt;stroke-linejoin:miter;stroke-opacity:1"/>
<path class="bond-8 atom-6 atom-8" d="M 88.1,168.1 L 94.4,166.8" style="fill:none;fill-rule:evenodd;stroke:#FF0000;stroke-width:2.0px;stroke-linecap:butt;stroke-linejoin:miter;stroke-opacity:1"/>
<path class="bond-9 atom-10 atom-9" d="M 119.8,103.4 L 116.0,119.0 L 113.2,119.6 Z" style="fill:#000000;fill-rule:evenodd;fill-opacity:1;stroke:#000000;stroke-width:0.5px;stroke-linecap:butt;stroke-linejoin:miter;stroke-opacity:1;"/>
<path class="bond-10 atom-10 atom-11" d="M 119.8,103.4 L 116.8,99.1" style="fill:none;fill-rule:evenodd;stroke:#000000;stroke-width:2.0px;stroke-linecap:butt;stroke-linejoin:miter;stroke-opacity:1"/>
<path class="bond-10 atom-10 atom-11" d="M 116.8,99.1 L 113.7,94.9" style="fill:none;fill-rule:evenodd;stroke:#FF0000;stroke-width:2.0px;stroke-linecap:butt;stroke-linejoin:miter;stroke-opacity:1"/>
<path class="bond-11 atom-10 atom-15" d="M 119.8,103.4 L 135.8,98.2" style="fill:none;fill-rule:evenodd;stroke:#000000;stroke-width:2.0px;stroke-linecap:butt;stroke-linejoin:miter;stroke-opacity:1"/>
<path class="bond-12 atom-11 atom-12" d="M 113.6,84.9 L 116.7,80.6" style="fill:none;fill-rule:evenodd;stroke:#FF0000;stroke-width:2.0px;stroke-linecap:butt;stroke-linejoin:miter;stroke-opacity:1"/>
<path class="bond-12 atom-11 atom-12" d="M 116.7,80.6 L 119.8,76.3" style="fill:none;fill-rule:evenodd;stroke:#000000;stroke-width:2.0px;stroke-linecap:butt;stroke-linejoin:miter;stroke-opacity:1"/>
<path class="bond-13 atom-12 atom-13" d="M 119.8,76.3 L 135.8,81.5" style="fill:none;fill-rule:evenodd;stroke:#000000;stroke-width:2.0px;stroke-linecap:butt;stroke-linejoin:miter;stroke-opacity:1"/>
<path class="bond-14 atom-12 atom-17" d="M 119.8,76.3 L 117.5,71.3 L 118.7,70.9 Z" style="fill:#000000;fill-rule:evenodd;fill-opacity:1;stroke:#000000;stroke-width:0.5px;stroke-linecap:butt;stroke-linejoin:miter;stroke-opacity:1;"/>
<path class="bond-14 atom-12 atom-17" d="M 117.5,71.3 L 117.6,65.4 L 115.2,66.2 Z" style="fill:#0000FF;fill-rule:evenodd;fill-opacity:1;stroke:#0000FF;stroke-width:0.5px;stroke-linecap:butt;stroke-linejoin:miter;stroke-opacity:1;"/>
<path class="bond-14 atom-12 atom-17" d="M 117.5,71.3 L 118.7,70.9 L 117.6,65.4 Z" style="fill:#0000FF;fill-rule:evenodd;fill-opacity:1;stroke:#0000FF;stroke-width:0.5px;stroke-linecap:butt;stroke-linejoin:miter;stroke-opacity:1;"/>
<path class="bond-15 atom-13 atom-14" d="M 138.3,79.1 L 138.8,79.8" style="fill:none;fill-rule:evenodd;stroke:#000000;stroke-width:1.0px;stroke-linecap:butt;stroke-linejoin:miter;stroke-opacity:1"/>
<path class="bond-15 atom-13 atom-14" d="M 140.9,76.7 L 141.9,78.0" style="fill:none;fill-rule:evenodd;stroke:#FF0000;stroke-width:1.0px;stroke-linecap:butt;stroke-linejoin:miter;stroke-opacity:1"/>
<path class="bond-15 atom-13 atom-14" d="M 143.5,74.3 L 145.0,76.3" style="fill:none;fill-rule:evenodd;stroke:#FF0000;stroke-width:1.0px;stroke-linecap:butt;stroke-linejoin:miter;stroke-opacity:1"/>
<path class="bond-16 atom-13 atom-15" d="M 135.8,81.5 L 135.8,98.2" style="fill:none;fill-rule:evenodd;stroke:#000000;stroke-width:2.0px;stroke-linecap:butt;stroke-linejoin:miter;stroke-opacity:1"/>
<path class="bond-17 atom-15 atom-16" d="M 138.8,99.9 L 138.3,100.6" style="fill:none;fill-rule:evenodd;stroke:#000000;stroke-width:1.0px;stroke-linecap:butt;stroke-linejoin:miter;stroke-opacity:1"/>
<path class="bond-17 atom-15 atom-16" d="M 141.9,101.6 L 140.9,103.0" style="fill:none;fill-rule:evenodd;stroke:#FF0000;stroke-width:1.0px;stroke-linecap:butt;stroke-linejoin:miter;stroke-opacity:1"/>
<path class="bond-17 atom-15 atom-16" d="M 145.0,103.4 L 143.5,105.4" style="fill:none;fill-rule:evenodd;stroke:#FF0000;stroke-width:1.0px;stroke-linecap:butt;stroke-linejoin:miter;stroke-opacity:1"/>
<path class="bond-18 atom-17 atom-18" d="M 118.2,55.5 L 121.4,51.2" style="fill:none;fill-rule:evenodd;stroke:#0000FF;stroke-width:2.0px;stroke-linecap:butt;stroke-linejoin:miter;stroke-opacity:1"/>
<path class="bond-18 atom-17 atom-18" d="M 121.4,51.2 L 124.5,46.9" style="fill:none;fill-rule:evenodd;stroke:#000000;stroke-width:2.0px;stroke-linecap:butt;stroke-linejoin:miter;stroke-opacity:1"/>
<path class="bond-19 atom-17 atom-21" d="M 110.9,59.2 L 104.8,57.2" style="fill:none;fill-rule:evenodd;stroke:#0000FF;stroke-width:2.0px;stroke-linecap:butt;stroke-linejoin:miter;stroke-opacity:1"/>
<path class="bond-19 atom-17 atom-21" d="M 104.8,57.2 L 98.8,55.2" style="fill:none;fill-rule:evenodd;stroke:#000000;stroke-width:2.0px;stroke-linecap:butt;stroke-linejoin:miter;stroke-opacity:1"/>
<path class="bond-20 atom-18 atom-19" d="M 124.5,46.9 L 121.4,42.5" style="fill:none;fill-rule:evenodd;stroke:#000000;stroke-width:2.0px;stroke-linecap:butt;stroke-linejoin:miter;stroke-opacity:1"/>
<path class="bond-20 atom-18 atom-19" d="M 121.4,42.5 L 118.2,38.2" style="fill:none;fill-rule:evenodd;stroke:#0000FF;stroke-width:2.0px;stroke-linecap:butt;stroke-linejoin:miter;stroke-opacity:1"/>
<path class="bond-20 atom-18 atom-19" d="M 121.4,46.9 L 118.8,43.3" style="fill:none;fill-rule:evenodd;stroke:#000000;stroke-width:2.0px;stroke-linecap:butt;stroke-linejoin:miter;stroke-opacity:1"/>
<path class="bond-20 atom-18 atom-19" d="M 118.8,43.3 L 116.2,39.7" style="fill:none;fill-rule:evenodd;stroke:#0000FF;stroke-width:2.0px;stroke-linecap:butt;stroke-linejoin:miter;stroke-opacity:1"/>
<path class="bond-21 atom-19 atom-20" d="M 110.9,34.6 L 104.8,36.5" style="fill:none;fill-rule:evenodd;stroke:#0000FF;stroke-width:2.0px;stroke-linecap:butt;stroke-linejoin:miter;stroke-opacity:1"/>
<path class="bond-21 atom-19 atom-20" d="M 104.8,36.5 L 98.8,38.5" style="fill:none;fill-rule:evenodd;stroke:#000000;stroke-width:2.0px;stroke-linecap:butt;stroke-linejoin:miter;stroke-opacity:1"/>
<path class="bond-22 atom-20 atom-21" d="M 98.8,38.5 L 98.8,55.2" style="fill:none;fill-rule:evenodd;stroke:#000000;stroke-width:2.0px;stroke-linecap:butt;stroke-linejoin:miter;stroke-opacity:1"/>
<path class="bond-22 atom-20 atom-21" d="M 101.3,40.3 L 101.3,53.4" style="fill:none;fill-rule:evenodd;stroke:#000000;stroke-width:2.0px;stroke-linecap:butt;stroke-linejoin:miter;stroke-opacity:1"/>
<path class="bond-23 atom-20 atom-25" d="M 98.8,38.5 L 84.3,30.1" style="fill:none;fill-rule:evenodd;stroke:#000000;stroke-width:2.0px;stroke-linecap:butt;stroke-linejoin:miter;stroke-opacity:1"/>
<path class="bond-24 atom-21 atom-22" d="M 98.8,55.2 L 93.4,58.3" style="fill:none;fill-rule:evenodd;stroke:#000000;stroke-width:2.0px;stroke-linecap:butt;stroke-linejoin:miter;stroke-opacity:1"/>
<path class="bond-24 atom-21 atom-22" d="M 93.4,58.3 L 88.1,61.4" style="fill:none;fill-rule:evenodd;stroke:#0000FF;stroke-width:2.0px;stroke-linecap:butt;stroke-linejoin:miter;stroke-opacity:1"/>
<path class="bond-25 atom-22 atom-23" d="M 80.5,61.4 L 75.1,58.3" style="fill:none;fill-rule:evenodd;stroke:#0000FF;stroke-width:2.0px;stroke-linecap:butt;stroke-linejoin:miter;stroke-opacity:1"/>
<path class="bond-25 atom-22 atom-23" d="M 75.1,58.3 L 69.8,55.2" style="fill:none;fill-rule:evenodd;stroke:#000000;stroke-width:2.0px;stroke-linecap:butt;stroke-linejoin:miter;stroke-opacity:1"/>
<path class="bond-25 atom-22 atom-23" d="M 81.7,59.2 L 77.0,56.5" style="fill:none;fill-rule:evenodd;stroke:#0000FF;stroke-width:2.0px;stroke-linecap:butt;stroke-linejoin:miter;stroke-opacity:1"/>
<path class="bond-25 atom-22 atom-23" d="M 77.0,56.5 L 72.3,53.8" style="fill:none;fill-rule:evenodd;stroke:#000000;stroke-width:2.0px;stroke-linecap:butt;stroke-linejoin:miter;stroke-opacity:1"/>
<path class="bond-26 atom-23 atom-24" d="M 69.8,55.2 L 69.8,49.3" style="fill:none;fill-rule:evenodd;stroke:#000000;stroke-width:2.0px;stroke-linecap:butt;stroke-linejoin:miter;stroke-opacity:1"/>
<path class="bond-26 atom-23 atom-24" d="M 69.8,49.3 L 69.8,43.4" style="fill:none;fill-rule:evenodd;stroke:#0000FF;stroke-width:2.0px;stroke-linecap:butt;stroke-linejoin:miter;stroke-opacity:1"/>
<path class="bond-27 atom-24 atom-25" d="M 73.6,36.3 L 78.9,33.2" style="fill:none;fill-rule:evenodd;stroke:#0000FF;stroke-width:2.0px;stroke-linecap:butt;stroke-linejoin:miter;stroke-opacity:1"/>
<path class="bond-27 atom-24 atom-25" d="M 78.9,33.2 L 84.3,30.1" style="fill:none;fill-rule:evenodd;stroke:#000000;stroke-width:2.0px;stroke-linecap:butt;stroke-linejoin:miter;stroke-opacity:1"/>
<path class="bond-27 atom-24 atom-25" d="M 74.9,38.5 L 79.6,35.7" style="fill:none;fill-rule:evenodd;stroke:#0000FF;stroke-width:2.0px;stroke-linecap:butt;stroke-linejoin:miter;stroke-opacity:1"/>
<path class="bond-27 atom-24 atom-25" d="M 79.6,35.7 L 84.3,33.0" style="fill:none;fill-rule:evenodd;stroke:#000000;stroke-width:2.0px;stroke-linecap:butt;stroke-linejoin:miter;stroke-opacity:1"/>
<path class="bond-28 atom-25 atom-26" d="M 84.3,30.1 L 84.3,24.2" style="fill:none;fill-rule:evenodd;stroke:#000000;stroke-width:2.0px;stroke-linecap:butt;stroke-linejoin:miter;stroke-opacity:1"/>
<path class="bond-28 atom-25 atom-26" d="M 84.3,24.2 L 84.3,18.3" style="fill:none;fill-rule:evenodd;stroke:#0000FF;stroke-width:2.0px;stroke-linecap:butt;stroke-linejoin:miter;stroke-opacity:1"/>
<path d="M 93.2,138.4 L 93.1,138.7 L 92.3,138.9" style="fill:none;stroke:#000000;stroke-width:2.0px;stroke-linecap:butt;stroke-linejoin:miter;stroke-opacity:1;"/>
<path d="M 77.6,142.0 L 76.8,142.2 L 76.5,143.0" style="fill:none;stroke:#000000;stroke-width:2.0px;stroke-linecap:butt;stroke-linejoin:miter;stroke-opacity:1;"/>
<path d="M 71.9,157.3 L 71.6,158.1 L 72.2,158.7" style="fill:none;stroke:#000000;stroke-width:2.0px;stroke-linecap:butt;stroke-linejoin:miter;stroke-opacity:1;"/>
<path d="M 82.2,169.9 L 82.8,170.5 L 82.7,170.8" style="fill:none;stroke:#000000;stroke-width:2.0px;stroke-linecap:butt;stroke-linejoin:miter;stroke-opacity:1;"/>
<path d="M 119.7,103.2 L 119.8,103.4 L 120.6,103.1" style="fill:none;stroke:#000000;stroke-width:2.0px;stroke-linecap:butt;stroke-linejoin:miter;stroke-opacity:1;"/>
<path d="M 119.7,76.5 L 119.8,76.3 L 120.6,76.6" style="fill:none;stroke:#000000;stroke-width:2.0px;stroke-linecap:butt;stroke-linejoin:miter;stroke-opacity:1;"/>
<path d="M 135.0,81.2 L 135.8,81.5 L 135.8,82.3" style="fill:none;stroke:#000000;stroke-width:2.0px;stroke-linecap:butt;stroke-linejoin:miter;stroke-opacity:1;"/>
<path d="M 135.0,98.5 L 135.8,98.2 L 135.8,97.4" style="fill:none;stroke:#000000;stroke-width:2.0px;stroke-linecap:butt;stroke-linejoin:miter;stroke-opacity:1;"/>
<path d="M 124.4,47.1 L 124.5,46.9 L 124.4,46.6" style="fill:none;stroke:#000000;stroke-width:2.0px;stroke-linecap:butt;stroke-linejoin:miter;stroke-opacity:1;"/>
<path d="M 70.1,55.4 L 69.8,55.2 L 69.8,54.9" style="fill:none;stroke:#000000;stroke-width:2.0px;stroke-linecap:butt;stroke-linejoin:miter;stroke-opacity:1;"/>
<path class="atom-1" d="M 95.9 125.7 Q 96.0 125.8, 96.4 125.9 Q 96.8 126.1, 97.2 126.2 Q 97.7 126.3, 98.1 126.3 Q 98.9 126.3, 99.4 125.9 Q 99.9 125.5, 99.9 124.8 Q 99.9 124.4, 99.6 124.1 Q 99.4 123.8, 99.0 123.6 Q 98.7 123.5, 98.1 123.3 Q 97.3 123.0, 96.8 122.8 Q 96.4 122.6, 96.1 122.1 Q 95.7 121.7, 95.7 120.9 Q 95.7 119.8, 96.5 119.1 Q 97.2 118.5, 98.7 118.5 Q 99.7 118.5, 100.8 118.9 L 100.5 119.9 Q 99.5 119.5, 98.7 119.5 Q 97.9 119.5, 97.4 119.8 Q 96.9 120.2, 97.0 120.7 Q 97.0 121.2, 97.2 121.5 Q 97.4 121.8, 97.8 121.9 Q 98.1 122.1, 98.7 122.3 Q 99.5 122.5, 99.9 122.8 Q 100.4 123.0, 100.7 123.5 Q 101.1 124.0, 101.1 124.8 Q 101.1 126.0, 100.3 126.7 Q 99.5 127.3, 98.2 127.3 Q 97.4 127.3, 96.8 127.1 Q 96.2 127.0, 95.6 126.7 L 95.9 125.7 " fill="#CCCC00"/>
<path class="atom-1" d="M 102.2 119.9 L 103.7 119.9 L 103.7 118.3 L 104.4 118.3 L 104.4 119.9 L 106.0 119.9 L 106.0 120.5 L 104.4 120.5 L 104.4 122.1 L 103.7 122.1 L 103.7 120.5 L 102.2 120.5 L 102.2 119.9 " fill="#CCCC00"/>
<path class="atom-5" d="M 38.7 157.2 L 39.8 157.2 L 39.8 160.9 L 44.2 160.9 L 44.2 157.2 L 45.4 157.2 L 45.4 165.9 L 44.2 165.9 L 44.2 161.9 L 39.8 161.9 L 39.8 165.9 L 38.7 165.9 L 38.7 157.2 " fill="#0000FF"/>
<path class="atom-5" d="M 49.8 167.2 Q 50.3 167.3, 50.6 167.7 Q 50.9 168.0, 50.9 168.6 Q 50.9 169.1, 50.6 169.5 Q 50.4 169.8, 50.0 170.0 Q 49.5 170.2, 48.9 170.2 Q 48.3 170.2, 47.9 170.0 Q 47.4 169.8, 47.1 169.4 L 47.5 168.9 Q 47.9 169.3, 48.2 169.5 Q 48.5 169.6, 48.9 169.6 Q 49.5 169.6, 49.8 169.3 Q 50.1 169.1, 50.1 168.6 Q 50.1 168.0, 49.8 167.8 Q 49.4 167.5, 48.7 167.5 L 48.3 167.5 L 48.3 166.9 L 48.7 166.9 Q 49.3 166.9, 49.6 166.6 Q 50.0 166.4, 50.0 165.9 Q 50.0 165.5, 49.7 165.3 Q 49.4 165.1, 48.9 165.1 Q 48.5 165.1, 48.2 165.2 Q 47.9 165.4, 47.7 165.8 L 47.1 165.5 Q 47.3 165.1, 47.8 164.7 Q 48.3 164.4, 48.9 164.4 Q 49.8 164.4, 50.3 164.8 Q 50.8 165.2, 50.8 165.9 Q 50.8 166.3, 50.5 166.7 Q 50.3 167.0, 49.8 167.2 " fill="#0000FF"/>
<path class="atom-5" d="M 53.3 157.2 L 56.2 161.8 Q 56.4 162.3, 56.9 163.1 Q 57.3 163.9, 57.4 163.9 L 57.4 157.2 L 58.5 157.2 L 58.5 165.9 L 57.3 165.9 L 54.3 160.9 Q 53.9 160.3, 53.6 159.6 Q 53.2 158.9, 53.1 158.7 L 53.1 165.9 L 52.0 165.9 L 52.0 157.2 L 53.3 157.2 " fill="#0000FF"/>
<path class="atom-5" d="M 60.1 158.8 L 61.7 158.8 L 61.7 157.2 L 62.3 157.2 L 62.3 158.8 L 63.9 158.8 L 63.9 159.4 L 62.3 159.4 L 62.3 161.0 L 61.7 161.0 L 61.7 159.4 L 60.1 159.4 L 60.1 158.8 " fill="#0000FF"/>
<path class="atom-7" d="M 73.7 186.4 Q 73.7 184.4, 74.7 183.2 Q 75.7 182.1, 77.6 182.1 Q 79.5 182.1, 80.6 183.2 Q 81.6 184.4, 81.6 186.4 Q 81.6 188.5, 80.6 189.7 Q 79.5 190.9, 77.6 190.9 Q 75.7 190.9, 74.7 189.7 Q 73.7 188.5, 73.7 186.4 M 77.6 189.9 Q 78.9 189.9, 79.7 189.1 Q 80.4 188.2, 80.4 186.4 Q 80.4 184.8, 79.7 183.9 Q 78.9 183.0, 77.6 183.0 Q 76.3 183.0, 75.6 183.9 Q 74.9 184.7, 74.9 186.4 Q 74.9 188.2, 75.6 189.1 Q 76.3 189.9, 77.6 189.9 " fill="#FF0000"/>
<path class="atom-7" d="M 82.8 183.5 L 85.8 183.5 L 85.8 184.1 L 82.8 184.1 L 82.8 183.5 " fill="#FF0000"/>
<path class="atom-8" d="M 95.2 167.1 Q 95.2 165.0, 96.2 163.8 Q 97.3 162.7, 99.2 162.7 Q 101.1 162.7, 102.1 163.8 Q 103.1 165.0, 103.1 167.1 Q 103.1 169.1, 102.1 170.3 Q 101.1 171.5, 99.2 171.5 Q 97.3 171.5, 96.2 170.3 Q 95.2 169.2, 95.2 167.1 M 99.2 170.5 Q 100.5 170.5, 101.2 169.7 Q 101.9 168.8, 101.9 167.1 Q 101.9 165.4, 101.2 164.5 Q 100.5 163.6, 99.2 163.6 Q 97.9 163.6, 97.1 164.5 Q 96.4 165.3, 96.4 167.1 Q 96.4 168.8, 97.1 169.7 Q 97.9 170.5, 99.2 170.5 " fill="#FF0000"/>
<path class="atom-11" d="M 106.1 89.9 Q 106.1 87.8, 107.1 86.6 Q 108.1 85.5, 110.0 85.5 Q 111.9 85.5, 112.9 86.6 Q 114.0 87.8, 114.0 89.9 Q 114.0 92.0, 112.9 93.2 Q 111.9 94.3, 110.0 94.3 Q 108.1 94.3, 107.1 93.2 Q 106.1 92.0, 106.1 89.9 M 110.0 93.4 Q 111.3 93.4, 112.0 92.5 Q 112.8 91.6, 112.8 89.9 Q 112.8 88.2, 112.0 87.3 Q 111.3 86.5, 110.0 86.5 Q 108.7 86.5, 108.0 87.3 Q 107.3 88.2, 107.3 89.9 Q 107.3 91.6, 108.0 92.5 Q 108.7 93.4, 110.0 93.4 " fill="#FF0000"/>
<path class="atom-14" d="M 145.3 71.7 Q 145.3 69.6, 146.4 68.4 Q 147.4 67.3, 149.3 67.3 Q 151.2 67.3, 152.2 68.4 Q 153.3 69.6, 153.3 71.7 Q 153.3 73.8, 152.2 75.0 Q 151.2 76.1, 149.3 76.1 Q 147.4 76.1, 146.4 75.0 Q 145.3 73.8, 145.3 71.7 M 149.3 75.2 Q 150.6 75.2, 151.3 74.3 Q 152.0 73.4, 152.0 71.7 Q 152.0 70.0, 151.3 69.1 Q 150.6 68.3, 149.3 68.3 Q 148.0 68.3, 147.3 69.1 Q 146.6 70.0, 146.6 71.7 Q 146.6 73.4, 147.3 74.3 Q 148.0 75.2, 149.3 75.2 " fill="#FF0000"/>
<path class="atom-14" d="M 154.6 67.4 L 155.8 67.4 L 155.8 71.0 L 160.2 71.0 L 160.2 67.4 L 161.3 67.4 L 161.3 76.0 L 160.2 76.0 L 160.2 72.0 L 155.8 72.0 L 155.8 76.0 L 154.6 76.0 L 154.6 67.4 " fill="#FF0000"/>
<path class="atom-16" d="M 145.3 108.1 Q 145.3 106.0, 146.4 104.8 Q 147.4 103.7, 149.3 103.7 Q 151.2 103.7, 152.2 104.8 Q 153.3 106.0, 153.3 108.1 Q 153.3 110.2, 152.2 111.4 Q 151.2 112.5, 149.3 112.5 Q 147.4 112.5, 146.4 111.4 Q 145.3 110.2, 145.3 108.1 M 149.3 111.6 Q 150.6 111.6, 151.3 110.7 Q 152.0 109.8, 152.0 108.1 Q 152.0 106.4, 151.3 105.5 Q 150.6 104.7, 149.3 104.7 Q 148.0 104.7, 147.3 105.5 Q 146.6 106.4, 146.6 108.1 Q 146.6 109.8, 147.3 110.7 Q 148.0 111.6, 149.3 111.6 " fill="#FF0000"/>
<path class="atom-16" d="M 154.6 103.8 L 155.8 103.8 L 155.8 107.4 L 160.2 107.4 L 160.2 103.8 L 161.3 103.8 L 161.3 112.4 L 160.2 112.4 L 160.2 108.4 L 155.8 108.4 L 155.8 112.4 L 154.6 112.4 L 154.6 103.8 " fill="#FF0000"/>
<path class="atom-17" d="M 112.8 56.1 L 115.6 60.7 Q 115.9 61.1, 116.3 61.9 Q 116.8 62.7, 116.8 62.8 L 116.8 56.1 L 117.9 56.1 L 117.9 64.7 L 116.8 64.7 L 113.7 59.7 Q 113.4 59.1, 113.0 58.5 Q 112.6 57.8, 112.5 57.6 L 112.5 64.7 L 111.4 64.7 L 111.4 56.1 L 112.8 56.1 " fill="#0000FF"/>
<path class="atom-19" d="M 112.8 29.0 L 115.6 33.6 Q 115.9 34.0, 116.3 34.8 Q 116.8 35.7, 116.8 35.7 L 116.8 29.0 L 117.9 29.0 L 117.9 37.6 L 116.8 37.6 L 113.7 32.6 Q 113.4 32.1, 113.0 31.4 Q 112.6 30.7, 112.5 30.5 L 112.5 37.6 L 111.4 37.6 L 111.4 29.0 L 112.8 29.0 " fill="#0000FF"/>
<path class="atom-22" d="M 82.4 59.3 L 85.2 63.8 Q 85.5 64.3, 85.9 65.1 Q 86.4 65.9, 86.4 66.0 L 86.4 59.3 L 87.5 59.3 L 87.5 67.9 L 86.4 67.9 L 83.3 62.9 Q 83.0 62.3, 82.6 61.7 Q 82.2 61.0, 82.1 60.8 L 82.1 67.9 L 81.0 67.9 L 81.0 59.3 L 82.4 59.3 " fill="#0000FF"/>
<path class="atom-24" d="M 67.9 34.2 L 70.7 38.8 Q 71.0 39.2, 71.4 40.0 Q 71.9 40.8, 71.9 40.9 L 71.9 34.2 L 73.1 34.2 L 73.1 42.8 L 71.9 42.8 L 68.8 37.8 Q 68.5 37.2, 68.1 36.6 Q 67.7 35.9, 67.6 35.7 L 67.6 42.8 L 66.5 42.8 L 66.5 34.2 L 67.9 34.2 " fill="#0000FF"/>
<path class="atom-26" d="M 82.4 9.1 L 85.2 13.7 Q 85.5 14.1, 85.9 14.9 Q 86.4 15.7, 86.4 15.8 L 86.4 9.1 L 87.5 9.1 L 87.5 17.7 L 86.4 17.7 L 83.3 12.7 Q 83.0 12.1, 82.6 11.5 Q 82.2 10.8, 82.1 10.6 L 82.1 17.7 L 81.0 17.7 L 81.0 9.1 L 82.4 9.1 " fill="#0000FF"/>
<path class="atom-26" d="M 89.2 9.1 L 90.4 9.1 L 90.4 12.8 L 94.8 12.8 L 94.8 9.1 L 95.9 9.1 L 95.9 17.7 L 94.8 17.7 L 94.8 13.7 L 90.4 13.7 L 90.4 17.7 L 89.2 17.7 L 89.2 9.1 " fill="#0000FF"/>
<path class="atom-26" d="M 97.6 17.4 Q 97.8 16.9, 98.3 16.6 Q 98.8 16.3, 99.5 16.3 Q 100.4 16.3, 100.9 16.7 Q 101.3 17.2, 101.3 18.0 Q 101.3 18.9, 100.7 19.7 Q 100.1 20.4, 98.8 21.4 L 101.4 21.4 L 101.4 22.0 L 97.6 22.0 L 97.6 21.5 Q 98.7 20.7, 99.3 20.2 Q 99.9 19.6, 100.2 19.1 Q 100.5 18.6, 100.5 18.1 Q 100.5 17.5, 100.3 17.2 Q 100.0 16.9, 99.5 16.9 Q 99.1 16.9, 98.8 17.1 Q 98.4 17.3, 98.2 17.7 L 97.6 17.4 " fill="#0000FF"/>
</svg>