<svg xmlns="http://www.w3.org/2000/svg" xmlns:rdkit="http://www.rdkit.org/xml" xmlns:xlink="http://www.w3.org/1999/xlink" viewBox="18.799999999999997 -10.9 162.39999999999998 221.8">
<path class="bond-0 atom-0 atom-6" d="M 138.7,99.9 L 138.2,100.6" style="fill:none;fill-rule:evenodd;stroke:#000000;stroke-width:1.0px;stroke-linecap:butt;stroke-linejoin:miter;stroke-opacity:1"/>
<path class="bond-0 atom-0 atom-6" d="M 141.8,101.6 L 140.8,103.0" style="fill:none;fill-rule:evenodd;stroke:#FF0000;stroke-width:1.0px;stroke-linecap:butt;stroke-linejoin:miter;stroke-opacity:1"/>
<path class="bond-0 atom-0 atom-6" d="M 144.9,103.4 L 143.4,105.4" style="fill:none;fill-rule:evenodd;stroke:#FF0000;stroke-width:1.0px;stroke-linecap:butt;stroke-linejoin:miter;stroke-opacity:1"/>
<path class="bond-1 atom-1 atom-0" d="M 135.7,81.5 L 135.7,98.2" style="fill:none;fill-rule:evenodd;stroke:#000000;stroke-width:2.0px;stroke-linecap:butt;stroke-linejoin:miter;stroke-opacity:1"/>
<path class="bond-2 atom-1 atom-5" d="M 138.2,79.1 L 138.7,79.8" style="fill:none;fill-rule:evenodd;stroke:#000000;stroke-width:1.0px;stroke-linecap:butt;stroke-linejoin:miter;stroke-opacity:1"/>
<path class="bond-2 atom-1 atom-5" d="M 140.8,76.7 L 141.8,78.0" style="fill:none;fill-rule:evenodd;stroke:#FF0000;stroke-width:1.0px;stroke-linecap:butt;stroke-linejoin:miter;stroke-opacity:1"/>
<path class="bond-2 atom-1 atom-5" d="M 143.4,74.3 L 144.9,76.3" style="fill:none;fill-rule:evenodd;stroke:#FF0000;stroke-width:1.0px;stroke-linecap:butt;stroke-linejoin:miter;stroke-opacity:1"/>
<path class="bond-3 atom-2 atom-1" d="M 119.7,76.3 L 135.7,81.5" style="fill:none;fill-rule:evenodd;stroke:#000000;stroke-width:2.0px;stroke-linecap:butt;stroke-linejoin:miter;stroke-opacity:1"/>
<path class="bond-4 atom-2 atom-7" d="M 119.7,76.3 L 117.4,71.3 L 118.6,70.9 Z" style="fill:#000000;fill-rule:evenodd;fill-opacity:1;stroke:#000000;stroke-width:0.5px;stroke-linecap:butt;stroke-linejoin:miter;stroke-opacity:1;"/>
<path class="bond-4 atom-2 atom-7" d="M 117.4,71.3 L 117.5,65.4 L 115.1,66.2 Z" style="fill:#0000FF;fill-rule:evenodd;fill-opacity:1;stroke:#0000FF;stroke-width:0.5px;stroke-linecap:butt;stroke-linejoin:miter;stroke-opacity:1;"/>
<path class="bond-4 atom-2 atom-7" d="M 117.4,71.3 L 118.6,70.9 L 117.5,65.4 Z" style="fill:#0000FF;fill-rule:evenodd;fill-opacity:1;stroke:#0000FF;stroke-width:0.5px;stroke-linecap:butt;stroke-linejoin:miter;stroke-opacity:1;"/>
<path class="bond-5 atom-2 atom-3" d="M 119.7,76.3 L 116.6,80.6" style="fill:none;fill-rule:evenodd;stroke:#000000;stroke-width:2.0px;stroke-linecap:butt;stroke-linejoin:miter;stroke-opacity:1"/>
<path class="bond-5 atom-2 atom-3" d="M 116.6,80.6 L 113.5,84.9" style="fill:none;fill-rule:evenodd;stroke:#FF0000;stroke-width:2.0px;stroke-linecap:butt;stroke-linejoin:miter;stroke-opacity:1"/>
<path class="bond-6 atom-3 atom-4" d="M 113.6,94.9 L 116.7,99.1" style="fill:none;fill-rule:evenodd;stroke:#FF0000;stroke-width:2.0px;stroke-linecap:butt;stroke-linejoin:miter;stroke-opacity:1"/>
<path class="bond-6 atom-3 atom-4" d="M 116.7,99.1 L 119.7,103.4" style="fill:none;fill-rule:evenodd;stroke:#000000;stroke-width:2.0px;stroke-linecap:butt;stroke-linejoin:miter;stroke-opacity:1"/>
<path class="bond-7 atom-4 atom-0" d="M 119.7,103.4 L 135.7,98.2" style="fill:none;fill-rule:evenodd;stroke:#000000;stroke-width:2.0px;stroke-linecap:butt;stroke-linejoin:miter;stroke-opacity:1"/>
<path class="bond-8 atom-4 atom-17" d="M 119.7,103.4 L 115.9,119.0 L 113.1,119.6 Z" style="fill:#000000;fill-rule:evenodd;fill-opacity:1;stroke:#000000;stroke-width:0.5px;stroke-linecap:butt;stroke-linejoin:miter;stroke-opacity:1;"/>
<path class="bond-9 atom-7 atom-8" d="M 110.8,59.2 L 104.7,57.2" style="fill:none;fill-rule:evenodd;stroke:#0000FF;stroke-width:2.0px;stroke-linecap:butt;stroke-linejoin:miter;stroke-opacity:1"/>
<path class="bond-9 atom-7 atom-8" d="M 104.7,57.2 L 98.7,55.2" style="fill:none;fill-rule:evenodd;stroke:#000000;stroke-width:2.0px;stroke-linecap:butt;stroke-linejoin:miter;stroke-opacity:1"/>
<path class="bond-10 atom-7 atom-9" d="M 118.1,55.5 L 121.3,51.2" style="fill:none;fill-rule:evenodd;stroke:#0000FF;stroke-width:2.0px;stroke-linecap:butt;stroke-linejoin:miter;stroke-opacity:1"/>
<path class="bond-10 atom-7 atom-9" d="M 121.3,51.2 L 124.4,46.9" style="fill:none;fill-rule:evenodd;stroke:#000000;stroke-width:2.0px;stroke-linecap:butt;stroke-linejoin:miter;stroke-opacity:1"/>
<path class="bond-11 atom-8 atom-10" d="M 98.7,55.2 L 98.7,38.5" style="fill:none;fill-rule:evenodd;stroke:#000000;stroke-width:2.0px;stroke-linecap:butt;stroke-linejoin:miter;stroke-opacity:1"/>
<path class="bond-11 atom-8 atom-10" d="M 101.2,53.4 L 101.2,40.3" style="fill:none;fill-rule:evenodd;stroke:#000000;stroke-width:2.0px;stroke-linecap:butt;stroke-linejoin:miter;stroke-opacity:1"/>
<path class="bond-12 atom-8 atom-11" d="M 98.7,55.2 L 93.3,58.3" style="fill:none;fill-rule:evenodd;stroke:#000000;stroke-width:2.0px;stroke-linecap:butt;stroke-linejoin:miter;stroke-opacity:1"/>
<path class="bond-12 atom-8 atom-11" d="M 93.3,58.3 L 88.0,61.4" style="fill:none;fill-rule:evenodd;stroke:#0000FF;stroke-width:2.0px;stroke-linecap:butt;stroke-linejoin:miter;stroke-opacity:1"/>
<path class="bond-13 atom-9 atom-12" d="M 124.4,46.9 L 121.3,42.5" style="fill:none;fill-rule:evenodd;stroke:#000000;stroke-width:2.0px;stroke-linecap:butt;stroke-linejoin:miter;stroke-opacity:1"/>
<path class="bond-13 atom-9 atom-12" d="M 121.3,42.5 L 118.1,38.2" style="fill:none;fill-rule:evenodd;stroke:#0000FF;stroke-width:2.0px;stroke-linecap:butt;stroke-linejoin:miter;stroke-opacity:1"/>
<path class="bond-13 atom-9 atom-12" d="M 121.3,46.9 L 118.7,43.3" style="fill:none;fill-rule:evenodd;stroke:#000000;stroke-width:2.0px;stroke-linecap:butt;stroke-linejoin:miter;stroke-opacity:1"/>
<path class="bond-13 atom-9 atom-12" d="M 118.7,43.3 L 116.1,39.7" style="fill:none;fill-rule:evenodd;stroke:#0000FF;stroke-width:2.0px;stroke-linecap:butt;stroke-linejoin:miter;stroke-opacity:1"/>
<path class="bond-14 atom-10 atom-13" d="M 98.7,38.5 L 84.2,30.1" style="fill:none;fill-rule:evenodd;stroke:#000000;stroke-width:2.0px;stroke-linecap:butt;stroke-linejoin:miter;stroke-opacity:1"/>
<path class="bond-15 atom-10 atom-12" d="M 98.7,38.5 L 104.7,36.5" style="fill:none;fill-rule:evenodd;stroke:#000000;stroke-width:2.0px;stroke-linecap:butt;stroke-linejoin:miter;stroke-opacity:1"/>
<path class="bond-15 atom-10 atom-12" d="M 104.7,36.5 L 110.8,34.6" style="fill:none;fill-rule:evenodd;stroke:#0000FF;stroke-width:2.0px;stroke-linecap:butt;stroke-linejoin:miter;stroke-opacity:1"/>
<path class="bond-16 atom-11 atom-14" d="M 80.4,61.4 L 75.0,58.3" style="fill:none;fill-rule:evenodd;stroke:#0000FF;stroke-width:2.0px;stroke-linecap:butt;stroke-linejoin:miter;stroke-opacity:1"/>
<path class="bond-16 atom-11 atom-14" d="M 75.0,58.3 L 69.7,55.2" style="fill:none;fill-rule:evenodd;stroke:#000000;stroke-width:2.0px;stroke-linecap:butt;stroke-linejoin:miter;stroke-opacity:1"/>
<path class="bond-16 atom-11 atom-14" d="M 81.6,59.2 L 76.9,56.5" style="fill:none;fill-rule:evenodd;stroke:#0000FF;stroke-width:2.0px;stroke-linecap:butt;stroke-linejoin:miter;stroke-opacity:1"/>
<path class="bond-16 atom-11 atom-14" d="M 76.9,56.5 L 72.2,53.8" style="fill:none;fill-rule:evenodd;stroke:#000000;stroke-width:2.0px;stroke-linecap:butt;stroke-linejoin:miter;stroke-opacity:1"/>
<path class="bond-17 atom-13 atom-15" d="M 84.2,30.1 L 78.8,33.2" style="fill:none;fill-rule:evenodd;stroke:#000000;stroke-width:2.0px;stroke-linecap:butt;stroke-linejoin:miter;stroke-opacity:1"/>
<path class="bond-17 atom-13 atom-15" d="M 78.8,33.2 L 73.5,36.3" style="fill:none;fill-rule:evenodd;stroke:#0000FF;stroke-width:2.0px;stroke-linecap:butt;stroke-linejoin:miter;stroke-opacity:1"/>
<path class="bond-17 atom-13 atom-15" d="M 84.2,33.0 L 79.5,35.7" style="fill:none;fill-rule:evenodd;stroke:#000000;stroke-width:2.0px;stroke-linecap:butt;stroke-linejoin:miter;stroke-opacity:1"/>
<path class="bond-17 atom-13 atom-15" d="M 79.5,35.7 L 74.8,38.5" style="fill:none;fill-rule:evenodd;stroke:#0000FF;stroke-width:2.0px;stroke-linecap:butt;stroke-linejoin:miter;stroke-opacity:1"/>
<path class="bond-18 atom-13 atom-16" d="M 84.2,30.1 L 84.2,24.2" style="fill:none;fill-rule:evenodd;stroke:#000000;stroke-width:2.0px;stroke-linecap:butt;stroke-linejoin:miter;stroke-opacity:1"/>
<path class="bond-18 atom-13 atom-16" d="M 84.2,24.2 L 84.2,18.3" style="fill:none;fill-rule:evenodd;stroke:#0000FF;stroke-width:2.0px;stroke-linecap:butt;stroke-linejoin:miter;stroke-opacity:1"/>
<path class="bond-19 atom-14 atom-15" d="M 69.7,55.2 L 69.7,49.3" style="fill:none;fill-rule:evenodd;stroke:#000000;stroke-width:2.0px;stroke-linecap:butt;stroke-linejoin:miter;stroke-opacity:1"/>
<path class="bond-19 atom-14 atom-15" d="M 69.7,49.3 L 69.7,43.4" style="fill:none;fill-rule:evenodd;stroke:#0000FF;stroke-width:2.0px;stroke-linecap:butt;stroke-linejoin:miter;stroke-opacity:1"/>
<path class="bond-20 atom-17 atom-18" d="M 115.9,119.0 L 108.1,120.7" style="fill:none;fill-rule:evenodd;stroke:#000000;stroke-width:2.0px;stroke-linecap:butt;stroke-linejoin:miter;stroke-opacity:1"/>
<path class="bond-20 atom-17 atom-18" d="M 108.1,120.7 L 101.5,122.1" style="fill:none;fill-rule:evenodd;stroke:#CCCC00;stroke-width:2.0px;stroke-linecap:butt;stroke-linejoin:miter;stroke-opacity:1"/>
<path class="bond-21 atom-19 atom-18" d="M 93.0,138.7 L 94.8,133.3" style="fill:none;fill-rule:evenodd;stroke:#000000;stroke-width:2.0px;stroke-linecap:butt;stroke-linejoin:miter;stroke-opacity:1"/>
<path class="bond-21 atom-19 atom-18" d="M 94.8,133.3 L 96.6,127.8" style="fill:none;fill-rule:evenodd;stroke:#CCCC00;stroke-width:2.0px;stroke-linecap:butt;stroke-linejoin:miter;stroke-opacity:1"/>
<path class="bond-22 atom-19 atom-20" d="M 93.0,138.7 L 76.9,143.0" style="fill:none;fill-rule:evenodd;stroke:#000000;stroke-width:2.0px;stroke-linecap:butt;stroke-linejoin:miter;stroke-opacity:1"/>
<path class="bond-23 atom-21 atom-20" d="M 71.7,158.9 L 76.9,143.0" style="fill:none;fill-rule:evenodd;stroke:#000000;stroke-width:2.0px;stroke-linecap:butt;stroke-linejoin:miter;stroke-opacity:1"/>
<path class="bond-24 atom-21 atom-25" d="M 71.7,158.9 L 68.5,160.2 L 68.3,159.0 Z" style="fill:#000000;fill-rule:evenodd;fill-opacity:1;stroke:#000000;stroke-width:0.5px;stroke-linecap:butt;stroke-linejoin:miter;stroke-opacity:1;"/>
<path class="bond-24 atom-21 atom-25" d="M 68.5,160.2 L 64.8,159.1 L 65.4,161.6 Z" style="fill:#0000FF;fill-rule:evenodd;fill-opacity:1;stroke:#0000FF;stroke-width:0.5px;stroke-linecap:butt;stroke-linejoin:miter;stroke-opacity:1;"/>
<path class="bond-24 atom-21 atom-25" d="M 68.5,160.2 L 68.3,159.0 L 64.8,159.1 Z" style="fill:#0000FF;fill-rule:evenodd;fill-opacity:1;stroke:#0000FF;stroke-width:0.5px;stroke-linecap:butt;stroke-linejoin:miter;stroke-opacity:1;"/>
<path class="bond-25 atom-21 atom-24" d="M 71.7,158.9 L 82.7,170.5" style="fill:none;fill-rule:evenodd;stroke:#000000;stroke-width:2.0px;stroke-linecap:butt;stroke-linejoin:miter;stroke-opacity:1"/>
<path class="bond-26 atom-22 atom-24" d="M 94.6,168.0 L 88.6,169.2" style="fill:none;fill-rule:evenodd;stroke:#FF0000;stroke-width:2.0px;stroke-linecap:butt;stroke-linejoin:miter;stroke-opacity:1"/>
<path class="bond-26 atom-22 atom-24" d="M 88.6,169.2 L 82.7,170.5" style="fill:none;fill-rule:evenodd;stroke:#000000;stroke-width:2.0px;stroke-linecap:butt;stroke-linejoin:miter;stroke-opacity:1"/>
<path class="bond-27 atom-24 atom-23" d="M 81.7,169.5 L 79.8,175.3" style="fill:none;fill-rule:evenodd;stroke:#000000;stroke-width:2.0px;stroke-linecap:butt;stroke-linejoin:miter;stroke-opacity:1"/>
<path class="bond-27 atom-24 atom-23" d="M 79.8,175.3 L 77.9,181.1" style="fill:none;fill-rule:evenodd;stroke:#FF0000;stroke-width:2.0px;stroke-linecap:butt;stroke-linejoin:miter;stroke-opacity:1"/>
<path class="bond-27 atom-24 atom-23" d="M 84.1,170.2 L 82.2,176.1" style="fill:none;fill-rule:evenodd;stroke:#000000;stroke-width:2.0px;stroke-linecap:butt;stroke-linejoin:miter;stroke-opacity:1"/>
<path class="bond-27 atom-24 atom-23" d="M 82.2,176.1 L 80.3,181.9" style="fill:none;fill-rule:evenodd;stroke:#FF0000;stroke-width:2.0px;stroke-linecap:butt;stroke-linejoin:miter;stroke-opacity:1"/>
<path d="M 135.7,97.4 L 135.7,98.2 L 134.9,98.5" style="fill:none;stroke:#000000;stroke-width:2.0px;stroke-linecap:butt;stroke-linejoin:miter;stroke-opacity:1;"/>
<path d="M 135.7,82.3 L 135.7,81.5 L 134.9,81.2" style="fill:none;stroke:#000000;stroke-width:2.0px;stroke-linecap:butt;stroke-linejoin:miter;stroke-opacity:1;"/>
<path d="M 120.5,76.6 L 119.7,76.3 L 119.6,76.5" style="fill:none;stroke:#000000;stroke-width:2.0px;stroke-linecap:butt;stroke-linejoin:miter;stroke-opacity:1;"/>
<path d="M 119.6,103.2 L 119.7,103.4 L 120.5,103.1" style="fill:none;stroke:#000000;stroke-width:2.0px;stroke-linecap:butt;stroke-linejoin:miter;stroke-opacity:1;"/>
<path d="M 124.3,47.1 L 124.4,46.9 L 124.3,46.6" style="fill:none;stroke:#000000;stroke-width:2.0px;stroke-linecap:butt;stroke-linejoin:miter;stroke-opacity:1;"/>
<path d="M 70.0,55.4 L 69.7,55.2 L 69.7,54.9" style="fill:none;stroke:#000000;stroke-width:2.0px;stroke-linecap:butt;stroke-linejoin:miter;stroke-opacity:1;"/>
<path d="M 93.1,138.4 L 93.0,138.7 L 92.2,138.9" style="fill:none;stroke:#000000;stroke-width:2.0px;stroke-linecap:butt;stroke-linejoin:miter;stroke-opacity:1;"/>
<path d="M 77.7,142.8 L 76.9,143.0 L 76.6,143.8" style="fill:none;stroke:#000000;stroke-width:2.0px;stroke-linecap:butt;stroke-linejoin:miter;stroke-opacity:1;"/>
<path d="M 72.0,158.1 L 71.7,158.9 L 72.3,159.5" style="fill:none;stroke:#000000;stroke-width:2.0px;stroke-linecap:butt;stroke-linejoin:miter;stroke-opacity:1;"/>
<path d="M 82.2,169.9 L 82.7,170.5 L 83.0,170.4" style="fill:none;stroke:#000000;stroke-width:2.0px;stroke-linecap:butt;stroke-linejoin:miter;stroke-opacity:1;"/>
<path class="atom-3" d="M 106.0 89.9 Q 106.0 87.8, 107.0 86.6 Q 108.0 85.5, 109.9 85.5 Q 111.8 85.5, 112.8 86.6 Q 113.9 87.8, 113.9 89.9 Q 113.9 92.0, 112.8 93.2 Q 111.8 94.3, 109.9 94.3 Q 108.0 94.3, 107.0 93.2 Q 106.0 92.0, 106.0 89.9 M 109.9 93.4 Q 111.2 93.4, 111.9 92.5 Q 112.7 91.6, 112.7 89.9 Q 112.7 88.2, 111.9 87.3 Q 111.2 86.5, 109.9 86.5 Q 108.6 86.5, 107.9 87.3 Q 107.2 88.2, 107.2 89.9 Q 107.2 91.6, 107.9 92.5 Q 108.6 93.4, 109.9 93.4 " fill="#FF0000"/>
<path class="atom-5" d="M 145.2 71.7 Q 145.2 69.6, 146.3 68.4 Q 147.3 67.3, 149.2 67.3 Q 151.1 67.3, 152.1 68.4 Q 153.1 69.6, 153.1 71.7 Q 153.1 73.8, 152.1 75.0 Q 151.1 76.1, 149.2 76.1 Q 147.3 76.1, 146.3 75.0 Q 145.2 73.8, 145.2 71.7 M 149.2 75.2 Q 150.5 75.2, 151.2 74.3 Q 151.9 73.4, 151.9 71.7 Q 151.9 70.0, 151.2 69.1 Q 150.5 68.3, 149.2 68.3 Q 147.9 68.3, 147.2 69.1 Q 146.5 70.0, 146.5 71.7 Q 146.5 73.4, 147.2 74.3 Q 147.9 75.2, 149.2 75.2 " fill="#FF0000"/>
<path class="atom-5" d="M 154.5 67.4 L 155.7 67.4 L 155.7 71.0 L 160.1 71.0 L 160.1 67.4 L 161.2 67.4 L 161.2 76.0 L 160.1 76.0 L 160.1 72.0 L 155.7 72.0 L 155.7 76.0 L 154.5 76.0 L 154.5 67.4 " fill="#FF0000"/>
<path class="atom-6" d="M 145.2 108.1 Q 145.2 106.0, 146.3 104.8 Q 147.3 103.7, 149.2 103.7 Q 151.1 103.7, 152.1 104.8 Q 153.1 106.0, 153.1 108.1 Q 153.1 110.2, 152.1 111.4 Q 151.1 112.5, 149.2 112.5 Q 147.3 112.5, 146.3 111.4 Q 145.2 110.2, 145.2 108.1 M 149.2 111.6 Q 150.5 111.6, 151.2 110.7 Q 151.9 109.8, 151.9 108.1 Q 151.9 106.4, 151.2 105.5 Q 150.5 104.7, 149.2 104.7 Q 147.9 104.7, 147.2 105.5 Q 146.5 106.4, 146.5 108.1 Q 146.5 109.8, 147.2 110.7 Q 147.9 111.6, 149.2 111.6 " fill="#FF0000"/>
<path class="atom-6" d="M 154.5 103.8 L 155.7 103.8 L 155.7 107.4 L 160.1 107.4 L 160.1 103.8 L 161.2 103.8 L 161.2 112.4 L 160.1 112.4 L 160.1 108.4 L 155.7 108.4 L 155.7 112.4 L 154.5 112.4 L 154.5 103.8 " fill="#FF0000"/>
<path class="atom-7" d="M 112.7 56.1 L 115.5 60.7 Q 115.8 61.1, 116.2 61.9 Q 116.7 62.7, 116.7 62.8 L 116.7 56.1 L 117.8 56.1 L 117.8 64.7 L 116.7 64.7 L 113.6 59.7 Q 113.3 59.1, 112.9 58.5 Q 112.5 57.8, 112.4 57.6 L 112.4 64.7 L 111.3 64.7 L 111.3 56.1 L 112.7 56.1 " fill="#0000FF"/>
<path class="atom-11" d="M 82.3 59.3 L 85.1 63.8 Q 85.4 64.3, 85.8 65.1 Q 86.3 65.9, 86.3 66.0 L 86.3 59.3 L 87.4 59.3 L 87.4 67.9 L 86.3 67.9 L 83.2 62.9 Q 82.9 62.3, 82.5 61.7 Q 82.1 61.0, 82.0 60.8 L 82.0 67.9 L 80.9 67.9 L 80.9 59.3 L 82.3 59.3 " fill="#0000FF"/>
<path class="atom-12" d="M 112.7 29.0 L 115.5 33.6 Q 115.8 34.0, 116.2 34.8 Q 116.7 35.7, 116.7 35.7 L 116.7 29.0 L 117.8 29.0 L 117.8 37.6 L 116.7 37.6 L 113.6 32.6 Q 113.3 32.1, 112.9 31.4 Q 112.5 30.7, 112.4 30.5 L 112.4 37.6 L 111.3 37.6 L 111.3 29.0 L 112.7 29.0 " fill="#0000FF"/>
<path class="atom-15" d="M 67.8 34.2 L 70.6 38.8 Q 70.9 39.2, 71.3 40.0 Q 71.8 40.8, 71.8 40.9 L 71.8 34.2 L 73.0 34.2 L 73.0 42.8 L 71.8 42.8 L 68.7 37.8 Q 68.4 37.2, 68.0 36.6 Q 67.6 35.9, 67.5 35.7 L 67.5 42.8 L 66.4 42.8 L 66.4 34.2 L 67.8 34.2 " fill="#0000FF"/>
<path class="atom-16" d="M 82.3 9.1 L 85.1 13.7 Q 85.4 14.1, 85.8 14.9 Q 86.3 15.7, 86.3 15.8 L 86.3 9.1 L 87.4 9.1 L 87.4 17.7 L 86.3 17.7 L 83.2 12.7 Q 82.9 12.1, 82.5 11.5 Q 82.1 10.8, 82.0 10.6 L 82.0 17.7 L 80.9 17.7 L 80.9 9.1 L 82.3 9.1 " fill="#0000FF"/>
<path class="atom-16" d="M 89.1 9.1 L 90.3 9.1 L 90.3 12.8 L 94.7 12.8 L 94.7 9.1 L 95.8 9.1 L 95.8 17.7 L 94.7 17.7 L 94.7 13.7 L 90.3 13.7 L 90.3 17.7 L 89.1 17.7 L 89.1 9.1 " fill="#0000FF"/>
<path class="atom-16" d="M 97.5 17.4 Q 97.7 16.9, 98.2 16.6 Q 98.7 16.3, 99.4 16.3 Q 100.3 16.3, 100.8 16.7 Q 101.2 17.2, 101.2 18.0 Q 101.2 18.9, 100.6 19.7 Q 100.0 20.4, 98.7 21.4 L 101.3 21.4 L 101.3 22.0 L 97.5 22.0 L 97.5 21.5 Q 98.6 20.7, 99.2 20.2 Q 99.8 19.6, 100.1 19.1 Q 100.4 18.6, 100.4 18.1 Q 100.4 17.5, 100.2 17.2 Q 99.9 16.9, 99.4 16.9 Q 99.0 16.9, 98.6 17.1 Q 98.3 17.3, 98.1 17.7 L 97.5 17.4 " fill="#0000FF"/>
<path class="atom-18" d="M 95.8 125.7 Q 95.9 125.8, 96.3 125.9 Q 96.7 126.1, 97.1 126.2 Q 97.6 126.3, 98.0 126.3 Q 98.8 126.3, 99.3 125.9 Q 99.8 125.5, 99.8 124.8 Q 99.8 124.4, 99.5 124.1 Q 99.3 123.8, 98.9 123.6 Q 98.6 123.5, 98.0 123.3 Q 97.2 123.0, 96.7 122.8 Q 96.3 122.6, 95.9 122.1 Q 95.6 121.7, 95.6 120.9 Q 95.6 119.8, 96.4 119.1 Q 97.1 118.5, 98.6 118.5 Q 99.6 118.5, 100.7 118.9 L 100.4 119.9 Q 99.4 119.5, 98.6 119.5 Q 97.8 119.5, 97.3 119.8 Q 96.8 120.2, 96.8 120.8 Q 96.8 121.2, 97.1 121.5 Q 97.3 121.8, 97.7 121.9 Q 98.0 122.1, 98.6 122.3 Q 99.4 122.5, 99.8 122.8 Q 100.3 123.0, 100.6 123.5 Q 101.0 124.0, 101.0 124.8 Q 101.0 126.0, 100.2 126.7 Q 99.4 127.3, 98.1 127.3 Q 97.3 127.3, 96.7 127.1 Q 96.1 127.0, 95.4 126.7 L 95.8 125.7 " fill="#CCCC00"/>
<path class="atom-22" d="M 95.1 167.1 Q 95.1 165.0, 96.1 163.8 Q 97.2 162.7, 99.1 162.7 Q 101.0 162.7, 102.0 163.8 Q 103.0 165.0, 103.0 167.1 Q 103.0 169.1, 102.0 170.3 Q 101.0 171.5, 99.1 171.5 Q 97.2 171.5, 96.1 170.3 Q 95.1 169.2, 95.1 167.1 M 99.1 170.5 Q 100.4 170.5, 101.1 169.7 Q 101.8 168.8, 101.8 167.1 Q 101.8 165.4, 101.1 164.5 Q 100.4 163.6, 99.1 163.6 Q 97.8 163.6, 97.0 164.5 Q 96.3 165.3, 96.3 167.1 Q 96.3 168.8, 97.0 169.7 Q 97.8 170.5, 99.1 170.5 " fill="#FF0000"/>
<path class="atom-22" d="M 104.2 164.1 L 107.2 164.1 L 107.2 164.7 L 104.2 164.7 L 104.2 164.1 " fill="#FF0000"/>
<path class="atom-23" d="M 73.6 186.4 Q 73.6 184.4, 74.6 183.2 Q 75.6 182.1, 77.5 182.1 Q 79.4 182.1, 80.5 183.2 Q 81.5 184.4, 81.5 186.4 Q 81.5 188.5, 80.5 189.7 Q 79.4 190.9, 77.5 190.9 Q 75.6 190.9, 74.6 189.7 Q 73.6 188.5, 73.6 186.4 M 77.5 189.9 Q 78.8 189.9, 79.6 189.1 Q 80.3 188.2, 80.3 186.4 Q 80.3 184.8, 79.6 183.9 Q 78.8 183.0, 77.5 183.0 Q 76.2 183.0, 75.5 183.9 Q 74.8 184.7, 74.8 186.4 Q 74.8 188.2, 75.5 189.1 Q 76.2 189.9, 77.5 189.9 " fill="#FF0000"/>
<path class="atom-25" d="M 38.8 158.1 L 39.9 158.1 L 39.9 161.8 L 44.3 161.8 L 44.3 158.1 L 45.5 158.1 L 45.5 166.7 L 44.3 166.7 L 44.3 162.7 L 39.9 162.7 L 39.9 166.7 L 38.8 166.7 L 38.8 158.1 " fill="#0000FF"/>
<path class="atom-25" d="M 49.9 168.0 Q 50.4 168.2, 50.7 168.5 Q 51.0 168.9, 51.0 169.5 Q 51.0 169.9, 50.7 170.3 Q 50.5 170.7, 50.1 170.9 Q 49.6 171.1, 49.0 171.1 Q 48.4 171.1, 48.0 170.9 Q 47.5 170.7, 47.2 170.2 L 47.6 169.8 Q 48.0 170.2, 48.3 170.3 Q 48.6 170.5, 49.0 170.5 Q 49.6 170.5, 49.9 170.2 Q 50.2 169.9, 50.2 169.5 Q 50.2 168.9, 49.9 168.6 Q 49.5 168.4, 48.8 168.4 L 48.4 168.4 L 48.4 167.8 L 48.8 167.8 Q 49.4 167.8, 49.7 167.5 Q 50.1 167.2, 50.1 166.7 Q 50.1 166.4, 49.8 166.1 Q 49.5 165.9, 49.0 165.9 Q 48.6 165.9, 48.3 166.1 Q 48.0 166.2, 47.8 166.7 L 47.2 166.4 Q 47.4 165.9, 47.9 165.6 Q 48.4 165.3, 49.0 165.3 Q 49.9 165.3, 50.4 165.7 Q 50.9 166.1, 50.9 166.7 Q 50.9 167.2, 50.6 167.5 Q 50.4 167.8, 49.9 168.0 " fill="#0000FF"/>
<path class="atom-25" d="M 53.4 158.1 L 56.3 162.7 Q 56.5 163.1, 57.0 163.9 Q 57.4 164.7, 57.5 164.8 L 57.5 158.1 L 58.6 158.1 L 58.6 166.7 L 57.4 166.7 L 54.4 161.7 Q 54.0 161.1, 53.7 160.5 Q 53.3 159.8, 53.2 159.6 L 53.2 166.7 L 52.1 166.7 L 52.1 158.1 L 53.4 158.1 " fill="#0000FF"/>
<path class="atom-25" d="M 60.2 159.6 L 61.8 159.6 L 61.8 158.1 L 62.4 158.1 L 62.4 159.6 L 64.0 159.6 L 64.0 160.2 L 62.4 160.2 L 62.4 161.8 L 61.8 161.8 L 61.8 160.2 L 60.2 160.2 L 60.2 159.6 " fill="#0000FF"/>
</svg>