<svg xmlns="http://www.w3.org/2000/svg" xmlns:rdkit="http://www.rdkit.org/xml" xmlns:xlink="http://www.w3.org/1999/xlink" viewBox="-10.9 26.799999999999997 221.8 146.39999999999998">
<path class="bond-0 atom-9 atom-0" d="M 63.2,128.7 L 73.1,125.4" style="fill:none;fill-rule:evenodd;stroke:rgb(134.87500000000003,134.87500000000003,249.62499999999997);stroke-width:2.0px;stroke-linecap:butt;stroke-linejoin:miter;stroke-opacity:1"/>
<path class="bond-0 atom-9 atom-0" d="M 73.1,125.4 L 83.0,122.2" style="fill:none;fill-rule:evenodd;stroke:rgb(256.0,256.0,256.0);stroke-width:2.0px;stroke-linecap:butt;stroke-linejoin:miter;stroke-opacity:1"/>
<path class="bond-1 atom-5 atom-2" d="M 154.0,81.2 L 130.3,94.9" style="fill:none;fill-rule:evenodd;stroke:rgb(256.0,256.0,256.0);stroke-width:2.0px;stroke-linecap:butt;stroke-linejoin:miter;stroke-opacity:1"/>
<path class="bond-2 atom-2 atom-3" d="M 130.3,94.9 L 104.5,82.5 L 108.6,80.1 Z" style="fill:rgb(256.0,256.0,256.0);fill-rule:evenodd;fill-opacity:1;stroke:rgb(256.0,256.0,256.0);stroke-width:0.5px;stroke-linecap:butt;stroke-linejoin:miter;stroke-opacity:1"/>
<path class="bond-3 atom-2 atom-12" d="M 130.3,94.9 L 130.3,104.6" style="fill:none;fill-rule:evenodd;stroke:rgb(256.0,256.0,256.0);stroke-width:2.0px;stroke-linecap:butt;stroke-linejoin:miter;stroke-opacity:1"/>
<path class="bond-3 atom-2 atom-12" d="M 130.3,104.6 L 130.3,114.3" style="fill:none;fill-rule:evenodd;stroke:rgb(134.87500000000003,134.87500000000003,249.62499999999997);stroke-width:2.0px;stroke-linecap:butt;stroke-linejoin:miter;stroke-opacity:1"/>
<path class="bond-4 atom-1 atom-12" d="M 106.6,135.9 L 115.4,130.9" style="fill:none;fill-rule:evenodd;stroke:rgb(256.0,256.0,256.0);stroke-width:2.0px;stroke-linecap:butt;stroke-linejoin:miter;stroke-opacity:1"/>
<path class="bond-4 atom-1 atom-12" d="M 115.4,130.9 L 124.1,125.8" style="fill:none;fill-rule:evenodd;stroke:rgb(134.87500000000003,134.87500000000003,249.62499999999997);stroke-width:2.0px;stroke-linecap:butt;stroke-linejoin:miter;stroke-opacity:1"/>
<path class="bond-5 atom-11 atom-12" d="M 154.0,135.9 L 145.3,130.9" style="fill:none;fill-rule:evenodd;stroke:rgb(256.0,256.0,256.0);stroke-width:2.0px;stroke-linecap:butt;stroke-linejoin:miter;stroke-opacity:1"/>
<path class="bond-5 atom-11 atom-12" d="M 145.3,130.9 L 136.5,125.8" style="fill:none;fill-rule:evenodd;stroke:rgb(134.87500000000003,134.87500000000003,249.62499999999997);stroke-width:2.0px;stroke-linecap:butt;stroke-linejoin:miter;stroke-opacity:1"/>
<path class="bond-6 atom-4 atom-0" d="M 83.0,94.9 L 83.0,122.2" style="fill:none;fill-rule:evenodd;stroke:rgb(256.0,256.0,256.0);stroke-width:2.0px;stroke-linecap:butt;stroke-linejoin:miter;stroke-opacity:1"/>
<path class="bond-6 atom-4 atom-0" d="M 78.9,97.9 L 78.9,119.3" style="fill:none;fill-rule:evenodd;stroke:rgb(256.0,256.0,256.0);stroke-width:2.0px;stroke-linecap:butt;stroke-linejoin:miter;stroke-opacity:1"/>
<path class="bond-7 atom-3 atom-4" d="M 108.6,80.1 L 83.0,94.9" style="fill:none;fill-rule:evenodd;stroke:rgb(256.0,256.0,256.0);stroke-width:2.0px;stroke-linecap:butt;stroke-linejoin:miter;stroke-opacity:1"/>
<path class="bond-8 atom-4 atom-7" d="M 83.0,94.9 L 73.1,91.7" style="fill:none;fill-rule:evenodd;stroke:rgb(256.0,256.0,256.0);stroke-width:2.0px;stroke-linecap:butt;stroke-linejoin:miter;stroke-opacity:1"/>
<path class="bond-8 atom-4 atom-7" d="M 73.1,91.7 L 63.2,88.5" style="fill:none;fill-rule:evenodd;stroke:rgb(134.87500000000003,134.87500000000003,249.62499999999997);stroke-width:2.0px;stroke-linecap:butt;stroke-linejoin:miter;stroke-opacity:1"/>
<path class="bond-9 atom-5 atom-6" d="M 154.0,81.2 L 162.1,86.0" style="fill:none;fill-rule:evenodd;stroke:rgb(256.0,256.0,256.0);stroke-width:2.0px;stroke-linecap:butt;stroke-linejoin:miter;stroke-opacity:1"/>
<path class="bond-9 atom-5 atom-6" d="M 162.1,86.0 L 170.3,90.7" style="fill:none;fill-rule:evenodd;stroke:rgb(249.62499999999997,134.87500000000003,134.87500000000003);stroke-width:2.0px;stroke-linecap:butt;stroke-linejoin:miter;stroke-opacity:1"/>
<path class="bond-10 atom-10 atom-5" d="M 156.0,62.2 L 156.0,72.3" style="fill:none;fill-rule:evenodd;stroke:rgb(249.62499999999997,134.87500000000003,134.87500000000003);stroke-width:2.0px;stroke-linecap:butt;stroke-linejoin:miter;stroke-opacity:1"/>
<path class="bond-10 atom-10 atom-5" d="M 156.0,72.3 L 156.0,82.4" style="fill:none;fill-rule:evenodd;stroke:rgb(256.0,256.0,256.0);stroke-width:2.0px;stroke-linecap:butt;stroke-linejoin:miter;stroke-opacity:1"/>
<path class="bond-10 atom-10 atom-5" d="M 151.9,62.2 L 151.9,72.3" style="fill:none;fill-rule:evenodd;stroke:rgb(249.62499999999997,134.87500000000003,134.87500000000003);stroke-width:2.0px;stroke-linecap:butt;stroke-linejoin:miter;stroke-opacity:1"/>
<path class="bond-10 atom-10 atom-5" d="M 151.9,72.3 L 151.9,82.4" style="fill:none;fill-rule:evenodd;stroke:rgb(256.0,256.0,256.0);stroke-width:2.0px;stroke-linecap:butt;stroke-linejoin:miter;stroke-opacity:1"/>
<path class="bond-11 atom-7 atom-8" d="M 51.2,94.4 L 46.1,101.5" style="fill:none;fill-rule:evenodd;stroke:rgb(134.87500000000003,134.87500000000003,249.62499999999997);stroke-width:2.0px;stroke-linecap:butt;stroke-linejoin:miter;stroke-opacity:1"/>
<path class="bond-11 atom-7 atom-8" d="M 46.1,101.5 L 40.9,108.6" style="fill:none;fill-rule:evenodd;stroke:rgb(256.0,256.0,256.0);stroke-width:2.0px;stroke-linecap:butt;stroke-linejoin:miter;stroke-opacity:1"/>
<path class="bond-12 atom-8 atom-9" d="M 40.9,108.6 L 46.1,115.7" style="fill:none;fill-rule:evenodd;stroke:rgb(256.0,256.0,256.0);stroke-width:2.0px;stroke-linecap:butt;stroke-linejoin:miter;stroke-opacity:1"/>
<path class="bond-12 atom-8 atom-9" d="M 46.1,115.7 L 51.2,122.7" style="fill:none;fill-rule:evenodd;stroke:rgb(134.87500000000003,134.87500000000003,249.62499999999997);stroke-width:2.0px;stroke-linecap:butt;stroke-linejoin:miter;stroke-opacity:1"/>
<path class="bond-13 atom-12 atom-13" d="M 130.3,130.2 L 130.3,139.9" style="fill:none;fill-rule:evenodd;stroke:rgb(134.87500000000003,134.87500000000003,249.62499999999997);stroke-width:2.0px;stroke-linecap:butt;stroke-linejoin:miter;stroke-opacity:1"/>
<path class="bond-13 atom-12 atom-13" d="M 130.3,139.9 L 130.3,149.6" style="fill:none;fill-rule:evenodd;stroke:rgb(256.0,256.0,256.0);stroke-width:2.0px;stroke-linecap:butt;stroke-linejoin:miter;stroke-opacity:1"/>
<path class="bond-14 atom-8 atom-14" d="M 42.4,106.5 L 30.7,106.5" style="fill:none;fill-rule:evenodd;stroke:rgb(256.0,256.0,256.0);stroke-width:2.0px;stroke-linecap:butt;stroke-linejoin:miter;stroke-opacity:1"/>
<path class="bond-14 atom-8 atom-14" d="M 30.7,106.5 L 19.0,106.5" style="fill:none;fill-rule:evenodd;stroke:rgb(250.89999999999995,250.89999999999998,159.10000000000002);stroke-width:2.0px;stroke-linecap:butt;stroke-linejoin:miter;stroke-opacity:1"/>
<path class="bond-14 atom-8 atom-14" d="M 42.4,110.6 L 30.7,110.6" style="fill:none;fill-rule:evenodd;stroke:rgb(256.0,256.0,256.0);stroke-width:2.0px;stroke-linecap:butt;stroke-linejoin:miter;stroke-opacity:1"/>
<path class="bond-14 atom-8 atom-14" d="M 30.7,110.6 L 19.0,110.6" style="fill:none;fill-rule:evenodd;stroke:rgb(250.89999999999995,250.89999999999998,159.10000000000002);stroke-width:2.0px;stroke-linecap:butt;stroke-linejoin:miter;stroke-opacity:1"/>
<path d="M 82.5,122.4 L 83.0,122.2 L 83.0,120.9" style="fill:none;stroke:rgb(256.0,256.0,256.0);stroke-width:2.0px;stroke-linecap:butt;stroke-linejoin:miter;stroke-opacity:1"/>
<path d="M 131.5,94.2 L 130.3,94.9 L 130.3,95.4" style="fill:none;stroke:rgb(256.0,256.0,256.0);stroke-width:2.0px;stroke-linecap:butt;stroke-linejoin:miter;stroke-opacity:1"/>
<path d="M 152.8,81.9 L 154.0,81.2 L 154.4,81.5" style="fill:none;stroke:rgb(256.0,256.0,256.0);stroke-width:2.0px;stroke-linecap:butt;stroke-linejoin:miter;stroke-opacity:1"/>
<path d="M 41.2,108.2 L 40.9,108.6 L 41.2,108.9" style="fill:none;stroke:rgb(256.0,256.0,256.0);stroke-width:2.0px;stroke-linecap:butt;stroke-linejoin:miter;stroke-opacity:1"/>
<path class="atom-6" d="M 171.2 95.0 Q 171.2 91.6, 172.8 89.7 Q 174.5 87.8, 177.6 87.8 Q 180.8 87.8, 182.4 89.7 Q 184.1 91.6, 184.1 95.0 Q 184.1 98.4, 182.4 100.3 Q 180.7 102.2, 177.6 102.2 Q 174.5 102.2, 172.8 100.3 Q 171.2 98.4, 171.2 95.0 M 177.6 100.7 Q 179.8 100.7, 180.9 99.2 Q 182.1 97.8, 182.1 95.0 Q 182.1 92.2, 180.9 90.8 Q 179.8 89.4, 177.6 89.4 Q 175.5 89.4, 174.3 90.8 Q 173.2 92.2, 173.2 95.0 Q 173.2 97.8, 174.3 99.2 Q 175.5 100.7, 177.6 100.7 " fill="rgb(249.62499999999997,134.87500000000003,134.87500000000003)"/>
<path class="atom-6" d="M 186.1 90.1 L 190.9 90.1 L 190.9 91.1 L 186.1 91.1 L 186.1 90.1 " fill="rgb(249.62499999999997,134.87500000000003,134.87500000000003)"/>
<path class="atom-7" d="M 53.9 79.4 L 58.5 86.9 Q 58.9 87.6, 59.7 88.9 Q 60.4 90.3, 60.5 90.4 L 60.5 79.4 L 62.3 79.4 L 62.3 93.5 L 60.4 93.5 L 55.4 85.4 Q 54.9 84.4, 54.3 83.3 Q 53.7 82.2, 53.5 81.9 L 53.5 93.5 L 51.7 93.5 L 51.7 79.4 L 53.9 79.4 " fill="rgb(134.87500000000003,134.87500000000003,249.62499999999997)"/>
<path class="atom-7" d="M 51.5 64.0 L 53.4 64.0 L 53.4 69.9 L 60.6 69.9 L 60.6 64.0 L 62.5 64.0 L 62.5 78.0 L 60.6 78.0 L 60.6 71.5 L 53.4 71.5 L 53.4 78.0 L 51.5 78.0 L 51.5 64.0 " fill="rgb(134.87500000000003,134.87500000000003,249.62499999999997)"/>
<path class="atom-9" d="M 53.9 123.6 L 58.5 131.1 Q 58.9 131.8, 59.7 133.2 Q 60.4 134.5, 60.5 134.6 L 60.5 123.6 L 62.3 123.6 L 62.3 137.7 L 60.4 137.7 L 55.4 129.6 Q 54.9 128.6, 54.3 127.5 Q 53.7 126.4, 53.5 126.1 L 53.5 137.7 L 51.6 137.7 L 51.6 123.6 L 53.9 123.6 " fill="rgb(134.87500000000003,134.87500000000003,249.62499999999997)"/>
<path class="atom-9" d="M 51.5 139.1 L 53.4 139.1 L 53.4 145.1 L 60.6 145.1 L 60.6 139.1 L 62.5 139.1 L 62.5 153.2 L 60.6 153.2 L 60.6 146.7 L 53.4 146.7 L 53.4 153.2 L 51.5 153.2 L 51.5 139.1 " fill="rgb(134.87500000000003,134.87500000000003,249.62499999999997)"/>
<path class="atom-10" d="M 147.5 54.0 Q 147.5 50.6, 149.2 48.7 Q 150.8 46.8, 154.0 46.8 Q 157.1 46.8, 158.8 48.7 Q 160.4 50.6, 160.4 54.0 Q 160.4 57.4, 158.7 59.3 Q 157.1 61.3, 154.0 61.3 Q 150.9 61.3, 149.2 59.3 Q 147.5 57.4, 147.5 54.0 M 154.0 59.7 Q 156.1 59.7, 157.3 58.2 Q 158.4 56.8, 158.4 54.0 Q 158.4 51.2, 157.3 49.8 Q 156.1 48.4, 154.0 48.4 Q 151.8 48.4, 150.7 49.8 Q 149.5 51.2, 149.5 54.0 Q 149.5 56.8, 150.7 58.2 Q 151.8 59.7, 154.0 59.7 " fill="rgb(249.62499999999997,134.87500000000003,134.87500000000003)"/>
<path class="atom-12" d="M 127.2 115.2 L 131.8 122.7 Q 132.3 123.4, 133.0 124.7 Q 133.7 126.1, 133.8 126.1 L 133.8 115.2 L 135.6 115.2 L 135.6 129.3 L 133.7 129.3 L 128.8 121.1 Q 128.2 120.2, 127.6 119.1 Q 127.0 118.0, 126.8 117.6 L 126.8 129.3 L 125.0 129.3 L 125.0 115.2 L 127.2 115.2 " fill="rgb(134.87500000000003,134.87500000000003,249.62499999999997)"/>
<path class="atom-12" d="M 138.3 117.7 L 140.8 117.7 L 140.8 115.1 L 141.9 115.1 L 141.9 117.7 L 144.4 117.7 L 144.4 118.7 L 141.9 118.7 L 141.9 121.3 L 140.8 121.3 L 140.8 118.7 L 138.3 118.7 L 138.3 117.7 " fill="rgb(134.87500000000003,134.87500000000003,249.62499999999997)"/>
<path class="atom-14" d="M 9.6 113.4 Q 9.8 113.5, 10.4 113.7 Q 11.1 114.0, 11.8 114.2 Q 12.5 114.4, 13.3 114.4 Q 14.6 114.4, 15.4 113.7 Q 16.1 113.1, 16.1 111.9 Q 16.1 111.2, 15.7 110.7 Q 15.4 110.2, 14.8 109.9 Q 14.2 109.7, 13.2 109.4 Q 11.9 109.0, 11.2 108.7 Q 10.4 108.3, 9.9 107.5 Q 9.4 106.8, 9.4 105.5 Q 9.4 103.7, 10.6 102.7 Q 11.8 101.6, 14.2 101.6 Q 15.8 101.6, 17.7 102.3 L 17.2 103.9 Q 15.5 103.2, 14.2 103.2 Q 12.9 103.2, 12.1 103.7 Q 11.4 104.3, 11.4 105.3 Q 11.4 106.0, 11.8 106.5 Q 12.2 106.9, 12.7 107.2 Q 13.3 107.5, 14.2 107.8 Q 15.5 108.2, 16.3 108.6 Q 17.0 108.9, 17.6 109.8 Q 18.1 110.6, 18.1 111.9 Q 18.1 113.9, 16.8 114.9 Q 15.5 116.0, 13.3 116.0 Q 12.1 116.0, 11.1 115.7 Q 10.2 115.4, 9.1 115.0 L 9.6 113.4 " fill="rgb(250.89999999999995,250.89999999999998,159.10000000000002)"/>
</svg>