<svg xmlns="http://www.w3.org/2000/svg" xmlns:rdkit="http://www.rdkit.org/xml" xmlns:xlink="http://www.w3.org/1999/xlink" viewBox="17.4 -10.9 165.2 221.8">
<path class="bond-0 atom-0 atom-1" d="M 62.4,21.0 L 62.4,28.7" style="fill:none;fill-rule:evenodd;stroke:rgb(134.87500000000003,134.87500000000003,249.62499999999997);stroke-width:2.0px;stroke-linecap:butt;stroke-linejoin:miter;stroke-opacity:1"/>
<path class="bond-0 atom-0 atom-1" d="M 62.4,28.7 L 62.4,36.5" style="fill:none;fill-rule:evenodd;stroke:rgb(256.0,256.0,256.0);stroke-width:2.0px;stroke-linecap:butt;stroke-linejoin:miter;stroke-opacity:1"/>
<path class="bond-1 atom-1 atom-2" d="M 62.4,36.5 L 55.5,40.5" style="fill:none;fill-rule:evenodd;stroke:rgb(256.0,256.0,256.0);stroke-width:2.0px;stroke-linecap:butt;stroke-linejoin:miter;stroke-opacity:1"/>
<path class="bond-1 atom-1 atom-2" d="M 55.5,40.5 L 48.5,44.5" style="fill:none;fill-rule:evenodd;stroke:rgb(134.87500000000003,134.87500000000003,249.62499999999997);stroke-width:2.0px;stroke-linecap:butt;stroke-linejoin:miter;stroke-opacity:1"/>
<path class="bond-1 atom-1 atom-2" d="M 62.4,40.2 L 56.3,43.8" style="fill:none;fill-rule:evenodd;stroke:rgb(256.0,256.0,256.0);stroke-width:2.0px;stroke-linecap:butt;stroke-linejoin:miter;stroke-opacity:1"/>
<path class="bond-1 atom-1 atom-2" d="M 56.3,43.8 L 50.2,47.3" style="fill:none;fill-rule:evenodd;stroke:rgb(134.87500000000003,134.87500000000003,249.62499999999997);stroke-width:2.0px;stroke-linecap:butt;stroke-linejoin:miter;stroke-opacity:1"/>
<path class="bond-2 atom-1 atom-6" d="M 62.4,36.5 L 81.3,47.3" style="fill:none;fill-rule:evenodd;stroke:rgb(256.0,256.0,256.0);stroke-width:2.0px;stroke-linecap:butt;stroke-linejoin:miter;stroke-opacity:1"/>
<path class="bond-3 atom-2 atom-3" d="M 43.6,53.7 L 43.6,61.4" style="fill:none;fill-rule:evenodd;stroke:rgb(134.87500000000003,134.87500000000003,249.62499999999997);stroke-width:2.0px;stroke-linecap:butt;stroke-linejoin:miter;stroke-opacity:1"/>
<path class="bond-3 atom-2 atom-3" d="M 43.6,61.4 L 43.6,69.1" style="fill:none;fill-rule:evenodd;stroke:rgb(256.0,256.0,256.0);stroke-width:2.0px;stroke-linecap:butt;stroke-linejoin:miter;stroke-opacity:1"/>
<path class="bond-4 atom-3 atom-4" d="M 43.6,69.1 L 50.5,73.1" style="fill:none;fill-rule:evenodd;stroke:rgb(256.0,256.0,256.0);stroke-width:2.0px;stroke-linecap:butt;stroke-linejoin:miter;stroke-opacity:1"/>
<path class="bond-4 atom-3 atom-4" d="M 50.5,73.1 L 57.5,77.1" style="fill:none;fill-rule:evenodd;stroke:rgb(134.87500000000003,134.87500000000003,249.62499999999997);stroke-width:2.0px;stroke-linecap:butt;stroke-linejoin:miter;stroke-opacity:1"/>
<path class="bond-4 atom-3 atom-4" d="M 46.8,67.2 L 53.0,70.7" style="fill:none;fill-rule:evenodd;stroke:rgb(256.0,256.0,256.0);stroke-width:2.0px;stroke-linecap:butt;stroke-linejoin:miter;stroke-opacity:1"/>
<path class="bond-4 atom-3 atom-4" d="M 53.0,70.7 L 59.1,74.3" style="fill:none;fill-rule:evenodd;stroke:rgb(134.87500000000003,134.87500000000003,249.62499999999997);stroke-width:2.0px;stroke-linecap:butt;stroke-linejoin:miter;stroke-opacity:1"/>
<path class="bond-5 atom-4 atom-5" d="M 67.4,77.1 L 74.3,73.1" style="fill:none;fill-rule:evenodd;stroke:rgb(134.87500000000003,134.87500000000003,249.62499999999997);stroke-width:2.0px;stroke-linecap:butt;stroke-linejoin:miter;stroke-opacity:1"/>
<path class="bond-5 atom-4 atom-5" d="M 74.3,73.1 L 81.3,69.1" style="fill:none;fill-rule:evenodd;stroke:rgb(256.0,256.0,256.0);stroke-width:2.0px;stroke-linecap:butt;stroke-linejoin:miter;stroke-opacity:1"/>
<path class="bond-6 atom-5 atom-6" d="M 81.3,69.1 L 81.3,47.3" style="fill:none;fill-rule:evenodd;stroke:rgb(256.0,256.0,256.0);stroke-width:2.0px;stroke-linecap:butt;stroke-linejoin:miter;stroke-opacity:1"/>
<path class="bond-6 atom-5 atom-6" d="M 78.0,67.2 L 78.0,49.2" style="fill:none;fill-rule:evenodd;stroke:rgb(256.0,256.0,256.0);stroke-width:2.0px;stroke-linecap:butt;stroke-linejoin:miter;stroke-opacity:1"/>
<path class="bond-7 atom-5 atom-9" d="M 81.3,69.1 L 89.1,71.7" style="fill:none;fill-rule:evenodd;stroke:rgb(256.0,256.0,256.0);stroke-width:2.0px;stroke-linecap:butt;stroke-linejoin:miter;stroke-opacity:1"/>
<path class="bond-7 atom-5 atom-9" d="M 89.1,71.7 L 97.0,74.2" style="fill:none;fill-rule:evenodd;stroke:rgb(134.87500000000003,134.87500000000003,249.62499999999997);stroke-width:2.0px;stroke-linecap:butt;stroke-linejoin:miter;stroke-opacity:1"/>
<path class="bond-8 atom-6 atom-7" d="M 81.3,47.3 L 89.1,44.8" style="fill:none;fill-rule:evenodd;stroke:rgb(256.0,256.0,256.0);stroke-width:2.0px;stroke-linecap:butt;stroke-linejoin:miter;stroke-opacity:1"/>
<path class="bond-8 atom-6 atom-7" d="M 89.1,44.8 L 97.0,42.2" style="fill:none;fill-rule:evenodd;stroke:rgb(134.87500000000003,134.87500000000003,249.62499999999997);stroke-width:2.0px;stroke-linecap:butt;stroke-linejoin:miter;stroke-opacity:1"/>
<path class="bond-9 atom-7 atom-8" d="M 106.6,46.9 L 110.7,52.6" style="fill:none;fill-rule:evenodd;stroke:rgb(134.87500000000003,134.87500000000003,249.62499999999997);stroke-width:2.0px;stroke-linecap:butt;stroke-linejoin:miter;stroke-opacity:1"/>
<path class="bond-9 atom-7 atom-8" d="M 110.7,52.6 L 114.8,58.2" style="fill:none;fill-rule:evenodd;stroke:rgb(256.0,256.0,256.0);stroke-width:2.0px;stroke-linecap:butt;stroke-linejoin:miter;stroke-opacity:1"/>
<path class="bond-9 atom-7 atom-8" d="M 103.9,48.9 L 107.3,53.5" style="fill:none;fill-rule:evenodd;stroke:rgb(134.87500000000003,134.87500000000003,249.62499999999997);stroke-width:2.0px;stroke-linecap:butt;stroke-linejoin:miter;stroke-opacity:1"/>
<path class="bond-9 atom-7 atom-8" d="M 107.3,53.5 L 110.7,58.2" style="fill:none;fill-rule:evenodd;stroke:rgb(256.0,256.0,256.0);stroke-width:2.0px;stroke-linecap:butt;stroke-linejoin:miter;stroke-opacity:1"/>
<path class="bond-10 atom-8 atom-9" d="M 114.8,58.2 L 110.7,63.9" style="fill:none;fill-rule:evenodd;stroke:rgb(256.0,256.0,256.0);stroke-width:2.0px;stroke-linecap:butt;stroke-linejoin:miter;stroke-opacity:1"/>
<path class="bond-10 atom-8 atom-9" d="M 110.7,63.9 L 106.6,69.5" style="fill:none;fill-rule:evenodd;stroke:rgb(134.87500000000003,134.87500000000003,249.62499999999997);stroke-width:2.0px;stroke-linecap:butt;stroke-linejoin:miter;stroke-opacity:1"/>
<path class="bond-11 atom-10 atom-9" d="M 108.7,96.5 L 105.7,89.9 L 107.2,89.4 Z" style="fill:rgb(256.0,256.0,256.0);fill-rule:evenodd;fill-opacity:1;stroke:rgb(256.0,256.0,256.0);stroke-width:0.5px;stroke-linecap:butt;stroke-linejoin:miter;stroke-opacity:1"/>
<path class="bond-11 atom-10 atom-9" d="M 105.7,89.9 L 105.8,82.4 L 102.7,83.4 Z" style="fill:rgb(134.87500000000003,134.87500000000003,249.62499999999997);fill-rule:evenodd;fill-opacity:1;stroke:rgb(134.87500000000003,134.87500000000003,249.62499999999997);stroke-width:0.5px;stroke-linecap:butt;stroke-linejoin:miter;stroke-opacity:1"/>
<path class="bond-11 atom-10 atom-9" d="M 105.7,89.9 L 107.2,89.4 L 105.8,82.4 Z" style="fill:rgb(134.87500000000003,134.87500000000003,249.62499999999997);fill-rule:evenodd;fill-opacity:1;stroke:rgb(134.87500000000003,134.87500000000003,249.62499999999997);stroke-width:0.5px;stroke-linecap:butt;stroke-linejoin:miter;stroke-opacity:1"/>
<path class="bond-12 atom-10 atom-11" d="M 108.7,96.5 L 104.6,102.1" style="fill:none;fill-rule:evenodd;stroke:rgb(256.0,256.0,256.0);stroke-width:2.0px;stroke-linecap:butt;stroke-linejoin:miter;stroke-opacity:1"/>
<path class="bond-12 atom-10 atom-11" d="M 104.6,102.1 L 100.5,107.7" style="fill:none;fill-rule:evenodd;stroke:rgb(249.62499999999997,134.87500000000003,134.87500000000003);stroke-width:2.0px;stroke-linecap:butt;stroke-linejoin:miter;stroke-opacity:1"/>
<path class="bond-13 atom-10 atom-15" d="M 108.7,96.5 L 129.4,103.2" style="fill:none;fill-rule:evenodd;stroke:rgb(256.0,256.0,256.0);stroke-width:2.0px;stroke-linecap:butt;stroke-linejoin:miter;stroke-opacity:1"/>
<path class="bond-14 atom-11 atom-12" d="M 100.7,120.7 L 104.7,126.2" style="fill:none;fill-rule:evenodd;stroke:rgb(249.62499999999997,134.87500000000003,134.87500000000003);stroke-width:2.0px;stroke-linecap:butt;stroke-linejoin:miter;stroke-opacity:1"/>
<path class="bond-14 atom-11 atom-12" d="M 104.7,126.2 L 108.7,131.7" style="fill:none;fill-rule:evenodd;stroke:rgb(256.0,256.0,256.0);stroke-width:2.0px;stroke-linecap:butt;stroke-linejoin:miter;stroke-opacity:1"/>
<path class="bond-15 atom-12 atom-22" d="M 108.7,131.7 L 103.6,152.4 L 100.2,152.4 Z" style="fill:rgb(256.0,256.0,256.0);fill-rule:evenodd;fill-opacity:1;stroke:rgb(256.0,256.0,256.0);stroke-width:0.5px;stroke-linecap:butt;stroke-linejoin:miter;stroke-opacity:1"/>
<path class="bond-16 atom-12 atom-13" d="M 108.7,131.7 L 129.4,125.0" style="fill:none;fill-rule:evenodd;stroke:rgb(256.0,256.0,256.0);stroke-width:2.0px;stroke-linecap:butt;stroke-linejoin:miter;stroke-opacity:1"/>
<path class="bond-17 atom-13 atom-14" d="M 132.4,126.7 L 131.9,127.3" style="fill:none;fill-rule:evenodd;stroke:rgb(256.0,256.0,256.0);stroke-width:1.0px;stroke-linecap:butt;stroke-linejoin:miter;stroke-opacity:1"/>
<path class="bond-17 atom-13 atom-14" d="M 135.4,128.4 L 134.4,129.7" style="fill:none;fill-rule:evenodd;stroke:rgb(256.0,256.0,256.0);stroke-width:1.0px;stroke-linecap:butt;stroke-linejoin:miter;stroke-opacity:1"/>
<path class="bond-17 atom-13 atom-14" d="M 138.4,130.0 L 136.9,132.0" style="fill:none;fill-rule:evenodd;stroke:rgb(249.62499999999997,134.87500000000003,134.87500000000003);stroke-width:1.0px;stroke-linecap:butt;stroke-linejoin:miter;stroke-opacity:1"/>
<path class="bond-17 atom-13 atom-14" d="M 141.4,131.7 L 139.4,134.3" style="fill:none;fill-rule:evenodd;stroke:rgb(249.62499999999997,134.87500000000003,134.87500000000003);stroke-width:1.0px;stroke-linecap:butt;stroke-linejoin:miter;stroke-opacity:1"/>
<path class="bond-18 atom-13 atom-15" d="M 129.4,125.0 L 129.4,103.2" style="fill:none;fill-rule:evenodd;stroke:rgb(256.0,256.0,256.0);stroke-width:2.0px;stroke-linecap:butt;stroke-linejoin:miter;stroke-opacity:1"/>
<path class="bond-19 atom-15 atom-16" d="M 131.9,100.9 L 132.4,101.6" style="fill:none;fill-rule:evenodd;stroke:rgb(256.0,256.0,256.0);stroke-width:1.0px;stroke-linecap:butt;stroke-linejoin:miter;stroke-opacity:1"/>
<path class="bond-19 atom-15 atom-16" d="M 134.4,98.6 L 135.4,99.9" style="fill:none;fill-rule:evenodd;stroke:rgb(256.0,256.0,256.0);stroke-width:1.0px;stroke-linecap:butt;stroke-linejoin:miter;stroke-opacity:1"/>
<path class="bond-19 atom-15 atom-16" d="M 136.9,96.2 L 138.4,98.2" style="fill:none;fill-rule:evenodd;stroke:rgb(249.62499999999997,134.87500000000003,134.87500000000003);stroke-width:1.0px;stroke-linecap:butt;stroke-linejoin:miter;stroke-opacity:1"/>
<path class="bond-19 atom-15 atom-16" d="M 139.4,93.9 L 141.4,96.6" style="fill:none;fill-rule:evenodd;stroke:rgb(249.62499999999997,134.87500000000003,134.87500000000003);stroke-width:1.0px;stroke-linecap:butt;stroke-linejoin:miter;stroke-opacity:1"/>
<path class="bond-20 atom-17 atom-19" d="M 74.3,155.8 L 70.0,158.3" style="fill:none;fill-rule:evenodd;stroke:rgb(249.62499999999997,134.87500000000003,134.87500000000003);stroke-width:2.0px;stroke-linecap:butt;stroke-linejoin:miter;stroke-opacity:1"/>
<path class="bond-20 atom-17 atom-19" d="M 70.0,158.3 L 65.6,160.8" style="fill:none;fill-rule:evenodd;stroke:rgb(249.62499999999997,192.025,134.87500000000003);stroke-width:2.0px;stroke-linecap:butt;stroke-linejoin:miter;stroke-opacity:1"/>
<path class="bond-21 atom-19 atom-18" d="M 59.7,169.6 L 59.7,174.2" style="fill:none;fill-rule:evenodd;stroke:rgb(249.62499999999997,192.025,134.87500000000003);stroke-width:2.0px;stroke-linecap:butt;stroke-linejoin:miter;stroke-opacity:1"/>
<path class="bond-21 atom-19 atom-18" d="M 59.7,174.2 L 59.7,178.7" style="fill:none;fill-rule:evenodd;stroke:rgb(249.62499999999997,134.87500000000003,134.87500000000003);stroke-width:2.0px;stroke-linecap:butt;stroke-linejoin:miter;stroke-opacity:1"/>
<path class="bond-21 atom-19 atom-18" d="M 63.0,169.6 L 63.0,174.2" style="fill:none;fill-rule:evenodd;stroke:rgb(249.62499999999997,192.025,134.87500000000003);stroke-width:2.0px;stroke-linecap:butt;stroke-linejoin:miter;stroke-opacity:1"/>
<path class="bond-21 atom-19 atom-18" d="M 63.0,174.2 L 63.0,178.7" style="fill:none;fill-rule:evenodd;stroke:rgb(249.62499999999997,134.87500000000003,134.87500000000003);stroke-width:2.0px;stroke-linecap:butt;stroke-linejoin:miter;stroke-opacity:1"/>
<path class="bond-22 atom-19 atom-21" d="M 57.1,160.8 L 52.7,158.3" style="fill:none;fill-rule:evenodd;stroke:rgb(249.62499999999997,192.025,134.87500000000003);stroke-width:2.0px;stroke-linecap:butt;stroke-linejoin:miter;stroke-opacity:1"/>
<path class="bond-22 atom-19 atom-21" d="M 52.7,158.3 L 48.4,155.8" style="fill:none;fill-rule:evenodd;stroke:rgb(249.62499999999997,134.87500000000003,134.87500000000003);stroke-width:2.0px;stroke-linecap:butt;stroke-linejoin:miter;stroke-opacity:1"/>
<path class="bond-23 atom-19 atom-20" d="M 61.3,157.0 L 61.3,152.5" style="fill:none;fill-rule:evenodd;stroke:rgb(249.62499999999997,192.025,134.87500000000003);stroke-width:2.0px;stroke-linecap:butt;stroke-linejoin:miter;stroke-opacity:1"/>
<path class="bond-23 atom-19 atom-20" d="M 61.3,152.5 L 61.3,148.1" style="fill:none;fill-rule:evenodd;stroke:rgb(249.62499999999997,134.87500000000003,134.87500000000003);stroke-width:2.0px;stroke-linecap:butt;stroke-linejoin:miter;stroke-opacity:1"/>
<path class="bond-24 atom-22 atom-17" d="M 103.6,152.4 L 94.0,152.4" style="fill:none;fill-rule:evenodd;stroke:rgb(256.0,256.0,256.0);stroke-width:2.0px;stroke-linecap:butt;stroke-linejoin:miter;stroke-opacity:1"/>
<path class="bond-24 atom-22 atom-17" d="M 94.0,152.4 L 86.1,152.4" style="fill:none;fill-rule:evenodd;stroke:rgb(249.62499999999997,134.87500000000003,134.87500000000003);stroke-width:2.0px;stroke-linecap:butt;stroke-linejoin:miter;stroke-opacity:1"/>
<path d="M 43.6,68.7 L 43.6,69.1 L 43.9,69.3" style="fill:none;stroke:rgb(256.0,256.0,256.0);stroke-width:2.0px;stroke-linecap:butt;stroke-linejoin:miter;stroke-opacity:1"/>
<path d="M 114.5,57.9 L 114.8,58.2 L 114.5,58.5" style="fill:none;stroke:rgb(256.0,256.0,256.0);stroke-width:2.0px;stroke-linecap:butt;stroke-linejoin:miter;stroke-opacity:1"/>
<path d="M 108.5,96.8 L 108.7,96.5 L 109.7,96.9" style="fill:none;stroke:rgb(256.0,256.0,256.0);stroke-width:2.0px;stroke-linecap:butt;stroke-linejoin:miter;stroke-opacity:1"/>
<path d="M 108.5,131.5 L 108.7,131.7 L 109.7,131.4" style="fill:none;stroke:rgb(256.0,256.0,256.0);stroke-width:2.0px;stroke-linecap:butt;stroke-linejoin:miter;stroke-opacity:1"/>
<path d="M 128.3,125.3 L 129.4,125.0 L 129.4,123.9" style="fill:none;stroke:rgb(256.0,256.0,256.0);stroke-width:2.0px;stroke-linecap:butt;stroke-linejoin:miter;stroke-opacity:1"/>
<path d="M 128.3,102.9 L 129.4,103.2 L 129.4,104.3" style="fill:none;stroke:rgb(256.0,256.0,256.0);stroke-width:2.0px;stroke-linecap:butt;stroke-linejoin:miter;stroke-opacity:1"/>
<path class="atom-0" d="M 59.9 9.1 L 63.6 15.0 Q 64.0 15.6, 64.6 16.7 Q 65.1 17.7, 65.2 17.8 L 65.2 9.1 L 66.7 9.1 L 66.7 20.3 L 65.1 20.3 L 61.2 13.8 Q 60.7 13.0, 60.2 12.2 Q 59.8 11.3, 59.6 11.0 L 59.6 20.3 L 58.2 20.3 L 58.2 9.1 L 59.9 9.1 " fill="rgb(134.87500000000003,134.87500000000003,249.62499999999997)"/>
<path class="atom-0" d="M 68.8 9.1 L 70.3 9.1 L 70.3 13.9 L 76.1 13.9 L 76.1 9.1 L 77.6 9.1 L 77.6 20.3 L 76.1 20.3 L 76.1 15.1 L 70.3 15.1 L 70.3 20.3 L 68.8 20.3 L 68.8 9.1 " fill="rgb(134.87500000000003,134.87500000000003,249.62499999999997)"/>
<path class="atom-0" d="M 79.8 19.9 Q 80.0 19.2, 80.7 18.8 Q 81.3 18.4, 82.2 18.4 Q 83.4 18.4, 84.0 19.0 Q 84.6 19.6, 84.6 20.7 Q 84.6 21.8, 83.8 22.8 Q 83.0 23.9, 81.3 25.1 L 84.7 25.1 L 84.7 25.9 L 79.7 25.9 L 79.7 25.2 Q 81.1 24.2, 81.9 23.5 Q 82.8 22.8, 83.2 22.1 Q 83.6 21.4, 83.6 20.8 Q 83.6 20.0, 83.2 19.7 Q 82.9 19.3, 82.2 19.3 Q 81.6 19.3, 81.2 19.5 Q 80.8 19.7, 80.6 20.3 L 79.8 19.9 " fill="rgb(134.87500000000003,134.87500000000003,249.62499999999997)"/>
<path class="atom-2" d="M 41.1 41.7 L 44.8 47.7 Q 45.1 48.3, 45.7 49.3 Q 46.3 50.4, 46.3 50.4 L 46.3 41.7 L 47.8 41.7 L 47.8 52.9 L 46.3 52.9 L 42.3 46.4 Q 41.9 45.7, 41.4 44.8 Q 40.9 43.9, 40.8 43.7 L 40.8 52.9 L 39.3 52.9 L 39.3 41.7 L 41.1 41.7 " fill="rgb(134.87500000000003,134.87500000000003,249.62499999999997)"/>
<path class="atom-4" d="M 59.9 74.4 L 63.6 80.3 Q 64.0 80.9, 64.6 82.0 Q 65.1 83.0, 65.2 83.1 L 65.2 74.4 L 66.7 74.4 L 66.7 85.6 L 65.1 85.6 L 61.2 79.1 Q 60.7 78.3, 60.2 77.5 Q 59.8 76.6, 59.6 76.3 L 59.6 85.6 L 58.2 85.6 L 58.2 74.4 L 59.9 74.4 " fill="rgb(134.87500000000003,134.87500000000003,249.62499999999997)"/>
<path class="atom-7" d="M 99.5 35.0 L 103.2 40.9 Q 103.5 41.5, 104.1 42.6 Q 104.7 43.6, 104.7 43.7 L 104.7 35.0 L 106.2 35.0 L 106.2 46.2 L 104.7 46.2 L 100.7 39.7 Q 100.3 39.0, 99.8 38.1 Q 99.3 37.2, 99.2 37.0 L 99.2 46.2 L 97.7 46.2 L 97.7 35.0 L 99.5 35.0 " fill="rgb(134.87500000000003,134.87500000000003,249.62499999999997)"/>
<path class="atom-9" d="M 99.5 70.2 L 103.2 76.2 Q 103.5 76.7, 104.1 77.8 Q 104.7 78.9, 104.7 78.9 L 104.7 70.2 L 106.2 70.2 L 106.2 81.4 L 104.7 81.4 L 100.7 74.9 Q 100.3 74.2, 99.8 73.3 Q 99.3 72.4, 99.2 72.2 L 99.2 81.4 L 97.7 81.4 L 97.7 70.2 L 99.5 70.2 " fill="rgb(134.87500000000003,134.87500000000003,249.62499999999997)"/>
<path class="atom-11" d="M 90.7 114.2 Q 90.7 111.5, 92.1 110.0 Q 93.4 108.5, 95.9 108.5 Q 98.4 108.5, 99.7 110.0 Q 101.0 111.5, 101.0 114.2 Q 101.0 116.9, 99.7 118.4 Q 98.3 120.0, 95.9 120.0 Q 93.4 120.0, 92.1 118.4 Q 90.7 116.9, 90.7 114.2 M 95.9 118.7 Q 97.6 118.7, 98.5 117.6 Q 99.5 116.4, 99.5 114.2 Q 99.5 112.0, 98.5 110.8 Q 97.6 109.7, 95.9 109.7 Q 94.2 109.7, 93.2 110.8 Q 92.3 111.9, 92.3 114.2 Q 92.3 116.4, 93.2 117.6 Q 94.2 118.7, 95.9 118.7 " fill="rgb(249.62499999999997,134.87500000000003,134.87500000000003)"/>
<path class="atom-14" d="M 141.8 137.8 Q 141.8 135.1, 143.2 133.6 Q 144.5 132.1, 147.0 132.1 Q 149.5 132.1, 150.8 133.6 Q 152.1 135.1, 152.1 137.8 Q 152.1 140.6, 150.8 142.1 Q 149.4 143.6, 147.0 143.6 Q 144.5 143.6, 143.2 142.1 Q 141.8 140.6, 141.8 137.8 M 147.0 142.4 Q 148.7 142.4, 149.6 141.2 Q 150.5 140.1, 150.5 137.8 Q 150.5 135.6, 149.6 134.5 Q 148.7 133.4, 147.0 133.4 Q 145.3 133.4, 144.3 134.5 Q 143.4 135.6, 143.4 137.8 Q 143.4 140.1, 144.3 141.2 Q 145.3 142.4, 147.0 142.4 " fill="rgb(249.62499999999997,134.87500000000003,134.87500000000003)"/>
<path class="atom-14" d="M 153.9 132.3 L 155.4 132.3 L 155.4 137.0 L 161.1 137.0 L 161.1 132.3 L 162.6 132.3 L 162.6 143.5 L 161.1 143.5 L 161.1 138.3 L 155.4 138.3 L 155.4 143.5 L 153.9 143.5 L 153.9 132.3 " fill="rgb(249.62499999999997,134.87500000000003,134.87500000000003)"/>
<path class="atom-16" d="M 141.8 90.5 Q 141.8 87.8, 143.2 86.3 Q 144.5 84.8, 147.0 84.8 Q 149.5 84.8, 150.8 86.3 Q 152.1 87.8, 152.1 90.5 Q 152.1 93.2, 150.8 94.8 Q 149.4 96.3, 147.0 96.3 Q 144.5 96.3, 143.2 94.8 Q 141.8 93.2, 141.8 90.5 M 147.0 95.0 Q 148.7 95.0, 149.6 93.9 Q 150.5 92.7, 150.5 90.5 Q 150.5 88.3, 149.6 87.2 Q 148.7 86.1, 147.0 86.1 Q 145.3 86.1, 144.3 87.2 Q 143.4 88.3, 143.4 90.5 Q 143.4 92.8, 144.3 93.9 Q 145.3 95.0, 147.0 95.0 " fill="rgb(249.62499999999997,134.87500000000003,134.87500000000003)"/>
<path class="atom-16" d="M 153.9 84.9 L 155.4 84.9 L 155.4 89.7 L 161.1 89.7 L 161.1 84.9 L 162.6 84.9 L 162.6 96.1 L 161.1 96.1 L 161.1 90.9 L 155.4 90.9 L 155.4 96.1 L 153.9 96.1 L 153.9 84.9 " fill="rgb(249.62499999999997,134.87500000000003,134.87500000000003)"/>
<path class="atom-17" d="M 75.0 152.5 Q 75.0 149.8, 76.4 148.3 Q 77.7 146.8, 80.2 146.8 Q 82.7 146.8, 84.0 148.3 Q 85.3 149.8, 85.3 152.5 Q 85.3 155.2, 84.0 156.7 Q 82.6 158.3, 80.2 158.3 Q 77.7 158.3, 76.4 156.7 Q 75.0 155.2, 75.0 152.5 M 80.2 157.0 Q 81.9 157.0, 82.8 155.9 Q 83.8 154.7, 83.8 152.5 Q 83.8 150.3, 82.8 149.2 Q 81.9 148.0, 80.2 148.0 Q 78.5 148.0, 77.6 149.1 Q 76.6 150.2, 76.6 152.5 Q 76.6 154.7, 77.6 155.9 Q 78.5 157.0, 80.2 157.0 " fill="rgb(249.62499999999997,134.87500000000003,134.87500000000003)"/>
<path class="atom-18" d="M 56.2 185.1 Q 56.2 182.4, 57.5 180.9 Q 58.9 179.4, 61.3 179.4 Q 63.8 179.4, 65.2 180.9 Q 66.5 182.4, 66.5 185.1 Q 66.5 187.8, 65.1 189.4 Q 63.8 190.9, 61.3 190.9 Q 58.9 190.9, 57.5 189.4 Q 56.2 187.8, 56.2 185.1 M 61.3 189.6 Q 63.1 189.6, 64.0 188.5 Q 64.9 187.3, 64.9 185.1 Q 64.9 182.9, 64.0 181.8 Q 63.1 180.7, 61.3 180.7 Q 59.6 180.7, 58.7 181.8 Q 57.8 182.9, 57.8 185.1 Q 57.8 187.4, 58.7 188.5 Q 59.6 189.6, 61.3 189.6 " fill="rgb(249.62499999999997,134.87500000000003,134.87500000000003)"/>
<path class="atom-19" d="M 61.1 157.7 Q 63.0 157.7, 64.0 158.6 Q 64.9 159.4, 64.9 161.0 Q 64.9 162.5, 63.9 163.4 Q 62.9 164.3, 61.1 164.3 L 59.3 164.3 L 59.3 168.9 L 57.8 168.9 L 57.8 157.7 L 61.1 157.7 M 61.1 163.0 Q 62.2 163.0, 62.8 162.5 Q 63.3 162.0, 63.3 161.0 Q 63.3 160.0, 62.8 159.5 Q 62.2 159.0, 61.1 159.0 L 59.3 159.0 L 59.3 163.0 L 61.1 163.0 " fill="rgb(249.62499999999997,192.025,134.87500000000003)"/>
<path class="atom-20" d="M 56.2 141.6 Q 56.2 138.9, 57.5 137.4 Q 58.9 135.9, 61.3 135.9 Q 63.8 135.9, 65.2 137.4 Q 66.5 138.9, 66.5 141.6 Q 66.5 144.3, 65.1 145.9 Q 63.8 147.4, 61.3 147.4 Q 58.9 147.4, 57.5 145.9 Q 56.2 144.3, 56.2 141.6 M 61.3 146.1 Q 63.1 146.1, 64.0 145.0 Q 64.9 143.8, 64.9 141.6 Q 64.9 139.4, 64.0 138.3 Q 63.1 137.1, 61.3 137.1 Q 59.6 137.1, 58.7 138.3 Q 57.8 139.4, 57.8 141.6 Q 57.8 143.8, 58.7 145.0 Q 59.6 146.1, 61.3 146.1 " fill="rgb(249.62499999999997,134.87500000000003,134.87500000000003)"/>
<path class="atom-20" d="M 68.1 137.7 L 71.9 137.7 L 71.9 138.5 L 68.1 138.5 L 68.1 137.7 " fill="rgb(249.62499999999997,134.87500000000003,134.87500000000003)"/>
<path class="atom-21" d="M 37.4 152.5 Q 37.4 149.8, 38.7 148.3 Q 40.0 146.8, 42.5 146.8 Q 45.0 146.8, 46.3 148.3 Q 47.6 149.8, 47.6 152.5 Q 47.6 155.2, 46.3 156.7 Q 45.0 158.3, 42.5 158.3 Q 40.0 158.3, 38.7 156.7 Q 37.4 155.2, 37.4 152.5 M 42.5 157.0 Q 44.2 157.0, 45.1 155.9 Q 46.1 154.7, 46.1 152.5 Q 46.1 150.3, 45.1 149.2 Q 44.2 148.0, 42.5 148.0 Q 40.8 148.0, 39.9 149.1 Q 38.9 150.2, 38.9 152.5 Q 38.9 154.7, 39.9 155.9 Q 40.8 157.0, 42.5 157.0 " fill="rgb(249.62499999999997,134.87500000000003,134.87500000000003)"/>
<path class="atom-21" d="M 49.2 148.6 L 53.1 148.6 L 53.1 149.4 L 49.2 149.4 L 49.2 148.6 " fill="rgb(249.62499999999997,134.87500000000003,134.87500000000003)"/>
</svg>