<svg xmlns="http://www.w3.org/2000/svg" xmlns:rdkit="http://www.rdkit.org/xml" xmlns:xlink="http://www.w3.org/1999/xlink" viewBox="-10.9 42.2 221.8 115.60000000000001">
<path class="bond-0 atom-1 atom-0" d="M 135.6,106.1 L 157.2,93.7" style="fill:none;fill-rule:evenodd;stroke:#000000;stroke-width:2.0px;stroke-linecap:butt;stroke-linejoin:miter;stroke-opacity:1"/>
<path class="bond-1 atom-2 atom-1" d="M 114.0,93.7 L 135.6,106.1" style="fill:none;fill-rule:evenodd;stroke:#000000;stroke-width:2.0px;stroke-linecap:butt;stroke-linejoin:miter;stroke-opacity:1"/>
<path class="bond-2 atom-3 atom-2" d="M 92.4,106.1 L 114.0,93.7" style="fill:none;fill-rule:evenodd;stroke:#000000;stroke-width:2.0px;stroke-linecap:butt;stroke-linejoin:miter;stroke-opacity:1"/>
<path class="bond-3 atom-4 atom-3" d="M 70.8,93.7 L 92.4,106.1" style="fill:none;fill-rule:evenodd;stroke:#000000;stroke-width:2.0px;stroke-linecap:butt;stroke-linejoin:miter;stroke-opacity:1"/>
<path class="bond-4 atom-5 atom-4" d="M 49.3,106.1 L 70.8,93.7" style="fill:none;fill-rule:evenodd;stroke:#000000;stroke-width:2.0px;stroke-linecap:butt;stroke-linejoin:miter;stroke-opacity:1"/>
<path class="bond-5 atom-6 atom-5" d="M 34.4,97.5 L 41.8,101.8" style="fill:none;fill-rule:evenodd;stroke:#FF0000;stroke-width:2.0px;stroke-linecap:butt;stroke-linejoin:miter;stroke-opacity:1"/>
<path class="bond-5 atom-6 atom-5" d="M 41.8,101.8 L 49.3,106.1" style="fill:none;fill-rule:evenodd;stroke:#000000;stroke-width:2.0px;stroke-linecap:butt;stroke-linejoin:miter;stroke-opacity:1"/>
<path class="bond-6 atom-7 atom-0" d="M 172.1,102.3 L 164.6,98.0" style="fill:none;fill-rule:evenodd;stroke:#FF0000;stroke-width:2.0px;stroke-linecap:butt;stroke-linejoin:miter;stroke-opacity:1"/>
<path class="bond-6 atom-7 atom-0" d="M 164.6,98.0 L 157.2,93.7" style="fill:none;fill-rule:evenodd;stroke:#000000;stroke-width:2.0px;stroke-linecap:butt;stroke-linejoin:miter;stroke-opacity:1"/>
<path class="bond-7 atom-1 atom-8" d="M 136.0,109.5 L 135.2,109.5" style="fill:none;fill-rule:evenodd;stroke:#000000;stroke-width:1.0px;stroke-linecap:butt;stroke-linejoin:miter;stroke-opacity:1"/>
<path class="bond-7 atom-1 atom-8" d="M 136.4,112.9 L 134.9,112.9" style="fill:none;fill-rule:evenodd;stroke:#000000;stroke-width:1.0px;stroke-linecap:butt;stroke-linejoin:miter;stroke-opacity:1"/>
<path class="bond-7 atom-1 atom-8" d="M 136.7,116.2 L 134.5,116.2" style="fill:none;fill-rule:evenodd;stroke:#FF0000;stroke-width:1.0px;stroke-linecap:butt;stroke-linejoin:miter;stroke-opacity:1"/>
<path class="bond-7 atom-1 atom-8" d="M 137.1,119.6 L 134.1,119.6" style="fill:none;fill-rule:evenodd;stroke:#FF0000;stroke-width:1.0px;stroke-linecap:butt;stroke-linejoin:miter;stroke-opacity:1"/>
<path class="bond-7 atom-1 atom-8" d="M 137.5,122.9 L 133.7,122.9" style="fill:none;fill-rule:evenodd;stroke:#FF0000;stroke-width:1.0px;stroke-linecap:butt;stroke-linejoin:miter;stroke-opacity:1"/>
<path class="bond-8 atom-2 atom-9" d="M 113.6,90.3 L 114.4,90.3" style="fill:none;fill-rule:evenodd;stroke:#000000;stroke-width:1.0px;stroke-linecap:butt;stroke-linejoin:miter;stroke-opacity:1"/>
<path class="bond-8 atom-2 atom-9" d="M 113.3,87.0 L 114.8,87.0" style="fill:none;fill-rule:evenodd;stroke:#000000;stroke-width:1.0px;stroke-linecap:butt;stroke-linejoin:miter;stroke-opacity:1"/>
<path class="bond-8 atom-2 atom-9" d="M 112.9,83.7 L 115.1,83.7" style="fill:none;fill-rule:evenodd;stroke:#FF0000;stroke-width:1.0px;stroke-linecap:butt;stroke-linejoin:miter;stroke-opacity:1"/>
<path class="bond-8 atom-2 atom-9" d="M 112.5,80.4 L 115.5,80.4" style="fill:none;fill-rule:evenodd;stroke:#FF0000;stroke-width:1.0px;stroke-linecap:butt;stroke-linejoin:miter;stroke-opacity:1"/>
<path class="bond-8 atom-2 atom-9" d="M 112.2,77.1 L 115.9,77.1" style="fill:none;fill-rule:evenodd;stroke:#FF0000;stroke-width:1.0px;stroke-linecap:butt;stroke-linejoin:miter;stroke-opacity:1"/>
<path class="bond-9 atom-3 atom-10" d="M 92.8,109.5 L 92.1,109.5" style="fill:none;fill-rule:evenodd;stroke:#000000;stroke-width:1.0px;stroke-linecap:butt;stroke-linejoin:miter;stroke-opacity:1"/>
<path class="bond-9 atom-3 atom-10" d="M 93.2,112.9 L 91.7,112.9" style="fill:none;fill-rule:evenodd;stroke:#000000;stroke-width:1.0px;stroke-linecap:butt;stroke-linejoin:miter;stroke-opacity:1"/>
<path class="bond-9 atom-3 atom-10" d="M 93.6,116.2 L 91.3,116.2" style="fill:none;fill-rule:evenodd;stroke:#FF0000;stroke-width:1.0px;stroke-linecap:butt;stroke-linejoin:miter;stroke-opacity:1"/>
<path class="bond-9 atom-3 atom-10" d="M 93.9,119.6 L 90.9,119.6" style="fill:none;fill-rule:evenodd;stroke:#FF0000;stroke-width:1.0px;stroke-linecap:butt;stroke-linejoin:miter;stroke-opacity:1"/>
<path class="bond-9 atom-3 atom-10" d="M 94.3,122.9 L 90.6,122.9" style="fill:none;fill-rule:evenodd;stroke:#FF0000;stroke-width:1.0px;stroke-linecap:butt;stroke-linejoin:miter;stroke-opacity:1"/>
<path class="bond-10 atom-4 atom-11" d="M 70.8,93.7 L 69.9,85.4 L 71.8,85.4 Z" style="fill:#000000;fill-rule:evenodd;fill-opacity:1;stroke:#000000;stroke-width:0.5px;stroke-linecap:butt;stroke-linejoin:miter;stroke-opacity:1;"/>
<path class="bond-10 atom-4 atom-11" d="M 69.9,85.4 L 72.7,77.1 L 69.0,77.1 Z" style="fill:#FF0000;fill-rule:evenodd;fill-opacity:1;stroke:#FF0000;stroke-width:0.5px;stroke-linecap:butt;stroke-linejoin:miter;stroke-opacity:1;"/>
<path class="bond-10 atom-4 atom-11" d="M 69.9,85.4 L 71.8,85.4 L 72.7,77.1 Z" style="fill:#FF0000;fill-rule:evenodd;fill-opacity:1;stroke:#FF0000;stroke-width:0.5px;stroke-linecap:butt;stroke-linejoin:miter;stroke-opacity:1;"/>
<path class="bond-11 atom-12 atom-0" d="M 159.1,76.2 L 159.1,85.5" style="fill:none;fill-rule:evenodd;stroke:#FF0000;stroke-width:2.0px;stroke-linecap:butt;stroke-linejoin:miter;stroke-opacity:1"/>
<path class="bond-11 atom-12 atom-0" d="M 159.1,85.5 L 159.1,94.7" style="fill:none;fill-rule:evenodd;stroke:#000000;stroke-width:2.0px;stroke-linecap:butt;stroke-linejoin:miter;stroke-opacity:1"/>
<path class="bond-11 atom-12 atom-0" d="M 155.3,76.2 L 155.3,85.5" style="fill:none;fill-rule:evenodd;stroke:#FF0000;stroke-width:2.0px;stroke-linecap:butt;stroke-linejoin:miter;stroke-opacity:1"/>
<path class="bond-11 atom-12 atom-0" d="M 155.3,85.5 L 155.3,94.7" style="fill:none;fill-rule:evenodd;stroke:#000000;stroke-width:2.0px;stroke-linecap:butt;stroke-linejoin:miter;stroke-opacity:1"/>
<path d="M 156.1,94.3 L 157.2,93.7 L 157.6,93.9" style="fill:none;stroke:#000000;stroke-width:2.0px;stroke-linecap:butt;stroke-linejoin:miter;stroke-opacity:1;"/>
<path d="M 136.7,105.5 L 135.6,106.1 L 134.5,105.5" style="fill:none;stroke:#000000;stroke-width:2.0px;stroke-linecap:butt;stroke-linejoin:miter;stroke-opacity:1;"/>
<path d="M 115.1,94.3 L 114.0,93.7 L 112.9,94.3" style="fill:none;stroke:#000000;stroke-width:2.0px;stroke-linecap:butt;stroke-linejoin:miter;stroke-opacity:1;"/>
<path d="M 93.5,105.5 L 92.4,106.1 L 91.4,105.5" style="fill:none;stroke:#000000;stroke-width:2.0px;stroke-linecap:butt;stroke-linejoin:miter;stroke-opacity:1;"/>
<path d="M 71.9,94.3 L 70.8,93.7 L 69.8,94.3" style="fill:none;stroke:#000000;stroke-width:2.0px;stroke-linecap:butt;stroke-linejoin:miter;stroke-opacity:1;"/>
<path d="M 50.3,105.5 L 49.3,106.1 L 48.9,105.9" style="fill:none;stroke:#000000;stroke-width:2.0px;stroke-linecap:butt;stroke-linejoin:miter;stroke-opacity:1;"/>
<path class="atom-6" d="M 9.1 87.3 L 10.8 87.3 L 10.8 92.8 L 17.4 92.8 L 17.4 87.3 L 19.1 87.3 L 19.1 100.2 L 17.4 100.2 L 17.4 94.2 L 10.8 94.2 L 10.8 100.2 L 9.1 100.2 L 9.1 87.3 " fill="#FF0000"/>
<path class="atom-6" d="M 21.8 93.7 Q 21.8 90.6, 23.3 88.9 Q 24.8 87.2, 27.7 87.2 Q 30.5 87.2, 32.0 88.9 Q 33.6 90.6, 33.6 93.7 Q 33.6 96.8, 32.0 98.6 Q 30.5 100.4, 27.7 100.4 Q 24.8 100.4, 23.3 98.6 Q 21.8 96.8, 21.8 93.7 M 27.7 98.9 Q 29.6 98.9, 30.7 97.6 Q 31.7 96.3, 31.7 93.7 Q 31.7 91.2, 30.7 89.9 Q 29.6 88.6, 27.7 88.6 Q 25.7 88.6, 24.6 89.9 Q 23.6 91.2, 23.6 93.7 Q 23.6 96.3, 24.6 97.6 Q 25.7 98.9, 27.7 98.9 " fill="#FF0000"/>
<path class="atom-7" d="M 172.9 106.2 Q 172.9 103.1, 174.4 101.4 Q 175.9 99.6, 178.8 99.6 Q 181.6 99.6, 183.2 101.4 Q 184.7 103.1, 184.7 106.2 Q 184.7 109.3, 183.1 111.1 Q 181.6 112.8, 178.8 112.8 Q 176.0 112.8, 174.4 111.1 Q 172.9 109.3, 172.9 106.2 M 178.8 111.4 Q 180.8 111.4, 181.8 110.1 Q 182.9 108.7, 182.9 106.2 Q 182.9 103.6, 181.8 102.4 Q 180.8 101.1, 178.8 101.1 Q 176.8 101.1, 175.8 102.4 Q 174.7 103.6, 174.7 106.2 Q 174.7 108.8, 175.8 110.1 Q 176.8 111.4, 178.8 111.4 " fill="#FF0000"/>
<path class="atom-7" d="M 186.5 101.7 L 190.9 101.7 L 190.9 102.7 L 186.5 102.7 L 186.5 101.7 " fill="#FF0000"/>
<path class="atom-8" d="M 129.7 131.1 Q 129.7 128.0, 131.2 126.3 Q 132.8 124.6, 135.6 124.6 Q 138.5 124.6, 140.0 126.3 Q 141.5 128.0, 141.5 131.1 Q 141.5 134.2, 140.0 136.0 Q 138.4 137.8, 135.6 137.8 Q 132.8 137.8, 131.2 136.0 Q 129.7 134.2, 129.7 131.1 M 135.6 136.3 Q 137.6 136.3, 138.6 135.0 Q 139.7 133.7, 139.7 131.1 Q 139.7 128.6, 138.6 127.3 Q 137.6 126.0, 135.6 126.0 Q 133.7 126.0, 132.6 127.3 Q 131.5 128.6, 131.5 131.1 Q 131.5 133.7, 132.6 135.0 Q 133.7 136.3, 135.6 136.3 " fill="#FF0000"/>
<path class="atom-8" d="M 143.5 124.7 L 145.2 124.7 L 145.2 130.2 L 151.8 130.2 L 151.8 124.7 L 153.6 124.7 L 153.6 137.6 L 151.8 137.6 L 151.8 131.6 L 145.2 131.6 L 145.2 137.6 L 143.5 137.6 L 143.5 124.7 " fill="#FF0000"/>
<path class="atom-9" d="M 108.1 68.8 Q 108.1 65.7, 109.7 64.0 Q 111.2 62.2, 114.0 62.2 Q 116.9 62.2, 118.4 64.0 Q 119.9 65.7, 119.9 68.8 Q 119.9 71.9, 118.4 73.7 Q 116.8 75.4, 114.0 75.4 Q 111.2 75.4, 109.7 73.7 Q 108.1 71.9, 108.1 68.8 M 114.0 74.0 Q 116.0 74.0, 117.0 72.7 Q 118.1 71.3, 118.1 68.8 Q 118.1 66.3, 117.0 65.0 Q 116.0 63.7, 114.0 63.7 Q 112.1 63.7, 111.0 65.0 Q 109.9 66.2, 109.9 68.8 Q 109.9 71.4, 111.0 72.7 Q 112.1 74.0, 114.0 74.0 " fill="#FF0000"/>
<path class="atom-9" d="M 121.9 62.4 L 123.7 62.4 L 123.7 67.8 L 130.2 67.8 L 130.2 62.4 L 132.0 62.4 L 132.0 75.2 L 130.2 75.2 L 130.2 69.3 L 123.7 69.3 L 123.7 75.2 L 121.9 75.2 L 121.9 62.4 " fill="#FF0000"/>
<path class="atom-10" d="M 86.5 131.1 Q 86.5 128.0, 88.1 126.3 Q 89.6 124.6, 92.4 124.6 Q 95.3 124.6, 96.8 126.3 Q 98.3 128.0, 98.3 131.1 Q 98.3 134.2, 96.8 136.0 Q 95.2 137.8, 92.4 137.8 Q 89.6 137.8, 88.1 136.0 Q 86.5 134.2, 86.5 131.1 M 92.4 136.3 Q 94.4 136.3, 95.4 135.0 Q 96.5 133.7, 96.5 131.1 Q 96.5 128.6, 95.4 127.3 Q 94.4 126.0, 92.4 126.0 Q 90.5 126.0, 89.4 127.3 Q 88.4 128.6, 88.4 131.1 Q 88.4 133.7, 89.4 135.0 Q 90.5 136.3, 92.4 136.3 " fill="#FF0000"/>
<path class="atom-10" d="M 100.3 124.7 L 102.1 124.7 L 102.1 130.2 L 108.6 130.2 L 108.6 124.7 L 110.4 124.7 L 110.4 137.6 L 108.6 137.6 L 108.6 131.6 L 102.1 131.6 L 102.1 137.6 L 100.3 137.6 L 100.3 124.7 " fill="#FF0000"/>
<path class="atom-11" d="M 64.9 68.8 Q 64.9 65.7, 66.5 64.0 Q 68.0 62.2, 70.8 62.2 Q 73.7 62.2, 75.2 64.0 Q 76.7 65.7, 76.7 68.8 Q 76.7 71.9, 75.2 73.7 Q 73.7 75.4, 70.8 75.4 Q 68.0 75.4, 66.5 73.7 Q 64.9 71.9, 64.9 68.8 M 70.8 74.0 Q 72.8 74.0, 73.9 72.7 Q 74.9 71.3, 74.9 68.8 Q 74.9 66.3, 73.9 65.0 Q 72.8 63.7, 70.8 63.7 Q 68.9 63.7, 67.8 65.0 Q 66.8 66.2, 66.8 68.8 Q 66.8 71.4, 67.8 72.7 Q 68.9 74.0, 70.8 74.0 " fill="#FF0000"/>
<path class="atom-11" d="M 78.7 62.4 L 80.5 62.4 L 80.5 67.8 L 87.0 67.8 L 87.0 62.4 L 88.8 62.4 L 88.8 75.2 L 87.0 75.2 L 87.0 69.3 L 80.5 69.3 L 80.5 75.2 L 78.7 75.2 L 78.7 62.4 " fill="#FF0000"/>
<path class="atom-12" d="M 151.3 68.8 Q 151.3 65.7, 152.8 64.0 Q 154.4 62.2, 157.2 62.2 Q 160.1 62.2, 161.6 64.0 Q 163.1 65.7, 163.1 68.8 Q 163.1 71.9, 161.6 73.7 Q 160.0 75.4, 157.2 75.4 Q 154.4 75.4, 152.8 73.7 Q 151.3 71.9, 151.3 68.8 M 157.2 74.0 Q 159.2 74.0, 160.2 72.7 Q 161.3 71.3, 161.3 68.8 Q 161.3 66.3, 160.2 65.0 Q 159.2 63.7, 157.2 63.7 Q 155.2 63.7, 154.2 65.0 Q 153.1 66.2, 153.1 68.8 Q 153.1 71.4, 154.2 72.7 Q 155.2 74.0, 157.2 74.0 " fill="#FF0000"/>
</svg>