<svg xmlns="http://www.w3.org/2000/svg" xmlns:rdkit="http://www.rdkit.org/xml" xmlns:xlink="http://www.w3.org/1999/xlink" viewBox="-10.9 55.2 221.8 89.6">
<path class="bond-0 atom-0 atom-4" d="M 46.6,105.5 L 47.2,110.6 L 46.0,110.6 Z" style="fill:#000000;fill-rule:evenodd;fill-opacity:1;stroke:#000000;stroke-width:0.5px;stroke-linecap:butt;stroke-linejoin:miter;stroke-opacity:1;"/>
<path class="bond-0 atom-0 atom-4" d="M 47.2,110.6 L 45.5,115.7 L 47.7,115.7 Z" style="fill:#FF0000;fill-rule:evenodd;fill-opacity:1;stroke:#FF0000;stroke-width:0.5px;stroke-linecap:butt;stroke-linejoin:miter;stroke-opacity:1;"/>
<path class="bond-0 atom-0 atom-4" d="M 47.2,110.6 L 46.0,110.6 L 45.5,115.7 Z" style="fill:#FF0000;fill-rule:evenodd;fill-opacity:1;stroke:#FF0000;stroke-width:0.5px;stroke-linecap:butt;stroke-linejoin:miter;stroke-opacity:1;"/>
<path class="bond-1 atom-0 atom-1" d="M 46.6,105.5 L 33.5,98.0" style="fill:none;fill-rule:evenodd;stroke:#000000;stroke-width:2.0px;stroke-linecap:butt;stroke-linejoin:miter;stroke-opacity:1"/>
<path class="bond-2 atom-0 atom-2" d="M 46.6,105.5 L 59.7,98.0" style="fill:none;fill-rule:evenodd;stroke:#000000;stroke-width:2.0px;stroke-linecap:butt;stroke-linejoin:miter;stroke-opacity:1"/>
<path class="bond-3 atom-3 atom-1" d="M 24.5,103.2 L 29.0,100.6" style="fill:none;fill-rule:evenodd;stroke:#FF0000;stroke-width:2.0px;stroke-linecap:butt;stroke-linejoin:miter;stroke-opacity:1"/>
<path class="bond-3 atom-3 atom-1" d="M 29.0,100.6 L 33.5,98.0" style="fill:none;fill-rule:evenodd;stroke:#000000;stroke-width:2.0px;stroke-linecap:butt;stroke-linejoin:miter;stroke-opacity:1"/>
<path class="bond-4 atom-5 atom-2" d="M 68.8,103.2 L 64.2,100.6" style="fill:none;fill-rule:evenodd;stroke:#FF0000;stroke-width:2.0px;stroke-linecap:butt;stroke-linejoin:miter;stroke-opacity:1"/>
<path class="bond-4 atom-5 atom-2" d="M 64.2,100.6 L 59.7,98.0" style="fill:none;fill-rule:evenodd;stroke:#000000;stroke-width:2.0px;stroke-linecap:butt;stroke-linejoin:miter;stroke-opacity:1"/>
<path class="bond-5 atom-5 atom-6" d="M 76.9,103.2 L 81.4,100.6" style="fill:none;fill-rule:evenodd;stroke:#FF0000;stroke-width:2.0px;stroke-linecap:butt;stroke-linejoin:miter;stroke-opacity:1"/>
<path class="bond-5 atom-5 atom-6" d="M 81.4,100.6 L 86.0,98.0" style="fill:none;fill-rule:evenodd;stroke:#000000;stroke-width:2.0px;stroke-linecap:butt;stroke-linejoin:miter;stroke-opacity:1"/>
<path class="bond-6 atom-6 atom-7" d="M 86.0,98.0 L 99.1,105.5" style="fill:none;fill-rule:evenodd;stroke:#000000;stroke-width:2.0px;stroke-linecap:butt;stroke-linejoin:miter;stroke-opacity:1"/>
<path class="bond-7 atom-7 atom-8" d="M 99.1,105.5 L 112.2,98.0" style="fill:none;fill-rule:evenodd;stroke:#000000;stroke-width:2.0px;stroke-linecap:butt;stroke-linejoin:miter;stroke-opacity:1"/>
<path class="bond-8 atom-8 atom-9" d="M 112.2,98.0 L 125.3,105.5" style="fill:none;fill-rule:evenodd;stroke:#000000;stroke-width:2.0px;stroke-linecap:butt;stroke-linejoin:miter;stroke-opacity:1"/>
<path class="bond-9 atom-9 atom-10" d="M 125.3,105.5 L 138.4,98.0" style="fill:none;fill-rule:evenodd;stroke:#000000;stroke-width:2.0px;stroke-linecap:butt;stroke-linejoin:miter;stroke-opacity:1"/>
<path class="bond-10 atom-10 atom-11" d="M 138.4,98.0 L 151.6,105.5" style="fill:none;fill-rule:evenodd;stroke:#000000;stroke-width:2.0px;stroke-linecap:butt;stroke-linejoin:miter;stroke-opacity:1"/>
<path class="bond-11 atom-11 atom-12" d="M 151.6,105.5 L 164.7,98.0" style="fill:none;fill-rule:evenodd;stroke:#000000;stroke-width:2.0px;stroke-linecap:butt;stroke-linejoin:miter;stroke-opacity:1"/>
<path class="bond-12 atom-12 atom-13" d="M 164.7,98.0 L 177.8,105.5" style="fill:none;fill-rule:evenodd;stroke:#000000;stroke-width:2.0px;stroke-linecap:butt;stroke-linejoin:miter;stroke-opacity:1"/>
<path class="bond-13 atom-13 atom-14" d="M 177.8,105.5 L 190.9,98.0" style="fill:none;fill-rule:evenodd;stroke:#000000;stroke-width:2.0px;stroke-linecap:butt;stroke-linejoin:miter;stroke-opacity:1"/>
<path class="bond-14 atom-15 atom-16" d="M 190.9,82.8 L 177.8,75.2" style="fill:none;fill-rule:evenodd;stroke:#000000;stroke-width:2.0px;stroke-linecap:butt;stroke-linejoin:miter;stroke-opacity:1"/>
<path class="bond-15 atom-16 atom-17" d="M 177.8,75.2 L 164.7,82.8" style="fill:none;fill-rule:evenodd;stroke:#000000;stroke-width:2.0px;stroke-linecap:butt;stroke-linejoin:miter;stroke-opacity:1"/>
<path class="bond-16 atom-17 atom-18" d="M 164.7,82.8 L 151.6,75.2" style="fill:none;fill-rule:evenodd;stroke:#000000;stroke-width:2.0px;stroke-linecap:butt;stroke-linejoin:miter;stroke-opacity:1"/>
<path class="bond-17 atom-18 atom-19" d="M 151.6,75.2 L 138.4,82.8" style="fill:none;fill-rule:evenodd;stroke:#000000;stroke-width:2.0px;stroke-linecap:butt;stroke-linejoin:miter;stroke-opacity:1"/>
<path class="bond-18 atom-14 atom-15" d="M 190.9,98.0 L 190.9,82.8" style="fill:none;fill-rule:evenodd;stroke:#000000;stroke-width:2.0px;stroke-linecap:butt;stroke-linejoin:miter;stroke-opacity:1"/>
<path class="bond-19 atom-19 atom-20" d="M 138.4,82.8 L 125.3,75.2" style="fill:none;fill-rule:evenodd;stroke:#000000;stroke-width:2.0px;stroke-linecap:butt;stroke-linejoin:miter;stroke-opacity:1"/>
<path class="bond-20 atom-20 atom-21" d="M 125.3,75.2 L 112.2,82.8" style="fill:none;fill-rule:evenodd;stroke:#000000;stroke-width:2.0px;stroke-linecap:butt;stroke-linejoin:miter;stroke-opacity:1"/>
<path d="M 46.0,105.2 L 46.6,105.5 L 47.3,105.2" style="fill:none;stroke:#000000;stroke-width:2.0px;stroke-linecap:butt;stroke-linejoin:miter;stroke-opacity:1;"/>
<path d="M 34.1,98.3 L 33.5,98.0 L 33.3,98.1" style="fill:none;stroke:#000000;stroke-width:2.0px;stroke-linecap:butt;stroke-linejoin:miter;stroke-opacity:1;"/>
<path d="M 59.1,98.3 L 59.7,98.0 L 60.0,98.1" style="fill:none;stroke:#000000;stroke-width:2.0px;stroke-linecap:butt;stroke-linejoin:miter;stroke-opacity:1;"/>
<path d="M 85.7,98.1 L 86.0,98.0 L 86.6,98.3" style="fill:none;stroke:#000000;stroke-width:2.0px;stroke-linecap:butt;stroke-linejoin:miter;stroke-opacity:1;"/>
<path d="M 98.4,105.2 L 99.1,105.5 L 99.7,105.2" style="fill:none;stroke:#000000;stroke-width:2.0px;stroke-linecap:butt;stroke-linejoin:miter;stroke-opacity:1;"/>
<path d="M 111.5,98.3 L 112.2,98.0 L 112.9,98.3" style="fill:none;stroke:#000000;stroke-width:2.0px;stroke-linecap:butt;stroke-linejoin:miter;stroke-opacity:1;"/>
<path d="M 124.7,105.2 L 125.3,105.5 L 126.0,105.2" style="fill:none;stroke:#000000;stroke-width:2.0px;stroke-linecap:butt;stroke-linejoin:miter;stroke-opacity:1;"/>
<path d="M 137.8,98.3 L 138.4,98.0 L 139.1,98.3" style="fill:none;stroke:#000000;stroke-width:2.0px;stroke-linecap:butt;stroke-linejoin:miter;stroke-opacity:1;"/>
<path d="M 150.9,105.2 L 151.6,105.5 L 152.2,105.2" style="fill:none;stroke:#000000;stroke-width:2.0px;stroke-linecap:butt;stroke-linejoin:miter;stroke-opacity:1;"/>
<path d="M 164.0,98.3 L 164.7,98.0 L 165.3,98.3" style="fill:none;stroke:#000000;stroke-width:2.0px;stroke-linecap:butt;stroke-linejoin:miter;stroke-opacity:1;"/>
<path d="M 177.1,105.2 L 177.8,105.5 L 178.4,105.2" style="fill:none;stroke:#000000;stroke-width:2.0px;stroke-linecap:butt;stroke-linejoin:miter;stroke-opacity:1;"/>
<path d="M 190.3,98.3 L 190.9,98.0 L 190.9,97.2" style="fill:none;stroke:#000000;stroke-width:2.0px;stroke-linecap:butt;stroke-linejoin:miter;stroke-opacity:1;"/>
<path d="M 190.3,82.4 L 190.9,82.8 L 190.9,83.6" style="fill:none;stroke:#000000;stroke-width:2.0px;stroke-linecap:butt;stroke-linejoin:miter;stroke-opacity:1;"/>
<path d="M 178.4,75.6 L 177.8,75.2 L 177.1,75.6" style="fill:none;stroke:#000000;stroke-width:2.0px;stroke-linecap:butt;stroke-linejoin:miter;stroke-opacity:1;"/>
<path d="M 165.3,82.4 L 164.7,82.8 L 164.0,82.4" style="fill:none;stroke:#000000;stroke-width:2.0px;stroke-linecap:butt;stroke-linejoin:miter;stroke-opacity:1;"/>
<path d="M 152.2,75.6 L 151.6,75.2 L 150.9,75.6" style="fill:none;stroke:#000000;stroke-width:2.0px;stroke-linecap:butt;stroke-linejoin:miter;stroke-opacity:1;"/>
<path d="M 139.1,82.4 L 138.4,82.8 L 137.8,82.4" style="fill:none;stroke:#000000;stroke-width:2.0px;stroke-linecap:butt;stroke-linejoin:miter;stroke-opacity:1;"/>
<path d="M 126.0,75.6 L 125.3,75.2 L 124.7,75.6" style="fill:none;stroke:#000000;stroke-width:2.0px;stroke-linecap:butt;stroke-linejoin:miter;stroke-opacity:1;"/>
<path class="atom-3" d="M 9.1 101.7 L 10.1 101.7 L 10.1 105.0 L 14.1 105.0 L 14.1 101.7 L 15.2 101.7 L 15.2 109.5 L 14.1 109.5 L 14.1 105.9 L 10.1 105.9 L 10.1 109.5 L 9.1 109.5 L 9.1 101.7 " fill="#FF0000"/>
<path class="atom-3" d="M 16.8 105.6 Q 16.8 103.7, 17.7 102.6 Q 18.6 101.6, 20.4 101.6 Q 22.1 101.6, 23.0 102.6 Q 24.0 103.7, 24.0 105.6 Q 24.0 107.5, 23.0 108.5 Q 22.1 109.6, 20.4 109.6 Q 18.7 109.6, 17.7 108.5 Q 16.8 107.5, 16.8 105.6 M 20.4 108.7 Q 21.6 108.7, 22.2 107.9 Q 22.9 107.1, 22.9 105.6 Q 22.9 104.0, 22.2 103.3 Q 21.6 102.5, 20.4 102.5 Q 19.2 102.5, 18.5 103.3 Q 17.9 104.0, 17.9 105.6 Q 17.9 107.1, 18.5 107.9 Q 19.2 108.7, 20.4 108.7 " fill="#FF0000"/>
<path class="atom-4" d="M 43.0 120.7 Q 43.0 118.8, 44.0 117.8 Q 44.9 116.7, 46.6 116.7 Q 48.3 116.7, 49.3 117.8 Q 50.2 118.8, 50.2 120.7 Q 50.2 122.6, 49.3 123.7 Q 48.3 124.8, 46.6 124.8 Q 44.9 124.8, 44.0 123.7 Q 43.0 122.6, 43.0 120.7 M 46.6 123.9 Q 47.8 123.9, 48.4 123.1 Q 49.1 122.3, 49.1 120.7 Q 49.1 119.2, 48.4 118.4 Q 47.8 117.6, 46.6 117.6 Q 45.4 117.6, 44.8 118.4 Q 44.1 119.2, 44.1 120.7 Q 44.1 122.3, 44.8 123.1 Q 45.4 123.9, 46.6 123.9 " fill="#FF0000"/>
<path class="atom-4" d="M 51.4 116.8 L 52.5 116.8 L 52.5 120.1 L 56.5 120.1 L 56.5 116.8 L 57.5 116.8 L 57.5 124.6 L 56.5 124.6 L 56.5 121.0 L 52.5 121.0 L 52.5 124.6 L 51.4 124.6 L 51.4 116.8 " fill="#FF0000"/>
<path class="atom-5" d="M 69.3 105.6 Q 69.3 103.7, 70.2 102.6 Q 71.1 101.6, 72.8 101.6 Q 74.6 101.6, 75.5 102.6 Q 76.4 103.7, 76.4 105.6 Q 76.4 107.5, 75.5 108.5 Q 74.6 109.6, 72.8 109.6 Q 71.1 109.6, 70.2 108.5 Q 69.3 107.5, 69.3 105.6 M 72.8 108.7 Q 74.0 108.7, 74.7 107.9 Q 75.3 107.1, 75.3 105.6 Q 75.3 104.0, 74.7 103.3 Q 74.0 102.5, 72.8 102.5 Q 71.7 102.5, 71.0 103.3 Q 70.4 104.0, 70.4 105.6 Q 70.4 107.1, 71.0 107.9 Q 71.7 108.7, 72.8 108.7 " fill="#FF0000"/>
</svg>