<svg xmlns="http://www.w3.org/2000/svg" xmlns:rdkit="http://www.rdkit.org/xml" xmlns:xlink="http://www.w3.org/1999/xlink" viewBox="44.900000000000006 58.599999999999994 110.19999999999999 82.80000000000001">
<path class="atom-0" d="M 64.9 78.9 L 68.7 78.9 L 68.7 91.0 L 83.2 91.0 L 83.2 78.9 L 87.1 78.9 L 87.1 107.2 L 83.2 107.2 L 83.2 94.2 L 68.7 94.2 L 68.7 107.2 L 64.9 107.2 L 64.9 78.9 " fill="rgb(249.62499999999997,134.87500000000003,134.87500000000003)"/>
<path class="atom-0" d="M 92.7 106.2 Q 93.4 104.5, 95.1 103.5 Q 96.7 102.5, 99.0 102.5 Q 101.8 102.5, 103.4 104.0 Q 105.0 105.6, 105.0 108.3 Q 105.0 111.1, 102.9 113.6 Q 100.9 116.2, 96.7 119.3 L 105.3 119.3 L 105.3 121.4 L 92.7 121.4 L 92.7 119.6 Q 96.2 117.1, 98.2 115.3 Q 100.3 113.5, 101.3 111.8 Q 102.3 110.1, 102.3 108.4 Q 102.3 106.6, 101.4 105.6 Q 100.5 104.6, 99.0 104.6 Q 97.5 104.6, 96.5 105.2 Q 95.5 105.8, 94.8 107.2 L 92.7 106.2 " fill="rgb(249.62499999999997,134.87500000000003,134.87500000000003)"/>
<path class="atom-0" d="M 109.1 93.0 Q 109.1 86.2, 112.5 82.4 Q 115.8 78.6, 122.1 78.6 Q 128.4 78.6, 131.7 82.4 Q 135.1 86.2, 135.1 93.0 Q 135.1 99.9, 131.7 103.8 Q 128.3 107.7, 122.1 107.7 Q 115.9 107.7, 112.5 103.8 Q 109.1 99.9, 109.1 93.0 M 122.1 104.5 Q 126.4 104.5, 128.7 101.6 Q 131.1 98.7, 131.1 93.0 Q 131.1 87.4, 128.7 84.6 Q 126.4 81.8, 122.1 81.8 Q 117.8 81.8, 115.4 84.6 Q 113.1 87.4, 113.1 93.0 Q 113.1 98.7, 115.4 101.6 Q 117.8 104.5, 122.1 104.5 " fill="rgb(249.62499999999997,134.87500000000003,134.87500000000003)"/>
</svg>