<svg xmlns="http://www.w3.org/2000/svg" xmlns:rdkit="http://www.rdkit.org/xml" xmlns:xlink="http://www.w3.org/1999/xlink" viewBox="-10.9 32.9 221.8 134.2">
<path class="bond-0 atom-0 atom-1" d="M 157.4,90.7 L 162.0,89.2" style="fill:none;fill-rule:evenodd;stroke:rgb(134.87500000000003,134.87500000000003,249.62499999999997);stroke-width:2.0px;stroke-linecap:butt;stroke-linejoin:miter;stroke-opacity:1"/>
<path class="bond-0 atom-0 atom-1" d="M 162.0,89.2 L 166.5,87.8" style="fill:none;fill-rule:evenodd;stroke:rgb(256.0,256.0,256.0);stroke-width:2.0px;stroke-linecap:butt;stroke-linejoin:miter;stroke-opacity:1"/>
<path class="bond-1 atom-2 atom-0" d="M 150.6,103.7 L 151.4,99.6 L 152.3,99.9 Z" style="fill:rgb(256.0,256.0,256.0);fill-rule:evenodd;fill-opacity:1;stroke:rgb(256.0,256.0,256.0);stroke-width:0.5px;stroke-linecap:butt;stroke-linejoin:miter;stroke-opacity:1"/>
<path class="bond-1 atom-2 atom-0" d="M 151.4,99.6 L 154.1,96.0 L 152.3,95.5 Z" style="fill:rgb(134.87500000000003,134.87500000000003,249.62499999999997);fill-rule:evenodd;fill-opacity:1;stroke:rgb(134.87500000000003,134.87500000000003,249.62499999999997);stroke-width:0.5px;stroke-linecap:butt;stroke-linejoin:miter;stroke-opacity:1"/>
<path class="bond-1 atom-2 atom-0" d="M 151.4,99.6 L 152.3,99.9 L 154.1,96.0 Z" style="fill:rgb(134.87500000000003,134.87500000000003,249.62499999999997);fill-rule:evenodd;fill-opacity:1;stroke:rgb(134.87500000000003,134.87500000000003,249.62499999999997);stroke-width:0.5px;stroke-linecap:butt;stroke-linejoin:miter;stroke-opacity:1"/>
<path class="bond-2 atom-0 atom-3" d="M 151.8,88.0 L 149.5,84.7" style="fill:none;fill-rule:evenodd;stroke:rgb(134.87500000000003,134.87500000000003,249.62499999999997);stroke-width:2.0px;stroke-linecap:butt;stroke-linejoin:miter;stroke-opacity:1"/>
<path class="bond-2 atom-0 atom-3" d="M 149.5,84.7 L 147.1,81.4" style="fill:none;fill-rule:evenodd;stroke:rgb(256.0,256.0,256.0);stroke-width:2.0px;stroke-linecap:butt;stroke-linejoin:miter;stroke-opacity:1"/>
<path class="bond-3 atom-1 atom-4" d="M 166.5,87.8 L 166.5,75.1" style="fill:none;fill-rule:evenodd;stroke:rgb(256.0,256.0,256.0);stroke-width:2.0px;stroke-linecap:butt;stroke-linejoin:miter;stroke-opacity:1"/>
<path class="bond-3 atom-1 atom-4" d="M 164.6,86.4 L 164.6,76.5" style="fill:none;fill-rule:evenodd;stroke:rgb(256.0,256.0,256.0);stroke-width:2.0px;stroke-linecap:butt;stroke-linejoin:miter;stroke-opacity:1"/>
<path class="bond-4 atom-1 atom-5" d="M 166.5,87.8 L 170.6,90.1" style="fill:none;fill-rule:evenodd;stroke:rgb(256.0,256.0,256.0);stroke-width:2.0px;stroke-linecap:butt;stroke-linejoin:miter;stroke-opacity:1"/>
<path class="bond-4 atom-1 atom-5" d="M 170.6,90.1 L 174.6,92.4" style="fill:none;fill-rule:evenodd;stroke:rgb(134.87500000000003,134.87500000000003,249.62499999999997);stroke-width:2.0px;stroke-linecap:butt;stroke-linejoin:miter;stroke-opacity:1"/>
<path class="bond-5 atom-2 atom-6" d="M 150.6,103.7 L 146.3,105.1" style="fill:none;fill-rule:evenodd;stroke:rgb(256.0,256.0,256.0);stroke-width:2.0px;stroke-linecap:butt;stroke-linejoin:miter;stroke-opacity:1"/>
<path class="bond-5 atom-2 atom-6" d="M 146.3,105.1 L 142.0,106.5" style="fill:none;fill-rule:evenodd;stroke:rgb(249.62499999999997,134.87500000000003,134.87500000000003);stroke-width:2.0px;stroke-linecap:butt;stroke-linejoin:miter;stroke-opacity:1"/>
<path class="bond-6 atom-2 atom-7" d="M 150.6,103.7 L 158.0,113.9" style="fill:none;fill-rule:evenodd;stroke:rgb(256.0,256.0,256.0);stroke-width:2.0px;stroke-linecap:butt;stroke-linejoin:miter;stroke-opacity:1"/>
<path class="bond-7 atom-3 atom-8" d="M 147.1,81.4 L 149.5,78.2" style="fill:none;fill-rule:evenodd;stroke:rgb(256.0,256.0,256.0);stroke-width:2.0px;stroke-linecap:butt;stroke-linejoin:miter;stroke-opacity:1"/>
<path class="bond-7 atom-3 atom-8" d="M 149.5,78.2 L 151.8,74.9" style="fill:none;fill-rule:evenodd;stroke:rgb(134.87500000000003,134.87500000000003,249.62499999999997);stroke-width:2.0px;stroke-linecap:butt;stroke-linejoin:miter;stroke-opacity:1"/>
<path class="bond-7 atom-3 atom-8" d="M 149.4,81.4 L 151.4,78.7" style="fill:none;fill-rule:evenodd;stroke:rgb(256.0,256.0,256.0);stroke-width:2.0px;stroke-linecap:butt;stroke-linejoin:miter;stroke-opacity:1"/>
<path class="bond-7 atom-3 atom-8" d="M 151.4,78.7 L 153.4,76.0" style="fill:none;fill-rule:evenodd;stroke:rgb(134.87500000000003,134.87500000000003,249.62499999999997);stroke-width:2.0px;stroke-linecap:butt;stroke-linejoin:miter;stroke-opacity:1"/>
<path class="bond-8 atom-4 atom-9" d="M 166.5,75.1 L 177.5,68.8" style="fill:none;fill-rule:evenodd;stroke:rgb(256.0,256.0,256.0);stroke-width:2.0px;stroke-linecap:butt;stroke-linejoin:miter;stroke-opacity:1"/>
<path class="bond-9 atom-5 atom-10" d="M 180.4,92.4 L 184.4,90.1" style="fill:none;fill-rule:evenodd;stroke:rgb(134.87500000000003,134.87500000000003,249.62499999999997);stroke-width:2.0px;stroke-linecap:butt;stroke-linejoin:miter;stroke-opacity:1"/>
<path class="bond-9 atom-5 atom-10" d="M 184.4,90.1 L 188.4,87.8" style="fill:none;fill-rule:evenodd;stroke:rgb(256.0,256.0,256.0);stroke-width:2.0px;stroke-linecap:butt;stroke-linejoin:miter;stroke-opacity:1"/>
<path class="bond-9 atom-5 atom-10" d="M 179.4,90.8 L 183.0,88.7" style="fill:none;fill-rule:evenodd;stroke:rgb(134.87500000000003,134.87500000000003,249.62499999999997);stroke-width:2.0px;stroke-linecap:butt;stroke-linejoin:miter;stroke-opacity:1"/>
<path class="bond-9 atom-5 atom-10" d="M 183.0,88.7 L 186.5,86.7" style="fill:none;fill-rule:evenodd;stroke:rgb(256.0,256.0,256.0);stroke-width:2.0px;stroke-linecap:butt;stroke-linejoin:miter;stroke-opacity:1"/>
<path class="bond-10 atom-6 atom-11" d="M 138.6,111.4 L 138.6,115.8" style="fill:none;fill-rule:evenodd;stroke:rgb(249.62499999999997,134.87500000000003,134.87500000000003);stroke-width:2.0px;stroke-linecap:butt;stroke-linejoin:miter;stroke-opacity:1"/>
<path class="bond-10 atom-6 atom-11" d="M 138.6,115.8 L 138.6,120.2" style="fill:none;fill-rule:evenodd;stroke:rgb(256.0,256.0,256.0);stroke-width:2.0px;stroke-linecap:butt;stroke-linejoin:miter;stroke-opacity:1"/>
<path class="bond-11 atom-7 atom-12" d="M 158.0,113.9 L 150.6,124.1" style="fill:none;fill-rule:evenodd;stroke:rgb(256.0,256.0,256.0);stroke-width:2.0px;stroke-linecap:butt;stroke-linejoin:miter;stroke-opacity:1"/>
<path class="bond-12 atom-7 atom-13" d="M 161.0,113.6 L 161.0,114.2" style="fill:none;fill-rule:evenodd;stroke:rgb(256.0,256.0,256.0);stroke-width:1.0px;stroke-linecap:butt;stroke-linejoin:miter;stroke-opacity:1"/>
<path class="bond-12 atom-7 atom-13" d="M 163.9,113.3 L 163.9,114.5" style="fill:none;fill-rule:evenodd;stroke:rgb(249.62499999999997,134.87500000000003,134.87500000000003);stroke-width:1.0px;stroke-linecap:butt;stroke-linejoin:miter;stroke-opacity:1"/>
<path class="bond-12 atom-7 atom-13" d="M 166.9,113.0 L 166.9,114.9" style="fill:none;fill-rule:evenodd;stroke:rgb(249.62499999999997,134.87500000000003,134.87500000000003);stroke-width:1.0px;stroke-linecap:butt;stroke-linejoin:miter;stroke-opacity:1"/>
<path class="bond-13 atom-9 atom-14" d="M 177.5,68.8 L 181.5,71.1" style="fill:none;fill-rule:evenodd;stroke:rgb(256.0,256.0,256.0);stroke-width:2.0px;stroke-linecap:butt;stroke-linejoin:miter;stroke-opacity:1"/>
<path class="bond-13 atom-9 atom-14" d="M 181.5,71.1 L 185.6,73.4" style="fill:none;fill-rule:evenodd;stroke:rgb(134.87500000000003,134.87500000000003,249.62499999999997);stroke-width:2.0px;stroke-linecap:butt;stroke-linejoin:miter;stroke-opacity:1"/>
<path class="bond-13 atom-9 atom-14" d="M 177.5,71.0 L 181.0,73.0" style="fill:none;fill-rule:evenodd;stroke:rgb(256.0,256.0,256.0);stroke-width:2.0px;stroke-linecap:butt;stroke-linejoin:miter;stroke-opacity:1"/>
<path class="bond-13 atom-9 atom-14" d="M 181.0,73.0 L 184.6,75.1" style="fill:none;fill-rule:evenodd;stroke:rgb(134.87500000000003,134.87500000000003,249.62499999999997);stroke-width:2.0px;stroke-linecap:butt;stroke-linejoin:miter;stroke-opacity:1"/>
<path class="bond-14 atom-9 atom-15" d="M 177.5,68.8 L 177.5,64.3" style="fill:none;fill-rule:evenodd;stroke:rgb(256.0,256.0,256.0);stroke-width:2.0px;stroke-linecap:butt;stroke-linejoin:miter;stroke-opacity:1"/>
<path class="bond-14 atom-9 atom-15" d="M 177.5,64.3 L 177.5,59.8" style="fill:none;fill-rule:evenodd;stroke:rgb(134.87500000000003,134.87500000000003,249.62499999999997);stroke-width:2.0px;stroke-linecap:butt;stroke-linejoin:miter;stroke-opacity:1"/>
<path class="bond-15 atom-11 atom-16" d="M 138.6,120.2 L 129.3,128.1 L 127.3,127.2 Z" style="fill:rgb(256.0,256.0,256.0);fill-rule:evenodd;fill-opacity:1;stroke:rgb(256.0,256.0,256.0);stroke-width:0.5px;stroke-linecap:butt;stroke-linejoin:miter;stroke-opacity:1"/>
<path class="bond-16 atom-12 atom-17" d="M 152.3,127.9 L 151.4,128.2" style="fill:none;fill-rule:evenodd;stroke:rgb(256.0,256.0,256.0);stroke-width:1.0px;stroke-linecap:butt;stroke-linejoin:miter;stroke-opacity:1"/>
<path class="bond-16 atom-12 atom-17" d="M 154.1,131.8 L 152.3,132.3" style="fill:none;fill-rule:evenodd;stroke:rgb(249.62499999999997,134.87500000000003,134.87500000000003);stroke-width:1.0px;stroke-linecap:butt;stroke-linejoin:miter;stroke-opacity:1"/>
<path class="bond-17 atom-16 atom-18" d="M 129.3,128.1 L 124.3,125.9" style="fill:none;fill-rule:evenodd;stroke:rgb(256.0,256.0,256.0);stroke-width:2.0px;stroke-linecap:butt;stroke-linejoin:miter;stroke-opacity:1"/>
<path class="bond-17 atom-16 atom-18" d="M 124.3,125.9 L 120.2,124.0" style="fill:none;fill-rule:evenodd;stroke:rgb(249.62499999999997,134.87500000000003,134.87500000000003);stroke-width:2.0px;stroke-linecap:butt;stroke-linejoin:miter;stroke-opacity:1"/>
<path class="bond-18 atom-19 atom-20" d="M 69.6,125.0 L 66.2,127.5" style="fill:none;fill-rule:evenodd;stroke:rgb(249.62499999999997,134.87500000000003,134.87500000000003);stroke-width:2.0px;stroke-linecap:butt;stroke-linejoin:miter;stroke-opacity:1"/>
<path class="bond-18 atom-19 atom-20" d="M 66.2,127.5 L 62.8,130.0" style="fill:none;fill-rule:evenodd;stroke:rgb(256.0,256.0,256.0);stroke-width:2.0px;stroke-linecap:butt;stroke-linejoin:miter;stroke-opacity:1"/>
<path class="bond-19 atom-21 atom-20" d="M 54.0,126.4 L 54.2,125.8" style="fill:none;fill-rule:evenodd;stroke:rgb(256.0,256.0,256.0);stroke-width:1.0px;stroke-linecap:butt;stroke-linejoin:miter;stroke-opacity:1"/>
<path class="bond-19 atom-21 atom-20" d="M 56.7,128.0 L 57.2,126.8" style="fill:none;fill-rule:evenodd;stroke:rgb(256.0,256.0,256.0);stroke-width:1.0px;stroke-linecap:butt;stroke-linejoin:miter;stroke-opacity:1"/>
<path class="bond-19 atom-21 atom-20" d="M 59.5,129.5 L 60.3,127.8" style="fill:none;fill-rule:evenodd;stroke:rgb(256.0,256.0,256.0);stroke-width:1.0px;stroke-linecap:butt;stroke-linejoin:miter;stroke-opacity:1"/>
<path class="bond-20 atom-21 atom-22" d="M 51.2,124.8 L 50.3,120.5" style="fill:none;fill-rule:evenodd;stroke:rgb(256.0,256.0,256.0);stroke-width:2.0px;stroke-linecap:butt;stroke-linejoin:miter;stroke-opacity:1"/>
<path class="bond-20 atom-21 atom-22" d="M 50.3,120.5 L 49.4,116.3" style="fill:none;fill-rule:evenodd;stroke:rgb(249.62499999999997,134.87500000000003,134.87500000000003);stroke-width:2.0px;stroke-linecap:butt;stroke-linejoin:miter;stroke-opacity:1"/>
<path class="bond-21 atom-21 atom-23" d="M 51.2,124.8 L 40.3,131.1" style="fill:none;fill-rule:evenodd;stroke:rgb(256.0,256.0,256.0);stroke-width:2.0px;stroke-linecap:butt;stroke-linejoin:miter;stroke-opacity:1"/>
<path class="bond-22 atom-22 atom-24" d="M 45.2,112.1 L 40.6,111.6" style="fill:none;fill-rule:evenodd;stroke:rgb(249.62499999999997,134.87500000000003,134.87500000000003);stroke-width:2.0px;stroke-linecap:butt;stroke-linejoin:miter;stroke-opacity:1"/>
<path class="bond-22 atom-22 atom-24" d="M 40.6,111.6 L 36.0,111.1" style="fill:none;fill-rule:evenodd;stroke:rgb(256.0,256.0,256.0);stroke-width:2.0px;stroke-linecap:butt;stroke-linejoin:miter;stroke-opacity:1"/>
<path class="bond-23 atom-23 atom-25" d="M 40.3,131.1 L 30.9,122.7" style="fill:none;fill-rule:evenodd;stroke:rgb(256.0,256.0,256.0);stroke-width:2.0px;stroke-linecap:butt;stroke-linejoin:miter;stroke-opacity:1"/>
<path class="bond-24 atom-23 atom-26" d="M 40.3,131.1 L 40.3,135.4 L 39.4,135.3 Z" style="fill:rgb(256.0,256.0,256.0);fill-rule:evenodd;fill-opacity:1;stroke:rgb(256.0,256.0,256.0);stroke-width:0.5px;stroke-linecap:butt;stroke-linejoin:miter;stroke-opacity:1"/>
<path class="bond-24 atom-23 atom-26" d="M 40.3,135.4 L 38.4,139.5 L 40.3,139.7 Z" style="fill:rgb(249.62499999999997,134.87500000000003,134.87500000000003);fill-rule:evenodd;fill-opacity:1;stroke:rgb(249.62499999999997,134.87500000000003,134.87500000000003);stroke-width:0.5px;stroke-linecap:butt;stroke-linejoin:miter;stroke-opacity:1"/>
<path class="bond-24 atom-23 atom-26" d="M 40.3,135.4 L 39.4,135.3 L 38.4,139.5 Z" style="fill:rgb(249.62499999999997,134.87500000000003,134.87500000000003);fill-rule:evenodd;fill-opacity:1;stroke:rgb(249.62499999999997,134.87500000000003,134.87500000000003);stroke-width:0.5px;stroke-linecap:butt;stroke-linejoin:miter;stroke-opacity:1"/>
<path class="bond-25 atom-24 atom-27" d="M 34.9,107.3 L 33.3,108.2" style="fill:none;fill-rule:evenodd;stroke:rgb(256.0,256.0,256.0);stroke-width:1.0px;stroke-linecap:butt;stroke-linejoin:miter;stroke-opacity:1"/>
<path class="bond-26 atom-25 atom-28" d="M 30.9,122.7 L 26.7,124.1 L 26.5,123.1 Z" style="fill:rgb(256.0,256.0,256.0);fill-rule:evenodd;fill-opacity:1;stroke:rgb(256.0,256.0,256.0);stroke-width:0.5px;stroke-linecap:butt;stroke-linejoin:miter;stroke-opacity:1"/>
<path class="bond-26 atom-25 atom-28" d="M 26.7,124.1 L 22.1,123.6 L 22.5,125.4 Z" style="fill:rgb(249.62499999999997,134.87500000000003,134.87500000000003);fill-rule:evenodd;fill-opacity:1;stroke:rgb(249.62499999999997,134.87500000000003,134.87500000000003);stroke-width:0.5px;stroke-linecap:butt;stroke-linejoin:miter;stroke-opacity:1"/>
<path class="bond-26 atom-25 atom-28" d="M 26.7,124.1 L 26.5,123.1 L 22.1,123.6 Z" style="fill:rgb(249.62499999999997,134.87500000000003,134.87500000000003);fill-rule:evenodd;fill-opacity:1;stroke:rgb(249.62499999999997,134.87500000000003,134.87500000000003);stroke-width:0.5px;stroke-linecap:butt;stroke-linejoin:miter;stroke-opacity:1"/>
<path class="bond-27 atom-27 atom-29" d="M 31.8,96.5 L 33.9,92.9" style="fill:none;fill-rule:evenodd;stroke:rgb(134.87500000000003,134.87500000000003,249.62499999999997);stroke-width:2.0px;stroke-linecap:butt;stroke-linejoin:miter;stroke-opacity:1"/>
<path class="bond-27 atom-27 atom-29" d="M 33.9,92.9 L 36.0,89.2" style="fill:none;fill-rule:evenodd;stroke:rgb(256.0,256.0,256.0);stroke-width:2.0px;stroke-linecap:butt;stroke-linejoin:miter;stroke-opacity:1"/>
<path class="bond-28 atom-27 atom-30" d="M 26.8,100.2 L 21.9,100.2" style="fill:none;fill-rule:evenodd;stroke:rgb(134.87500000000003,134.87500000000003,249.62499999999997);stroke-width:2.0px;stroke-linecap:butt;stroke-linejoin:miter;stroke-opacity:1"/>
<path class="bond-28 atom-27 atom-30" d="M 21.9,100.2 L 17.1,100.2" style="fill:none;fill-rule:evenodd;stroke:rgb(256.0,256.0,256.0);stroke-width:2.0px;stroke-linecap:butt;stroke-linejoin:miter;stroke-opacity:1"/>
<path class="bond-29 atom-29 atom-31" d="M 36.0,89.2 L 29.7,78.3" style="fill:none;fill-rule:evenodd;stroke:rgb(256.0,256.0,256.0);stroke-width:2.0px;stroke-linecap:butt;stroke-linejoin:miter;stroke-opacity:1"/>
<path class="bond-29 atom-29 atom-31" d="M 33.8,89.2 L 28.6,80.2" style="fill:none;fill-rule:evenodd;stroke:rgb(256.0,256.0,256.0);stroke-width:2.0px;stroke-linecap:butt;stroke-linejoin:miter;stroke-opacity:1"/>
<path class="bond-30 atom-30 atom-32" d="M 17.1,100.2 L 10.7,89.2" style="fill:none;fill-rule:evenodd;stroke:rgb(256.0,256.0,256.0);stroke-width:2.0px;stroke-linecap:butt;stroke-linejoin:miter;stroke-opacity:1"/>
<path class="bond-30 atom-30 atom-32" d="M 18.1,98.3 L 12.9,89.2" style="fill:none;fill-rule:evenodd;stroke:rgb(256.0,256.0,256.0);stroke-width:2.0px;stroke-linecap:butt;stroke-linejoin:miter;stroke-opacity:1"/>
<path class="bond-31 atom-31 atom-33" d="M 29.7,78.3 L 17.1,78.3" style="fill:none;fill-rule:evenodd;stroke:rgb(256.0,256.0,256.0);stroke-width:2.0px;stroke-linecap:butt;stroke-linejoin:miter;stroke-opacity:1"/>
<path class="bond-32 atom-31 atom-34" d="M 29.7,78.3 L 36.0,67.3" style="fill:none;fill-rule:evenodd;stroke:rgb(256.0,256.0,256.0);stroke-width:2.0px;stroke-linecap:butt;stroke-linejoin:miter;stroke-opacity:1"/>
<path class="bond-33 atom-34 atom-35" d="M 37.1,67.3 L 34.9,63.5" style="fill:none;fill-rule:evenodd;stroke:rgb(256.0,256.0,256.0);stroke-width:2.0px;stroke-linecap:butt;stroke-linejoin:miter;stroke-opacity:1"/>
<path class="bond-33 atom-34 atom-35" d="M 34.9,63.5 L 32.7,59.7" style="fill:none;fill-rule:evenodd;stroke:rgb(249.62499999999997,134.87500000000003,134.87500000000003);stroke-width:2.0px;stroke-linecap:butt;stroke-linejoin:miter;stroke-opacity:1"/>
<path class="bond-33 atom-34 atom-35" d="M 35.5,68.3 L 33.3,64.5" style="fill:none;fill-rule:evenodd;stroke:rgb(256.0,256.0,256.0);stroke-width:2.0px;stroke-linecap:butt;stroke-linejoin:miter;stroke-opacity:1"/>
<path class="bond-33 atom-34 atom-35" d="M 33.3,64.5 L 31.1,60.7" style="fill:none;fill-rule:evenodd;stroke:rgb(249.62499999999997,134.87500000000003,134.87500000000003);stroke-width:2.0px;stroke-linecap:butt;stroke-linejoin:miter;stroke-opacity:1"/>
<path class="bond-34 atom-34 atom-36" d="M 36.0,67.3 L 40.9,67.3" style="fill:none;fill-rule:evenodd;stroke:rgb(256.0,256.0,256.0);stroke-width:2.0px;stroke-linecap:butt;stroke-linejoin:miter;stroke-opacity:1"/>
<path class="bond-34 atom-34 atom-36" d="M 40.9,67.3 L 45.8,67.3" style="fill:none;fill-rule:evenodd;stroke:rgb(134.87500000000003,134.87500000000003,249.62499999999997);stroke-width:2.0px;stroke-linecap:butt;stroke-linejoin:miter;stroke-opacity:1"/>
<path class="bond-35 atom-4 atom-8" d="M 166.5,75.1 L 162.0,73.6" style="fill:none;fill-rule:evenodd;stroke:rgb(256.0,256.0,256.0);stroke-width:2.0px;stroke-linecap:butt;stroke-linejoin:miter;stroke-opacity:1"/>
<path class="bond-35 atom-4 atom-8" d="M 162.0,73.6 L 157.4,72.1" style="fill:none;fill-rule:evenodd;stroke:rgb(134.87500000000003,134.87500000000003,249.62499999999997);stroke-width:2.0px;stroke-linecap:butt;stroke-linejoin:miter;stroke-opacity:1"/>
<path class="bond-36 atom-10 atom-14" d="M 188.4,87.8 L 188.4,83.3" style="fill:none;fill-rule:evenodd;stroke:rgb(256.0,256.0,256.0);stroke-width:2.0px;stroke-linecap:butt;stroke-linejoin:miter;stroke-opacity:1"/>
<path class="bond-36 atom-10 atom-14" d="M 188.4,83.3 L 188.4,78.8" style="fill:none;fill-rule:evenodd;stroke:rgb(134.87500000000003,134.87500000000003,249.62499999999997);stroke-width:2.0px;stroke-linecap:butt;stroke-linejoin:miter;stroke-opacity:1"/>
<path class="bond-37 atom-11 atom-12" d="M 138.6,120.2 L 150.6,124.1" style="fill:none;fill-rule:evenodd;stroke:rgb(256.0,256.0,256.0);stroke-width:2.0px;stroke-linecap:butt;stroke-linejoin:miter;stroke-opacity:1"/>
<path class="bond-38 atom-24 atom-25" d="M 36.0,111.1 L 30.9,122.7" style="fill:none;fill-rule:evenodd;stroke:rgb(256.0,256.0,256.0);stroke-width:2.0px;stroke-linecap:butt;stroke-linejoin:miter;stroke-opacity:1"/>
<path class="bond-39 atom-32 atom-33" d="M 10.7,89.2 L 17.1,78.3" style="fill:none;fill-rule:evenodd;stroke:rgb(256.0,256.0,256.0);stroke-width:2.0px;stroke-linecap:butt;stroke-linejoin:miter;stroke-opacity:1"/>
<path class="bond-40 atom-18 atom-42" d="M 113.4,124.5 L 110.9,126.0" style="fill:none;fill-rule:evenodd;stroke:rgb(249.62499999999997,134.87500000000003,134.87500000000003);stroke-width:2.0px;stroke-linecap:butt;stroke-linejoin:miter;stroke-opacity:1"/>
<path class="bond-40 atom-18 atom-42" d="M 110.9,126.0 L 108.3,127.4" style="fill:none;fill-rule:evenodd;stroke:rgb(249.62499999999997,192.025,134.87500000000003);stroke-width:2.0px;stroke-linecap:butt;stroke-linejoin:miter;stroke-opacity:1"/>
<path class="bond-41 atom-42 atom-37" d="M 103.4,127.4 L 100.8,126.0" style="fill:none;fill-rule:evenodd;stroke:rgb(249.62499999999997,192.025,134.87500000000003);stroke-width:2.0px;stroke-linecap:butt;stroke-linejoin:miter;stroke-opacity:1"/>
<path class="bond-41 atom-42 atom-37" d="M 100.8,126.0 L 98.3,124.5" style="fill:none;fill-rule:evenodd;stroke:rgb(249.62499999999997,134.87500000000003,134.87500000000003);stroke-width:2.0px;stroke-linecap:butt;stroke-linejoin:miter;stroke-opacity:1"/>
<path class="bond-42 atom-37 atom-40" d="M 91.5,124.5 L 89.0,126.0" style="fill:none;fill-rule:evenodd;stroke:rgb(249.62499999999997,134.87500000000003,134.87500000000003);stroke-width:2.0px;stroke-linecap:butt;stroke-linejoin:miter;stroke-opacity:1"/>
<path class="bond-42 atom-37 atom-40" d="M 89.0,126.0 L 86.4,127.4" style="fill:none;fill-rule:evenodd;stroke:rgb(249.62499999999997,192.025,134.87500000000003);stroke-width:2.0px;stroke-linecap:butt;stroke-linejoin:miter;stroke-opacity:1"/>
<path class="bond-43 atom-42 atom-38" d="M 104.9,132.5 L 104.9,135.2" style="fill:none;fill-rule:evenodd;stroke:rgb(249.62499999999997,192.025,134.87500000000003);stroke-width:2.0px;stroke-linecap:butt;stroke-linejoin:miter;stroke-opacity:1"/>
<path class="bond-43 atom-42 atom-38" d="M 104.9,135.2 L 104.9,137.8" style="fill:none;fill-rule:evenodd;stroke:rgb(249.62499999999997,134.87500000000003,134.87500000000003);stroke-width:2.0px;stroke-linecap:butt;stroke-linejoin:miter;stroke-opacity:1"/>
<path class="bond-43 atom-42 atom-38" d="M 106.8,132.5 L 106.8,135.2" style="fill:none;fill-rule:evenodd;stroke:rgb(249.62499999999997,192.025,134.87500000000003);stroke-width:2.0px;stroke-linecap:butt;stroke-linejoin:miter;stroke-opacity:1"/>
<path class="bond-43 atom-42 atom-38" d="M 106.8,135.2 L 106.8,137.8" style="fill:none;fill-rule:evenodd;stroke:rgb(249.62499999999997,134.87500000000003,134.87500000000003);stroke-width:2.0px;stroke-linecap:butt;stroke-linejoin:miter;stroke-opacity:1"/>
<path class="bond-44 atom-40 atom-19" d="M 81.5,127.4 L 78.9,126.0" style="fill:none;fill-rule:evenodd;stroke:rgb(249.62499999999997,192.025,134.87500000000003);stroke-width:2.0px;stroke-linecap:butt;stroke-linejoin:miter;stroke-opacity:1"/>
<path class="bond-44 atom-40 atom-19" d="M 78.9,126.0 L 76.4,124.5" style="fill:none;fill-rule:evenodd;stroke:rgb(249.62499999999997,134.87500000000003,134.87500000000003);stroke-width:2.0px;stroke-linecap:butt;stroke-linejoin:miter;stroke-opacity:1"/>
<path class="bond-45 atom-40 atom-39" d="M 83.0,132.5 L 83.0,135.2" style="fill:none;fill-rule:evenodd;stroke:rgb(249.62499999999997,192.025,134.87500000000003);stroke-width:2.0px;stroke-linecap:butt;stroke-linejoin:miter;stroke-opacity:1"/>
<path class="bond-45 atom-40 atom-39" d="M 83.0,135.2 L 83.0,137.8" style="fill:none;fill-rule:evenodd;stroke:rgb(249.62499999999997,134.87500000000003,134.87500000000003);stroke-width:2.0px;stroke-linecap:butt;stroke-linejoin:miter;stroke-opacity:1"/>
<path class="bond-45 atom-40 atom-39" d="M 84.9,132.5 L 84.9,135.2" style="fill:none;fill-rule:evenodd;stroke:rgb(249.62499999999997,192.025,134.87500000000003);stroke-width:2.0px;stroke-linecap:butt;stroke-linejoin:miter;stroke-opacity:1"/>
<path class="bond-45 atom-40 atom-39" d="M 84.9,135.2 L 84.9,137.8" style="fill:none;fill-rule:evenodd;stroke:rgb(249.62499999999997,134.87500000000003,134.87500000000003);stroke-width:2.0px;stroke-linecap:butt;stroke-linejoin:miter;stroke-opacity:1"/>
<path class="bond-46 atom-40 atom-41" d="M 84.0,125.2 L 84.0,122.6" style="fill:none;fill-rule:evenodd;stroke:rgb(249.62499999999997,192.025,134.87500000000003);stroke-width:2.0px;stroke-linecap:butt;stroke-linejoin:miter;stroke-opacity:1"/>
<path class="bond-46 atom-40 atom-41" d="M 84.0,122.6 L 84.0,120.0" style="fill:none;fill-rule:evenodd;stroke:rgb(249.62499999999997,134.87500000000003,134.87500000000003);stroke-width:2.0px;stroke-linecap:butt;stroke-linejoin:miter;stroke-opacity:1"/>
<path class="bond-47 atom-42 atom-43" d="M 105.9,125.2 L 105.9,122.6" style="fill:none;fill-rule:evenodd;stroke:rgb(249.62499999999997,192.025,134.87500000000003);stroke-width:2.0px;stroke-linecap:butt;stroke-linejoin:miter;stroke-opacity:1"/>
<path class="bond-47 atom-42 atom-43" d="M 105.9,122.6 L 105.9,120.0" style="fill:none;fill-rule:evenodd;stroke:rgb(249.62499999999997,134.87500000000003,134.87500000000003);stroke-width:2.0px;stroke-linecap:butt;stroke-linejoin:miter;stroke-opacity:1"/>
<path d="M 150.4,103.8 L 150.6,103.7 L 151.0,104.2" style="fill:none;stroke:rgb(256.0,256.0,256.0);stroke-width:2.0px;stroke-linecap:butt;stroke-linejoin:miter;stroke-opacity:1"/>
<path d="M 147.2,81.6 L 147.1,81.4 L 147.2,81.3" style="fill:none;stroke:rgb(256.0,256.0,256.0);stroke-width:2.0px;stroke-linecap:butt;stroke-linejoin:miter;stroke-opacity:1"/>
<path d="M 157.7,113.4 L 158.0,113.9 L 157.7,114.4" style="fill:none;stroke:rgb(256.0,256.0,256.0);stroke-width:2.0px;stroke-linecap:butt;stroke-linejoin:miter;stroke-opacity:1"/>
<path d="M 188.2,87.9 L 188.4,87.8 L 188.4,87.5" style="fill:none;stroke:rgb(256.0,256.0,256.0);stroke-width:2.0px;stroke-linecap:butt;stroke-linejoin:miter;stroke-opacity:1"/>
<path d="M 138.6,120.0 L 138.6,120.2 L 139.2,120.4" style="fill:none;stroke:rgb(256.0,256.0,256.0);stroke-width:2.0px;stroke-linecap:butt;stroke-linejoin:miter;stroke-opacity:1"/>
<path d="M 151.0,123.6 L 150.6,124.1 L 150.0,124.0" style="fill:none;stroke:rgb(256.0,256.0,256.0);stroke-width:2.0px;stroke-linecap:butt;stroke-linejoin:miter;stroke-opacity:1"/>
<path d="M 51.2,124.6 L 51.2,124.8 L 50.7,125.1" style="fill:none;stroke:rgb(256.0,256.0,256.0);stroke-width:2.0px;stroke-linecap:butt;stroke-linejoin:miter;stroke-opacity:1"/>
<path d="M 40.8,130.8 L 40.3,131.1 L 39.8,130.7" style="fill:none;stroke:rgb(256.0,256.0,256.0);stroke-width:2.0px;stroke-linecap:butt;stroke-linejoin:miter;stroke-opacity:1"/>
<path d="M 36.2,111.2 L 36.0,111.1 L 35.8,111.7" style="fill:none;stroke:rgb(256.0,256.0,256.0);stroke-width:2.0px;stroke-linecap:butt;stroke-linejoin:miter;stroke-opacity:1"/>
<path d="M 31.3,123.1 L 30.9,122.7 L 31.1,122.1" style="fill:none;stroke:rgb(256.0,256.0,256.0);stroke-width:2.0px;stroke-linecap:butt;stroke-linejoin:miter;stroke-opacity:1"/>
<path d="M 35.9,89.4 L 36.0,89.2 L 35.7,88.7" style="fill:none;stroke:rgb(256.0,256.0,256.0);stroke-width:2.0px;stroke-linecap:butt;stroke-linejoin:miter;stroke-opacity:1"/>
<path d="M 17.3,100.2 L 17.1,100.2 L 16.7,99.6" style="fill:none;stroke:rgb(256.0,256.0,256.0);stroke-width:2.0px;stroke-linecap:butt;stroke-linejoin:miter;stroke-opacity:1"/>
<path d="M 11.0,89.8 L 10.7,89.2 L 11.0,88.7" style="fill:none;stroke:rgb(256.0,256.0,256.0);stroke-width:2.0px;stroke-linecap:butt;stroke-linejoin:miter;stroke-opacity:1"/>
<path d="M 17.7,78.3 L 17.1,78.3 L 16.7,78.8" style="fill:none;stroke:rgb(256.0,256.0,256.0);stroke-width:2.0px;stroke-linecap:butt;stroke-linejoin:miter;stroke-opacity:1"/>
<path d="M 35.7,67.9 L 36.0,67.3 L 36.3,67.3" style="fill:none;stroke:rgb(256.0,256.0,256.0);stroke-width:2.0px;stroke-linecap:butt;stroke-linejoin:miter;stroke-opacity:1"/>
<path class="atom-0" d="M 153.1 88.4 L 155.2 91.9 Q 155.4 92.2, 155.8 92.8 Q 156.1 93.4, 156.1 93.5 L 156.1 88.4 L 157.0 88.4 L 157.0 94.9 L 156.1 94.9 L 153.8 91.1 Q 153.5 90.7, 153.3 90.2 Q 153.0 89.7, 152.9 89.5 L 152.9 94.9 L 152.0 94.9 L 152.0 88.4 L 153.1 88.4 " fill="rgb(134.87500000000003,134.87500000000003,249.62499999999997)"/>
<path class="atom-5" d="M 176.1 90.8 L 178.2 94.3 Q 178.4 94.6, 178.7 95.2 Q 179.1 95.8, 179.1 95.9 L 179.1 90.8 L 180.0 90.8 L 180.0 97.3 L 179.1 97.3 L 176.8 93.6 Q 176.5 93.1, 176.2 92.6 Q 175.9 92.1, 175.9 92.0 L 175.9 97.3 L 175.0 97.3 L 175.0 90.8 L 176.1 90.8 " fill="rgb(134.87500000000003,134.87500000000003,249.62499999999997)"/>
<path class="atom-6" d="M 135.6 107.6 Q 135.6 106.1, 136.4 105.2 Q 137.1 104.3, 138.6 104.3 Q 140.0 104.3, 140.8 105.2 Q 141.6 106.1, 141.6 107.6 Q 141.6 109.2, 140.8 110.1 Q 140.0 111.0, 138.6 111.0 Q 137.1 111.0, 136.4 110.1 Q 135.6 109.2, 135.6 107.6 M 138.6 110.3 Q 139.6 110.3, 140.1 109.6 Q 140.7 108.9, 140.7 107.6 Q 140.7 106.3, 140.1 105.7 Q 139.6 105.0, 138.6 105.0 Q 137.6 105.0, 137.0 105.7 Q 136.5 106.3, 136.5 107.6 Q 136.5 108.9, 137.0 109.6 Q 137.6 110.3, 138.6 110.3 " fill="rgb(249.62499999999997,134.87500000000003,134.87500000000003)"/>
<path class="atom-8" d="M 153.1 67.9 L 155.2 71.4 Q 155.4 71.7, 155.8 72.4 Q 156.1 73.0, 156.1 73.0 L 156.1 67.9 L 157.0 67.9 L 157.0 74.5 L 156.1 74.5 L 153.8 70.7 Q 153.5 70.2, 153.3 69.7 Q 153.0 69.2, 152.9 69.1 L 152.9 74.5 L 152.0 74.5 L 152.0 67.9 L 153.1 67.9 " fill="rgb(134.87500000000003,134.87500000000003,249.62499999999997)"/>
<path class="atom-13" d="M 167.7 113.9 Q 167.7 112.4, 168.5 111.5 Q 169.2 110.6, 170.7 110.6 Q 172.1 110.6, 172.9 111.5 Q 173.7 112.4, 173.7 113.9 Q 173.7 115.5, 172.9 116.4 Q 172.1 117.3, 170.7 117.3 Q 169.2 117.3, 168.5 116.4 Q 167.7 115.5, 167.7 113.9 M 170.7 116.6 Q 171.7 116.6, 172.2 115.9 Q 172.8 115.2, 172.8 113.9 Q 172.8 112.7, 172.2 112.0 Q 171.7 111.4, 170.7 111.4 Q 169.7 111.4, 169.1 112.0 Q 168.6 112.6, 168.6 113.9 Q 168.6 115.3, 169.1 115.9 Q 169.7 116.6, 170.7 116.6 " fill="rgb(249.62499999999997,134.87500000000003,134.87500000000003)"/>
<path class="atom-13" d="M 174.7 110.7 L 175.6 110.7 L 175.6 113.5 L 178.9 113.5 L 178.9 110.7 L 179.8 110.7 L 179.8 117.2 L 178.9 117.2 L 178.9 114.2 L 175.6 114.2 L 175.6 117.2 L 174.7 117.2 L 174.7 110.7 " fill="rgb(249.62499999999997,134.87500000000003,134.87500000000003)"/>
<path class="atom-14" d="M 187.0 71.9 L 189.1 75.3 Q 189.3 75.6, 189.7 76.3 Q 190.0 76.9, 190.0 76.9 L 190.0 71.9 L 190.9 71.9 L 190.9 78.4 L 190.0 78.4 L 187.7 74.6 Q 187.5 74.2, 187.2 73.7 Q 186.9 73.1, 186.8 73.0 L 186.8 78.4 L 186.0 78.4 L 186.0 71.9 L 187.0 71.9 " fill="rgb(134.87500000000003,134.87500000000003,249.62499999999997)"/>
<path class="atom-15" d="M 176.1 52.9 L 178.2 56.3 Q 178.4 56.7, 178.7 57.3 Q 179.1 57.9, 179.1 57.9 L 179.1 52.9 L 180.0 52.9 L 180.0 59.4 L 179.1 59.4 L 176.8 55.6 Q 176.5 55.2, 176.2 54.7 Q 175.9 54.2, 175.9 54.0 L 175.9 59.4 L 175.0 59.4 L 175.0 52.9 L 176.1 52.9 " fill="rgb(134.87500000000003,134.87500000000003,249.62499999999997)"/>
<path class="atom-15" d="M 181.2 52.9 L 182.1 52.9 L 182.1 55.7 L 185.4 55.7 L 185.4 52.9 L 186.3 52.9 L 186.3 59.4 L 185.4 59.4 L 185.4 56.4 L 182.1 56.4 L 182.1 59.4 L 181.2 59.4 L 181.2 52.9 " fill="rgb(134.87500000000003,134.87500000000003,249.62499999999997)"/>
<path class="atom-15" d="M 187.6 59.2 Q 187.7 58.8, 188.1 58.5 Q 188.5 58.3, 189.0 58.3 Q 189.7 58.3, 190.0 58.7 Q 190.4 59.0, 190.4 59.6 Q 190.4 60.3, 189.9 60.9 Q 189.4 61.5, 188.5 62.2 L 190.5 62.2 L 190.5 62.7 L 187.6 62.7 L 187.6 62.3 Q 188.4 61.7, 188.8 61.3 Q 189.3 60.8, 189.5 60.4 Q 189.8 60.1, 189.8 59.7 Q 189.8 59.3, 189.6 59.0 Q 189.4 58.8, 189.0 58.8 Q 188.7 58.8, 188.4 58.9 Q 188.2 59.1, 188.0 59.4 L 187.6 59.2 " fill="rgb(134.87500000000003,134.87500000000003,249.62499999999997)"/>
<path class="atom-17" d="M 151.5 136.2 Q 151.5 134.6, 152.3 133.8 Q 153.1 132.9, 154.5 132.9 Q 156.0 132.9, 156.7 133.8 Q 157.5 134.6, 157.5 136.2 Q 157.5 137.8, 156.7 138.7 Q 155.9 139.6, 154.5 139.6 Q 153.1 139.6, 152.3 138.7 Q 151.5 137.8, 151.5 136.2 M 154.5 138.8 Q 155.5 138.8, 156.0 138.2 Q 156.6 137.5, 156.6 136.2 Q 156.6 134.9, 156.0 134.3 Q 155.5 133.6, 154.5 133.6 Q 153.5 133.6, 153.0 134.3 Q 152.4 134.9, 152.4 136.2 Q 152.4 137.5, 153.0 138.2 Q 153.5 138.8, 154.5 138.8 " fill="rgb(249.62499999999997,134.87500000000003,134.87500000000003)"/>
<path class="atom-17" d="M 158.5 133.0 L 159.4 133.0 L 159.4 135.7 L 162.7 135.7 L 162.7 133.0 L 163.6 133.0 L 163.6 139.5 L 162.7 139.5 L 162.7 136.5 L 159.4 136.5 L 159.4 139.5 L 158.5 139.5 L 158.5 133.0 " fill="rgb(249.62499999999997,134.87500000000003,134.87500000000003)"/>
<path class="atom-18" d="M 113.8 122.5 Q 113.8 121.0, 114.6 120.1 Q 115.4 119.2, 116.8 119.2 Q 118.2 119.2, 119.0 120.1 Q 119.8 121.0, 119.8 122.5 Q 119.8 124.1, 119.0 125.0 Q 118.2 125.9, 116.8 125.9 Q 115.4 125.9, 114.6 125.0 Q 113.8 124.1, 113.8 122.5 M 116.8 125.2 Q 117.8 125.2, 118.3 124.5 Q 118.9 123.9, 118.9 122.5 Q 118.9 121.3, 118.3 120.6 Q 117.8 120.0, 116.8 120.0 Q 115.8 120.0, 115.3 120.6 Q 114.7 121.3, 114.7 122.5 Q 114.7 123.9, 115.3 124.5 Q 115.8 125.2, 116.8 125.2 " fill="rgb(249.62499999999997,134.87500000000003,134.87500000000003)"/>
<path class="atom-19" d="M 70.0 122.5 Q 70.0 121.0, 70.8 120.1 Q 71.6 119.2, 73.0 119.2 Q 74.4 119.2, 75.2 120.1 Q 76.0 121.0, 76.0 122.5 Q 76.0 124.1, 75.2 125.0 Q 74.4 125.9, 73.0 125.9 Q 71.6 125.9, 70.8 125.0 Q 70.0 124.1, 70.0 122.5 M 73.0 125.2 Q 74.0 125.2, 74.5 124.5 Q 75.1 123.9, 75.1 122.5 Q 75.1 121.3, 74.5 120.6 Q 74.0 120.0, 73.0 120.0 Q 72.0 120.0, 71.5 120.6 Q 70.9 121.3, 70.9 122.5 Q 70.9 123.9, 71.5 124.5 Q 72.0 125.2, 73.0 125.2 " fill="rgb(249.62499999999997,134.87500000000003,134.87500000000003)"/>
<path class="atom-22" d="M 45.6 112.5 Q 45.6 110.9, 46.4 110.0 Q 47.2 109.2, 48.6 109.2 Q 50.0 109.2, 50.8 110.0 Q 51.6 110.9, 51.6 112.5 Q 51.6 114.1, 50.8 115.0 Q 50.0 115.8, 48.6 115.8 Q 47.2 115.8, 46.4 115.0 Q 45.6 114.1, 45.6 112.5 M 48.6 115.1 Q 49.6 115.1, 50.1 114.4 Q 50.7 113.8, 50.7 112.5 Q 50.7 111.2, 50.1 110.5 Q 49.6 109.9, 48.6 109.9 Q 47.6 109.9, 47.1 110.5 Q 46.5 111.2, 46.5 112.5 Q 46.5 113.8, 47.1 114.4 Q 47.6 115.1, 48.6 115.1 " fill="rgb(249.62499999999997,134.87500000000003,134.87500000000003)"/>
<path class="atom-26" d="M 36.0 143.7 Q 36.0 142.2, 36.7 141.3 Q 37.5 140.4, 39.0 140.4 Q 40.4 140.4, 41.2 141.3 Q 41.9 142.2, 41.9 143.7 Q 41.9 145.3, 41.2 146.2 Q 40.4 147.1, 39.0 147.1 Q 37.5 147.1, 36.7 146.2 Q 36.0 145.3, 36.0 143.7 M 39.0 146.4 Q 39.9 146.4, 40.5 145.7 Q 41.0 145.0, 41.0 143.7 Q 41.0 142.5, 40.5 141.8 Q 39.9 141.2, 39.0 141.2 Q 38.0 141.2, 37.4 141.8 Q 36.9 142.4, 36.9 143.7 Q 36.9 145.0, 37.4 145.7 Q 38.0 146.4, 39.0 146.4 " fill="rgb(249.62499999999997,134.87500000000003,134.87500000000003)"/>
<path class="atom-26" d="M 43.0 140.5 L 43.8 140.5 L 43.8 143.3 L 47.2 143.3 L 47.2 140.5 L 48.0 140.5 L 48.0 147.0 L 47.2 147.0 L 47.2 144.0 L 43.8 144.0 L 43.8 147.0 L 43.0 147.0 L 43.0 140.5 " fill="rgb(249.62499999999997,134.87500000000003,134.87500000000003)"/>
<path class="atom-27" d="M 28.3 96.9 L 30.4 100.4 Q 30.6 100.7, 30.9 101.3 Q 31.3 101.9, 31.3 102.0 L 31.3 96.9 L 32.2 96.9 L 32.2 103.4 L 31.3 103.4 L 29.0 99.7 Q 28.7 99.2, 28.4 98.7 Q 28.2 98.2, 28.1 98.1 L 28.1 103.4 L 27.2 103.4 L 27.2 96.9 L 28.3 96.9 " fill="rgb(134.87500000000003,134.87500000000003,249.62499999999997)"/>
<path class="atom-28" d="M 9.1 122.1 L 10.0 122.1 L 10.0 124.9 L 13.3 124.9 L 13.3 122.1 L 14.2 122.1 L 14.2 128.6 L 13.3 128.6 L 13.3 125.6 L 10.0 125.6 L 10.0 128.6 L 9.1 128.6 L 9.1 122.1 " fill="rgb(249.62499999999997,134.87500000000003,134.87500000000003)"/>
<path class="atom-28" d="M 15.5 125.3 Q 15.5 123.8, 16.3 122.9 Q 17.1 122.0, 18.5 122.0 Q 20.0 122.0, 20.7 122.9 Q 21.5 123.8, 21.5 125.3 Q 21.5 126.9, 20.7 127.8 Q 19.9 128.7, 18.5 128.7 Q 17.1 128.7, 16.3 127.8 Q 15.5 126.9, 15.5 125.3 M 18.5 128.0 Q 19.5 128.0, 20.0 127.3 Q 20.6 126.6, 20.6 125.3 Q 20.6 124.0, 20.0 123.4 Q 19.5 122.8, 18.5 122.8 Q 17.5 122.8, 17.0 123.4 Q 16.4 124.0, 16.4 125.3 Q 16.4 126.6, 17.0 127.3 Q 17.5 128.0, 18.5 128.0 " fill="rgb(249.62499999999997,134.87500000000003,134.87500000000003)"/>
<path class="atom-35" d="M 26.7 56.4 Q 26.7 54.8, 27.5 54.0 Q 28.3 53.1, 29.7 53.1 Q 31.1 53.1, 31.9 54.0 Q 32.7 54.8, 32.7 56.4 Q 32.7 58.0, 31.9 58.9 Q 31.1 59.8, 29.7 59.8 Q 28.3 59.8, 27.5 58.9 Q 26.7 58.0, 26.7 56.4 M 29.7 59.0 Q 30.7 59.0, 31.2 58.4 Q 31.8 57.7, 31.8 56.4 Q 31.8 55.1, 31.2 54.5 Q 30.7 53.8, 29.7 53.8 Q 28.7 53.8, 28.2 54.5 Q 27.6 55.1, 27.6 56.4 Q 27.6 57.7, 28.2 58.4 Q 28.7 59.0, 29.7 59.0 " fill="rgb(249.62499999999997,134.87500000000003,134.87500000000003)"/>
<path class="atom-36" d="M 47.2 64.1 L 49.4 67.5 Q 49.6 67.9, 49.9 68.5 Q 50.3 69.1, 50.3 69.1 L 50.3 64.1 L 51.1 64.1 L 51.1 70.6 L 50.2 70.6 L 48.0 66.8 Q 47.7 66.4, 47.4 65.9 Q 47.1 65.4, 47.0 65.2 L 47.0 70.6 L 46.2 70.6 L 46.2 64.1 L 47.2 64.1 " fill="rgb(134.87500000000003,134.87500000000003,249.62499999999997)"/>
<path class="atom-36" d="M 52.4 64.1 L 53.3 64.1 L 53.3 66.8 L 56.6 66.8 L 56.6 64.1 L 57.5 64.1 L 57.5 70.6 L 56.6 70.6 L 56.6 67.6 L 53.3 67.6 L 53.3 70.6 L 52.4 70.6 L 52.4 64.1 " fill="rgb(134.87500000000003,134.87500000000003,249.62499999999997)"/>
<path class="atom-36" d="M 58.7 70.4 Q 58.9 69.9, 59.3 69.7 Q 59.7 69.5, 60.2 69.5 Q 60.8 69.5, 61.2 69.8 Q 61.6 70.2, 61.6 70.8 Q 61.6 71.5, 61.1 72.1 Q 60.6 72.7, 59.6 73.4 L 61.6 73.4 L 61.6 73.8 L 58.7 73.8 L 58.7 73.4 Q 59.5 72.9, 60.0 72.4 Q 60.5 72.0, 60.7 71.6 Q 60.9 71.2, 60.9 70.9 Q 60.9 70.4, 60.7 70.2 Q 60.5 70.0, 60.2 70.0 Q 59.8 70.0, 59.6 70.1 Q 59.4 70.3, 59.2 70.6 L 58.7 70.4 " fill="rgb(134.87500000000003,134.87500000000003,249.62499999999997)"/>
<path class="atom-37" d="M 91.9 122.5 Q 91.9 121.0, 92.7 120.1 Q 93.5 119.2, 94.9 119.2 Q 96.3 119.2, 97.1 120.1 Q 97.9 121.0, 97.9 122.5 Q 97.9 124.1, 97.1 125.0 Q 96.3 125.9, 94.9 125.9 Q 93.5 125.9, 92.7 125.0 Q 91.9 124.1, 91.9 122.5 M 94.9 125.2 Q 95.9 125.2, 96.4 124.5 Q 97.0 123.9, 97.0 122.5 Q 97.0 121.3, 96.4 120.6 Q 95.9 120.0, 94.9 120.0 Q 93.9 120.0, 93.4 120.6 Q 92.8 121.3, 92.8 122.5 Q 92.8 123.9, 93.4 124.5 Q 93.9 125.2, 94.9 125.2 " fill="rgb(249.62499999999997,134.87500000000003,134.87500000000003)"/>
<path class="atom-38" d="M 102.9 141.5 Q 102.9 139.9, 103.6 139.1 Q 104.4 138.2, 105.9 138.2 Q 107.3 138.2, 108.1 139.1 Q 108.8 139.9, 108.8 141.5 Q 108.8 143.1, 108.1 144.0 Q 107.3 144.9, 105.9 144.9 Q 104.4 144.9, 103.6 144.0 Q 102.9 143.1, 102.9 141.5 M 105.9 144.2 Q 106.8 144.2, 107.4 143.5 Q 107.9 142.8, 107.9 141.5 Q 107.9 140.2, 107.4 139.6 Q 106.8 138.9, 105.9 138.9 Q 104.9 138.9, 104.3 139.6 Q 103.8 140.2, 103.8 141.5 Q 103.8 142.8, 104.3 143.5 Q 104.9 144.2, 105.9 144.2 " fill="rgb(249.62499999999997,134.87500000000003,134.87500000000003)"/>
<path class="atom-39" d="M 81.0 141.5 Q 81.0 140.0, 81.7 139.1 Q 82.5 138.2, 84.0 138.2 Q 85.4 138.2, 86.2 139.1 Q 86.9 140.0, 86.9 141.5 Q 86.9 143.1, 86.2 144.0 Q 85.4 144.9, 84.0 144.9 Q 82.5 144.9, 81.7 144.0 Q 81.0 143.1, 81.0 141.5 M 84.0 144.2 Q 84.9 144.2, 85.5 143.5 Q 86.0 142.8, 86.0 141.5 Q 86.0 140.2, 85.5 139.6 Q 84.9 138.9, 84.0 138.9 Q 83.0 138.9, 82.4 139.6 Q 81.9 140.2, 81.9 141.5 Q 81.9 142.8, 82.4 143.5 Q 83.0 144.2, 84.0 144.2 " fill="rgb(249.62499999999997,134.87500000000003,134.87500000000003)"/>
<path class="atom-40" d="M 83.8 125.6 Q 84.9 125.6, 85.5 126.1 Q 86.0 126.6, 86.0 127.5 Q 86.0 128.4, 85.5 128.9 Q 84.9 129.4, 83.8 129.4 L 82.8 129.4 L 82.8 132.1 L 81.9 132.1 L 81.9 125.6 L 83.8 125.6 M 83.8 128.7 Q 84.4 128.7, 84.8 128.4 Q 85.1 128.1, 85.1 127.5 Q 85.1 126.9, 84.8 126.6 Q 84.4 126.3, 83.8 126.3 L 82.8 126.3 L 82.8 128.7 L 83.8 128.7 " fill="rgb(249.62499999999997,192.025,134.87500000000003)"/>
<path class="atom-41" d="M 81.0 116.2 Q 81.0 114.7, 81.7 113.8 Q 82.5 112.9, 84.0 112.9 Q 85.4 112.9, 86.2 113.8 Q 86.9 114.7, 86.9 116.2 Q 86.9 117.8, 86.2 118.7 Q 85.4 119.6, 84.0 119.6 Q 82.5 119.6, 81.7 118.7 Q 81.0 117.8, 81.0 116.2 M 84.0 118.9 Q 84.9 118.9, 85.5 118.2 Q 86.0 117.5, 86.0 116.2 Q 86.0 114.9, 85.5 114.3 Q 84.9 113.7, 84.0 113.7 Q 83.0 113.7, 82.4 114.3 Q 81.9 114.9, 81.9 116.2 Q 81.9 117.5, 82.4 118.2 Q 83.0 118.9, 84.0 118.9 " fill="rgb(249.62499999999997,134.87500000000003,134.87500000000003)"/>
<path class="atom-41" d="M 87.9 114.0 L 90.1 114.0 L 90.1 114.5 L 87.9 114.5 L 87.9 114.0 " fill="rgb(249.62499999999997,134.87500000000003,134.87500000000003)"/>
<path class="atom-42" d="M 105.7 125.6 Q 106.8 125.6, 107.4 126.1 Q 107.9 126.6, 107.9 127.5 Q 107.9 128.4, 107.4 128.9 Q 106.8 129.4, 105.7 129.4 L 104.7 129.4 L 104.7 132.1 L 103.8 132.1 L 103.8 125.6 L 105.7 125.6 M 105.7 128.7 Q 106.3 128.7, 106.7 128.4 Q 107.0 128.1, 107.0 127.5 Q 107.0 126.9, 106.7 126.6 Q 106.3 126.3, 105.7 126.3 L 104.7 126.3 L 104.7 128.7 L 105.7 128.7 " fill="rgb(249.62499999999997,192.025,134.87500000000003)"/>
<path class="atom-43" d="M 102.9 116.2 Q 102.9 114.7, 103.6 113.8 Q 104.4 112.9, 105.9 112.9 Q 107.3 112.9, 108.1 113.8 Q 108.8 114.7, 108.8 116.2 Q 108.8 117.8, 108.1 118.7 Q 107.3 119.6, 105.9 119.6 Q 104.4 119.6, 103.6 118.7 Q 102.9 117.8, 102.9 116.2 M 105.9 118.9 Q 106.8 118.9, 107.4 118.2 Q 107.9 117.5, 107.9 116.2 Q 107.9 114.9, 107.4 114.3 Q 106.8 113.7, 105.9 113.7 Q 104.9 113.7, 104.3 114.3 Q 103.8 114.9, 103.8 116.2 Q 103.8 117.5, 104.3 118.2 Q 104.9 118.9, 105.9 118.9 " fill="rgb(249.62499999999997,134.87500000000003,134.87500000000003)"/>
<path class="atom-43" d="M 109.8 114.0 L 112.0 114.0 L 112.0 114.5 L 109.8 114.5 L 109.8 114.0 " fill="rgb(249.62499999999997,134.87500000000003,134.87500000000003)"/>
</svg>