<svg xmlns="http://www.w3.org/2000/svg" xmlns:rdkit="http://www.rdkit.org/xml" xmlns:xlink="http://www.w3.org/1999/xlink" viewBox="14.700000000000003 -10.9 170.60000000000002 221.8">
<path class="bond-0 atom-0 atom-1" d="M 39.0,54.5 L 39.0,62.4" style="fill:none;fill-rule:evenodd;stroke:#0000FF;stroke-width:2.0px;stroke-linecap:butt;stroke-linejoin:miter;stroke-opacity:1"/>
<path class="bond-0 atom-0 atom-1" d="M 39.0,62.4 L 39.0,70.3" style="fill:none;fill-rule:evenodd;stroke:#000000;stroke-width:2.0px;stroke-linecap:butt;stroke-linejoin:miter;stroke-opacity:1"/>
<path class="bond-0 atom-0 atom-1" d="M 42.4,54.5 L 42.4,61.4" style="fill:none;fill-rule:evenodd;stroke:#0000FF;stroke-width:2.0px;stroke-linecap:butt;stroke-linejoin:miter;stroke-opacity:1"/>
<path class="bond-0 atom-0 atom-1" d="M 42.4,61.4 L 42.4,68.3" style="fill:none;fill-rule:evenodd;stroke:#000000;stroke-width:2.0px;stroke-linecap:butt;stroke-linejoin:miter;stroke-opacity:1"/>
<path class="bond-1 atom-2 atom-20" d="M 77.4,48.1 L 85.5,45.5" style="fill:none;fill-rule:evenodd;stroke:#000000;stroke-width:2.0px;stroke-linecap:butt;stroke-linejoin:miter;stroke-opacity:1"/>
<path class="bond-1 atom-2 atom-20" d="M 85.5,45.5 L 93.5,42.9" style="fill:none;fill-rule:evenodd;stroke:#0000FF;stroke-width:2.0px;stroke-linecap:butt;stroke-linejoin:miter;stroke-opacity:1"/>
<path class="bond-2 atom-2 atom-3" d="M 77.4,48.1 L 77.4,70.3" style="fill:none;fill-rule:evenodd;stroke:#000000;stroke-width:2.0px;stroke-linecap:butt;stroke-linejoin:miter;stroke-opacity:1"/>
<path class="bond-3 atom-3 atom-18" d="M 77.4,70.3 L 85.5,72.9" style="fill:none;fill-rule:evenodd;stroke:#000000;stroke-width:2.0px;stroke-linecap:butt;stroke-linejoin:miter;stroke-opacity:1"/>
<path class="bond-3 atom-3 atom-18" d="M 85.5,72.9 L 93.5,75.5" style="fill:none;fill-rule:evenodd;stroke:#0000FF;stroke-width:2.0px;stroke-linecap:butt;stroke-linejoin:miter;stroke-opacity:1"/>
<path class="bond-4 atom-4 atom-0" d="M 58.2,37.0 L 51.1,41.1" style="fill:none;fill-rule:evenodd;stroke:#000000;stroke-width:2.0px;stroke-linecap:butt;stroke-linejoin:miter;stroke-opacity:1"/>
<path class="bond-4 atom-4 atom-0" d="M 51.1,41.1 L 44.1,45.2" style="fill:none;fill-rule:evenodd;stroke:#0000FF;stroke-width:2.0px;stroke-linecap:butt;stroke-linejoin:miter;stroke-opacity:1"/>
<path class="bond-5 atom-2 atom-4" d="M 77.4,48.1 L 58.2,37.0" style="fill:none;fill-rule:evenodd;stroke:#000000;stroke-width:2.0px;stroke-linecap:butt;stroke-linejoin:miter;stroke-opacity:1"/>
<path class="bond-5 atom-2 atom-4" d="M 74.1,50.0 L 58.2,40.9" style="fill:none;fill-rule:evenodd;stroke:#000000;stroke-width:2.0px;stroke-linecap:butt;stroke-linejoin:miter;stroke-opacity:1"/>
<path class="bond-6 atom-21 atom-4" d="M 58.2,21.3 L 58.2,29.1" style="fill:none;fill-rule:evenodd;stroke:#0000FF;stroke-width:2.0px;stroke-linecap:butt;stroke-linejoin:miter;stroke-opacity:1"/>
<path class="bond-6 atom-21 atom-4" d="M 58.2,29.1 L 58.2,37.0" style="fill:none;fill-rule:evenodd;stroke:#000000;stroke-width:2.0px;stroke-linecap:butt;stroke-linejoin:miter;stroke-opacity:1"/>
<path class="bond-7 atom-5 atom-1" d="M 53.1,78.4 L 46.1,74.4" style="fill:none;fill-rule:evenodd;stroke:#0000FF;stroke-width:2.0px;stroke-linecap:butt;stroke-linejoin:miter;stroke-opacity:1"/>
<path class="bond-7 atom-5 atom-1" d="M 46.1,74.4 L 39.0,70.3" style="fill:none;fill-rule:evenodd;stroke:#000000;stroke-width:2.0px;stroke-linecap:butt;stroke-linejoin:miter;stroke-opacity:1"/>
<path class="bond-8 atom-3 atom-5" d="M 77.4,70.3 L 70.4,74.4" style="fill:none;fill-rule:evenodd;stroke:#000000;stroke-width:2.0px;stroke-linecap:butt;stroke-linejoin:miter;stroke-opacity:1"/>
<path class="bond-8 atom-3 atom-5" d="M 70.4,74.4 L 63.3,78.4" style="fill:none;fill-rule:evenodd;stroke:#0000FF;stroke-width:2.0px;stroke-linecap:butt;stroke-linejoin:miter;stroke-opacity:1"/>
<path class="bond-8 atom-3 atom-5" d="M 74.1,68.3 L 67.8,71.9" style="fill:none;fill-rule:evenodd;stroke:#000000;stroke-width:2.0px;stroke-linecap:butt;stroke-linejoin:miter;stroke-opacity:1"/>
<path class="bond-8 atom-3 atom-5" d="M 67.8,71.9 L 61.6,75.5" style="fill:none;fill-rule:evenodd;stroke:#0000FF;stroke-width:2.0px;stroke-linecap:butt;stroke-linejoin:miter;stroke-opacity:1"/>
<path class="bond-9 atom-6 atom-18" d="M 105.4,98.2 L 102.3,91.6 L 103.9,91.0 Z" style="fill:#000000;fill-rule:evenodd;fill-opacity:1;stroke:#000000;stroke-width:0.5px;stroke-linecap:butt;stroke-linejoin:miter;stroke-opacity:1;"/>
<path class="bond-9 atom-6 atom-18" d="M 102.3,91.6 L 102.5,83.8 L 99.3,84.9 Z" style="fill:#0000FF;fill-rule:evenodd;fill-opacity:1;stroke:#0000FF;stroke-width:0.5px;stroke-linecap:butt;stroke-linejoin:miter;stroke-opacity:1;"/>
<path class="bond-9 atom-6 atom-18" d="M 102.3,91.6 L 103.9,91.0 L 102.5,83.8 Z" style="fill:#0000FF;fill-rule:evenodd;fill-opacity:1;stroke:#0000FF;stroke-width:0.5px;stroke-linecap:butt;stroke-linejoin:miter;stroke-opacity:1;"/>
<path class="bond-10 atom-7 atom-6" d="M 97.1,109.7 L 101.2,104.0" style="fill:none;fill-rule:evenodd;stroke:#FF0000;stroke-width:2.0px;stroke-linecap:butt;stroke-linejoin:miter;stroke-opacity:1"/>
<path class="bond-10 atom-7 atom-6" d="M 101.2,104.0 L 105.4,98.2" style="fill:none;fill-rule:evenodd;stroke:#000000;stroke-width:2.0px;stroke-linecap:butt;stroke-linejoin:miter;stroke-opacity:1"/>
<path class="bond-11 atom-6 atom-10" d="M 105.4,98.2 L 126.5,105.1" style="fill:none;fill-rule:evenodd;stroke:#000000;stroke-width:2.0px;stroke-linecap:butt;stroke-linejoin:miter;stroke-opacity:1"/>
<path class="bond-12 atom-8 atom-7" d="M 105.4,134.2 L 101.3,128.5" style="fill:none;fill-rule:evenodd;stroke:#000000;stroke-width:2.0px;stroke-linecap:butt;stroke-linejoin:miter;stroke-opacity:1"/>
<path class="bond-12 atom-8 atom-7" d="M 101.3,128.5 L 97.2,122.9" style="fill:none;fill-rule:evenodd;stroke:#FF0000;stroke-width:2.0px;stroke-linecap:butt;stroke-linejoin:miter;stroke-opacity:1"/>
<path class="bond-13 atom-8 atom-13" d="M 105.4,134.2 L 100.8,155.9" style="fill:none;fill-rule:evenodd;stroke:#000000;stroke-width:2.0px;stroke-linecap:butt;stroke-linejoin:miter;stroke-opacity:1"/>
<path class="bond-14 atom-8 atom-9" d="M 105.4,134.2 L 126.5,127.3" style="fill:none;fill-rule:evenodd;stroke:#000000;stroke-width:2.0px;stroke-linecap:butt;stroke-linejoin:miter;stroke-opacity:1"/>
<path class="bond-15 atom-9 atom-12" d="M 126.5,127.3 L 131.8,132.0" style="fill:none;fill-rule:evenodd;stroke:#000000;stroke-width:2.0px;stroke-linecap:butt;stroke-linejoin:miter;stroke-opacity:1"/>
<path class="bond-15 atom-9 atom-12" d="M 131.8,132.0 L 137.0,136.7" style="fill:none;fill-rule:evenodd;stroke:#FF0000;stroke-width:2.0px;stroke-linecap:butt;stroke-linejoin:miter;stroke-opacity:1"/>
<path class="bond-16 atom-9 atom-10" d="M 126.5,127.3 L 126.5,105.1" style="fill:none;fill-rule:evenodd;stroke:#000000;stroke-width:2.0px;stroke-linecap:butt;stroke-linejoin:miter;stroke-opacity:1"/>
<path class="bond-17 atom-10 atom-11" d="M 129.1,102.7 L 129.6,103.4" style="fill:none;fill-rule:evenodd;stroke:#000000;stroke-width:1.0px;stroke-linecap:butt;stroke-linejoin:miter;stroke-opacity:1"/>
<path class="bond-17 atom-10 atom-11" d="M 131.6,100.3 L 132.6,101.7" style="fill:none;fill-rule:evenodd;stroke:#000000;stroke-width:1.0px;stroke-linecap:butt;stroke-linejoin:miter;stroke-opacity:1"/>
<path class="bond-17 atom-10 atom-11" d="M 134.2,98.0 L 135.7,100.0" style="fill:none;fill-rule:evenodd;stroke:#FF0000;stroke-width:1.0px;stroke-linecap:butt;stroke-linejoin:miter;stroke-opacity:1"/>
<path class="bond-17 atom-10 atom-11" d="M 136.7,95.6 L 138.7,98.3" style="fill:none;fill-rule:evenodd;stroke:#FF0000;stroke-width:1.0px;stroke-linecap:butt;stroke-linejoin:miter;stroke-opacity:1"/>
<path class="bond-18 atom-12 atom-16" d="M 141.6,148.8 L 140.7,153.1" style="fill:none;fill-rule:evenodd;stroke:#FF0000;stroke-width:2.0px;stroke-linecap:butt;stroke-linejoin:miter;stroke-opacity:1"/>
<path class="bond-18 atom-12 atom-16" d="M 140.7,153.1 L 139.8,157.4" style="fill:none;fill-rule:evenodd;stroke:#FF7F00;stroke-width:2.0px;stroke-linecap:butt;stroke-linejoin:miter;stroke-opacity:1"/>
<path class="bond-19 atom-14 atom-13" d="M 111.3,165.3 L 106.0,160.6" style="fill:none;fill-rule:evenodd;stroke:#FF0000;stroke-width:2.0px;stroke-linecap:butt;stroke-linejoin:miter;stroke-opacity:1"/>
<path class="bond-19 atom-14 atom-13" d="M 106.0,160.6 L 100.8,155.9" style="fill:none;fill-rule:evenodd;stroke:#000000;stroke-width:2.0px;stroke-linecap:butt;stroke-linejoin:miter;stroke-opacity:1"/>
<path class="bond-20 atom-16 atom-14" d="M 134.0,165.3 L 128.6,167.0" style="fill:none;fill-rule:evenodd;stroke:#FF7F00;stroke-width:2.0px;stroke-linecap:butt;stroke-linejoin:miter;stroke-opacity:1"/>
<path class="bond-20 atom-16 atom-14" d="M 128.6,167.0 L 123.3,168.8" style="fill:none;fill-rule:evenodd;stroke:#FF0000;stroke-width:2.0px;stroke-linecap:butt;stroke-linejoin:miter;stroke-opacity:1"/>
<path class="bond-21 atom-16 atom-15" d="M 142.4,166.4 L 148.1,167.6" style="fill:none;fill-rule:evenodd;stroke:#FF7F00;stroke-width:2.0px;stroke-linecap:butt;stroke-linejoin:miter;stroke-opacity:1"/>
<path class="bond-21 atom-16 atom-15" d="M 148.1,167.6 L 153.7,168.8" style="fill:none;fill-rule:evenodd;stroke:#FF0000;stroke-width:2.0px;stroke-linecap:butt;stroke-linejoin:miter;stroke-opacity:1"/>
<path class="bond-21 atom-16 atom-15" d="M 143.1,163.1 L 148.8,164.3" style="fill:none;fill-rule:evenodd;stroke:#FF7F00;stroke-width:2.0px;stroke-linecap:butt;stroke-linejoin:miter;stroke-opacity:1"/>
<path class="bond-21 atom-16 atom-15" d="M 148.8,164.3 L 154.5,165.5" style="fill:none;fill-rule:evenodd;stroke:#FF0000;stroke-width:2.0px;stroke-linecap:butt;stroke-linejoin:miter;stroke-opacity:1"/>
<path class="bond-22 atom-16 atom-17" d="M 140.5,170.3 L 141.8,174.4" style="fill:none;fill-rule:evenodd;stroke:#FF7F00;stroke-width:2.0px;stroke-linecap:butt;stroke-linejoin:miter;stroke-opacity:1"/>
<path class="bond-22 atom-16 atom-17" d="M 141.8,174.4 L 143.1,178.4" style="fill:none;fill-rule:evenodd;stroke:#FF0000;stroke-width:2.0px;stroke-linecap:butt;stroke-linejoin:miter;stroke-opacity:1"/>
<path class="bond-23 atom-19 atom-18" d="M 111.6,59.2 L 107.4,64.9" style="fill:none;fill-rule:evenodd;stroke:#000000;stroke-width:2.0px;stroke-linecap:butt;stroke-linejoin:miter;stroke-opacity:1"/>
<path class="bond-23 atom-19 atom-18" d="M 107.4,64.9 L 103.2,70.7" style="fill:none;fill-rule:evenodd;stroke:#0000FF;stroke-width:2.0px;stroke-linecap:butt;stroke-linejoin:miter;stroke-opacity:1"/>
<path class="bond-24 atom-20 atom-19" d="M 103.2,47.7 L 107.4,53.4" style="fill:none;fill-rule:evenodd;stroke:#0000FF;stroke-width:2.0px;stroke-linecap:butt;stroke-linejoin:miter;stroke-opacity:1"/>
<path class="bond-24 atom-20 atom-19" d="M 107.4,53.4 L 111.6,59.2" style="fill:none;fill-rule:evenodd;stroke:#000000;stroke-width:2.0px;stroke-linecap:butt;stroke-linejoin:miter;stroke-opacity:1"/>
<path class="bond-24 atom-20 atom-19" d="M 100.5,49.7 L 104.0,54.4" style="fill:none;fill-rule:evenodd;stroke:#0000FF;stroke-width:2.0px;stroke-linecap:butt;stroke-linejoin:miter;stroke-opacity:1"/>
<path class="bond-24 atom-20 atom-19" d="M 104.0,54.4 L 107.4,59.2" style="fill:none;fill-rule:evenodd;stroke:#000000;stroke-width:2.0px;stroke-linecap:butt;stroke-linejoin:miter;stroke-opacity:1"/>
<path class="bond-25 atom-8 atom-22" d="M 102.1,135.1 L 101.9,134.6" style="fill:none;fill-rule:evenodd;stroke:#000000;stroke-width:1.0px;stroke-linecap:butt;stroke-linejoin:miter;stroke-opacity:1"/>
<path class="bond-25 atom-8 atom-22" d="M 98.7,136.1 L 98.5,135.0" style="fill:none;fill-rule:evenodd;stroke:#000000;stroke-width:1.0px;stroke-linecap:butt;stroke-linejoin:miter;stroke-opacity:1"/>
<path class="bond-25 atom-8 atom-22" d="M 95.4,137.1 L 95.0,135.5" style="fill:none;fill-rule:evenodd;stroke:#000000;stroke-width:1.0px;stroke-linecap:butt;stroke-linejoin:miter;stroke-opacity:1"/>
<path class="bond-25 atom-8 atom-22" d="M 92.1,138.1 L 91.6,135.9" style="fill:none;fill-rule:evenodd;stroke:#000000;stroke-width:1.0px;stroke-linecap:butt;stroke-linejoin:miter;stroke-opacity:1"/>
<path class="bond-25 atom-8 atom-22" d="M 88.7,139.1 L 88.1,136.4" style="fill:none;fill-rule:evenodd;stroke:#000000;stroke-width:1.0px;stroke-linecap:butt;stroke-linejoin:miter;stroke-opacity:1"/>
<path class="bond-25 atom-8 atom-22" d="M 85.4,140.1 L 84.7,136.8" style="fill:none;fill-rule:evenodd;stroke:#000000;stroke-width:1.0px;stroke-linecap:butt;stroke-linejoin:miter;stroke-opacity:1"/>
<path class="bond-26 atom-9 atom-23" d="M 126.5,127.3 L 144.4,117.5 L 145.8,120.6 Z" style="fill:#000000;fill-rule:evenodd;fill-opacity:1;stroke:#000000;stroke-width:0.5px;stroke-linecap:butt;stroke-linejoin:miter;stroke-opacity:1;"/>
<path d="M 39.0,69.9 L 39.0,70.3 L 39.4,70.5" style="fill:none;stroke:#000000;stroke-width:2.0px;stroke-linecap:butt;stroke-linejoin:miter;stroke-opacity:1;"/>
<path d="M 105.2,98.5 L 105.4,98.2 L 106.5,98.6" style="fill:none;stroke:#000000;stroke-width:2.0px;stroke-linecap:butt;stroke-linejoin:miter;stroke-opacity:1;"/>
<path d="M 125.5,104.8 L 126.5,105.1 L 126.5,106.2" style="fill:none;stroke:#000000;stroke-width:2.0px;stroke-linecap:butt;stroke-linejoin:miter;stroke-opacity:1;"/>
<path d="M 101.0,154.8 L 100.8,155.9 L 101.0,156.1" style="fill:none;stroke:#000000;stroke-width:2.0px;stroke-linecap:butt;stroke-linejoin:miter;stroke-opacity:1;"/>
<path d="M 111.4,59.5 L 111.6,59.2 L 111.4,58.9" style="fill:none;stroke:#000000;stroke-width:2.0px;stroke-linecap:butt;stroke-linejoin:miter;stroke-opacity:1;"/>
<path class="atom-0" d="M 36.5 42.4 L 40.2 48.4 Q 40.6 49.0, 41.2 50.1 Q 41.8 51.2, 41.8 51.3 L 41.8 42.4 L 43.3 42.4 L 43.3 53.8 L 41.8 53.8 L 37.7 47.2 Q 37.3 46.4, 36.8 45.5 Q 36.3 44.6, 36.2 44.4 L 36.2 53.8 L 34.7 53.8 L 34.7 42.4 L 36.5 42.4 " fill="#0000FF"/>
<path class="atom-5" d="M 55.7 75.7 L 59.4 81.7 Q 59.8 82.3, 60.4 83.4 Q 61.0 84.5, 61.0 84.5 L 61.0 75.7 L 62.6 75.7 L 62.6 87.1 L 61.0 87.1 L 57.0 80.5 Q 56.5 79.7, 56.0 78.8 Q 55.5 77.9, 55.4 77.6 L 55.4 87.1 L 53.9 87.1 L 53.9 75.7 L 55.7 75.7 " fill="#0000FF"/>
<path class="atom-7" d="M 87.1 116.2 Q 87.1 113.5, 88.5 112.0 Q 89.8 110.4, 92.4 110.4 Q 94.9 110.4, 96.2 112.0 Q 97.6 113.5, 97.6 116.2 Q 97.6 119.0, 96.2 120.6 Q 94.9 122.2, 92.4 122.2 Q 89.8 122.2, 88.5 120.6 Q 87.1 119.0, 87.1 116.2 M 92.4 120.9 Q 94.1 120.9, 95.0 119.7 Q 96.0 118.5, 96.0 116.2 Q 96.0 114.0, 95.0 112.9 Q 94.1 111.7, 92.4 111.7 Q 90.6 111.7, 89.7 112.8 Q 88.7 114.0, 88.7 116.2 Q 88.7 118.5, 89.7 119.7 Q 90.6 120.9, 92.4 120.9 " fill="#FF0000"/>
<path class="atom-11" d="M 139.2 92.1 Q 139.2 89.3, 140.6 87.8 Q 141.9 86.3, 144.5 86.3 Q 147.0 86.3, 148.3 87.8 Q 149.7 89.3, 149.7 92.1 Q 149.7 94.9, 148.3 96.4 Q 147.0 98.0, 144.5 98.0 Q 141.9 98.0, 140.6 96.4 Q 139.2 94.9, 139.2 92.1 M 144.5 96.7 Q 146.2 96.7, 147.1 95.6 Q 148.1 94.4, 148.1 92.1 Q 148.1 89.8, 147.1 88.7 Q 146.2 87.6, 144.5 87.6 Q 142.7 87.6, 141.8 88.7 Q 140.8 89.8, 140.8 92.1 Q 140.8 94.4, 141.8 95.6 Q 142.7 96.7, 144.5 96.7 " fill="#FF0000"/>
<path class="atom-11" d="M 151.5 86.4 L 153.0 86.4 L 153.0 91.3 L 158.9 91.3 L 158.9 86.4 L 160.4 86.4 L 160.4 97.8 L 158.9 97.8 L 158.9 92.6 L 153.0 92.6 L 153.0 97.8 L 151.5 97.8 L 151.5 86.4 " fill="#FF0000"/>
<path class="atom-12" d="M 137.7 142.2 Q 137.7 139.4, 139.1 137.9 Q 140.5 136.4, 143.0 136.4 Q 145.5 136.4, 146.9 137.9 Q 148.2 139.4, 148.2 142.2 Q 148.2 145.0, 146.9 146.5 Q 145.5 148.1, 143.0 148.1 Q 140.5 148.1, 139.1 146.5 Q 137.7 145.0, 137.7 142.2 M 143.0 146.8 Q 144.7 146.8, 145.7 145.6 Q 146.6 144.5, 146.6 142.2 Q 146.6 139.9, 145.7 138.8 Q 144.7 137.7, 143.0 137.7 Q 141.3 137.7, 140.3 138.8 Q 139.4 139.9, 139.4 142.2 Q 139.4 144.5, 140.3 145.6 Q 141.3 146.8, 143.0 146.8 " fill="#FF0000"/>
<path class="atom-14" d="M 112.0 170.7 Q 112.0 168.0, 113.4 166.5 Q 114.7 164.9, 117.3 164.9 Q 119.8 164.9, 121.2 166.5 Q 122.5 168.0, 122.5 170.7 Q 122.5 173.5, 121.2 175.1 Q 119.8 176.7, 117.3 176.7 Q 114.8 176.7, 113.4 175.1 Q 112.0 173.5, 112.0 170.7 M 117.3 175.4 Q 119.0 175.4, 120.0 174.2 Q 120.9 173.0, 120.9 170.7 Q 120.9 168.5, 120.0 167.4 Q 119.0 166.2, 117.3 166.2 Q 115.5 166.2, 114.6 167.3 Q 113.6 168.5, 113.6 170.7 Q 113.6 173.0, 114.6 174.2 Q 115.5 175.4, 117.3 175.4 " fill="#FF0000"/>
<path class="atom-15" d="M 154.8 168.5 Q 154.8 165.8, 156.2 164.2 Q 157.6 162.7, 160.1 162.7 Q 162.6 162.7, 164.0 164.2 Q 165.3 165.8, 165.3 168.5 Q 165.3 171.3, 164.0 172.9 Q 162.6 174.4, 160.1 174.4 Q 157.6 174.4, 156.2 172.9 Q 154.8 171.3, 154.8 168.5 M 160.1 173.1 Q 161.8 173.1, 162.8 172.0 Q 163.7 170.8, 163.7 168.5 Q 163.7 166.3, 162.8 165.1 Q 161.8 164.0, 160.1 164.0 Q 158.3 164.0, 157.4 165.1 Q 156.5 166.2, 156.5 168.5 Q 156.5 170.8, 157.4 172.0 Q 158.3 173.1, 160.1 173.1 " fill="#FF0000"/>
<path class="atom-16" d="M 138.1 158.1 Q 140.1 158.1, 141.0 159.0 Q 142.0 159.9, 142.0 161.5 Q 142.0 163.1, 141.0 164.0 Q 140.0 164.9, 138.1 164.9 L 136.3 164.9 L 136.3 169.6 L 134.7 169.6 L 134.7 158.1 L 138.1 158.1 M 138.1 163.6 Q 139.2 163.6, 139.8 163.0 Q 140.4 162.5, 140.4 161.5 Q 140.4 160.5, 139.8 160.0 Q 139.2 159.4, 138.1 159.4 L 136.3 159.4 L 136.3 163.6 L 138.1 163.6 " fill="#FF7F00"/>
<path class="atom-17" d="M 140.0 185.0 Q 140.0 182.2, 141.4 180.7 Q 142.7 179.2, 145.2 179.2 Q 147.8 179.2, 149.1 180.7 Q 150.5 182.2, 150.5 185.0 Q 150.5 187.8, 149.1 189.3 Q 147.7 190.9, 145.2 190.9 Q 142.7 190.9, 141.4 189.3 Q 140.0 187.8, 140.0 185.0 M 145.2 189.6 Q 147.0 189.6, 147.9 188.5 Q 148.9 187.3, 148.9 185.0 Q 148.9 182.7, 147.9 181.6 Q 147.0 180.5, 145.2 180.5 Q 143.5 180.5, 142.5 181.6 Q 141.6 182.7, 141.6 185.0 Q 141.6 187.3, 142.5 188.5 Q 143.5 189.6, 145.2 189.6 " fill="#FF0000"/>
<path class="atom-17" d="M 152.1 181.0 L 156.0 181.0 L 156.0 181.9 L 152.1 181.9 L 152.1 181.0 " fill="#FF0000"/>
<path class="atom-18" d="M 96.0 71.4 L 99.8 77.5 Q 100.1 78.1, 100.7 79.2 Q 101.3 80.2, 101.4 80.3 L 101.4 71.4 L 102.9 71.4 L 102.9 82.9 L 101.3 82.9 L 97.3 76.2 Q 96.8 75.5, 96.3 74.6 Q 95.8 73.7, 95.7 73.4 L 95.7 82.9 L 94.2 82.9 L 94.2 71.4 L 96.0 71.4 " fill="#0000FF"/>
<path class="atom-20" d="M 96.0 35.5 L 99.8 41.6 Q 100.1 42.2, 100.7 43.3 Q 101.3 44.3, 101.4 44.4 L 101.4 35.5 L 102.9 35.5 L 102.9 46.9 L 101.3 46.9 L 97.3 40.3 Q 96.8 39.6, 96.3 38.7 Q 95.8 37.8, 95.7 37.5 L 95.7 46.9 L 94.2 46.9 L 94.2 35.5 L 96.0 35.5 " fill="#0000FF"/>
<path class="atom-21" d="M 55.7 9.1 L 59.4 15.1 Q 59.8 15.7, 60.4 16.8 Q 61.0 17.9, 61.0 18.0 L 61.0 9.1 L 62.6 9.1 L 62.6 20.5 L 61.0 20.5 L 57.0 13.9 Q 56.5 13.1, 56.0 12.2 Q 55.5 11.4, 55.4 11.1 L 55.4 20.5 L 53.9 20.5 L 53.9 9.1 L 55.7 9.1 " fill="#0000FF"/>
<path class="atom-21" d="M 64.7 9.1 L 66.3 9.1 L 66.3 13.9 L 72.1 13.9 L 72.1 9.1 L 73.7 9.1 L 73.7 20.5 L 72.1 20.5 L 72.1 15.2 L 66.3 15.2 L 66.3 20.5 L 64.7 20.5 L 64.7 9.1 " fill="#0000FF"/>
<path class="atom-21" d="M 75.9 20.1 Q 76.2 19.4, 76.9 19.0 Q 77.5 18.6, 78.4 18.6 Q 79.6 18.6, 80.2 19.2 Q 80.8 19.8, 80.8 20.9 Q 80.8 22.1, 80.0 23.1 Q 79.2 24.1, 77.5 25.4 L 81.0 25.4 L 81.0 26.2 L 75.9 26.2 L 75.9 25.5 Q 77.3 24.5, 78.1 23.8 Q 79.0 23.0, 79.4 22.4 Q 79.8 21.7, 79.8 21.0 Q 79.8 20.3, 79.4 19.9 Q 79.1 19.5, 78.4 19.5 Q 77.8 19.5, 77.4 19.7 Q 77.0 19.9, 76.7 20.5 L 75.9 20.1 " fill="#0000FF"/>
<path class="atom-22" d="M 74.6 134.0 L 76.2 134.0 L 76.2 138.9 L 82.0 138.9 L 82.0 134.0 L 83.6 134.0 L 83.6 145.5 L 82.0 145.5 L 82.0 140.2 L 76.2 140.2 L 76.2 145.5 L 74.6 145.5 L 74.6 134.0 " fill="#000000"/>
<path class="atom-23" d="M 146.6 110.6 L 148.2 110.6 L 148.2 115.5 L 154.0 115.5 L 154.0 110.6 L 155.5 110.6 L 155.5 122.1 L 154.0 122.1 L 154.0 116.8 L 148.2 116.8 L 148.2 122.1 L 146.6 122.1 L 146.6 110.6 " fill="#000000"/>
</svg>