<svg xmlns="http://www.w3.org/2000/svg" xmlns:rdkit="http://www.rdkit.org/xml" xmlns:xlink="http://www.w3.org/1999/xlink" viewBox="-4.4 4.0 208.8 192.0">
<path class="bond-0 atom-1 atom-0" d="M 86.6,120.3 L 15.6,161.3" style="fill:none;fill-rule:evenodd;stroke:#000000;stroke-width:2.0px;stroke-linecap:butt;stroke-linejoin:miter;stroke-opacity:1"/>
<path class="bond-1 atom-2 atom-1" d="M 141.9,152.2 L 114.3,136.2" style="fill:none;fill-rule:evenodd;stroke:#FF0000;stroke-width:2.0px;stroke-linecap:butt;stroke-linejoin:miter;stroke-opacity:1"/>
<path class="bond-1 atom-2 atom-1" d="M 114.3,136.2 L 86.6,120.3" style="fill:none;fill-rule:evenodd;stroke:#000000;stroke-width:2.0px;stroke-linecap:butt;stroke-linejoin:miter;stroke-opacity:1"/>
<path class="bond-2 atom-3 atom-1" d="M 92.8,55.8 L 92.8,89.8" style="fill:none;fill-rule:evenodd;stroke:#FF0000;stroke-width:2.0px;stroke-linecap:butt;stroke-linejoin:miter;stroke-opacity:1"/>
<path class="bond-2 atom-3 atom-1" d="M 92.8,89.8 L 92.8,123.8" style="fill:none;fill-rule:evenodd;stroke:#000000;stroke-width:2.0px;stroke-linecap:butt;stroke-linejoin:miter;stroke-opacity:1"/>
<path class="bond-2 atom-3 atom-1" d="M 80.5,55.8 L 80.5,89.8" style="fill:none;fill-rule:evenodd;stroke:#FF0000;stroke-width:2.0px;stroke-linecap:butt;stroke-linejoin:miter;stroke-opacity:1"/>
<path class="bond-2 atom-3 atom-1" d="M 80.5,89.8 L 80.5,123.8" style="fill:none;fill-rule:evenodd;stroke:#000000;stroke-width:2.0px;stroke-linecap:butt;stroke-linejoin:miter;stroke-opacity:1"/>
<path d="M 83.1,122.3 L 86.6,120.3 L 88.0,121.1" style="fill:none;stroke:#000000;stroke-width:2.0px;stroke-linecap:butt;stroke-linejoin:miter;stroke-opacity:1;"/>
<path class="atom-2" d="M 144.6 161.3 Q 144.6 154.5, 148.0 150.7 Q 151.4 146.9, 157.6 146.9 Q 163.9 146.9, 167.3 150.7 Q 170.6 154.5, 170.6 161.3 Q 170.6 168.2, 167.2 172.1 Q 163.8 176.0, 157.6 176.0 Q 151.4 176.0, 148.0 172.1 Q 144.6 168.3, 144.6 161.3 M 157.6 172.8 Q 162.0 172.8, 164.3 169.9 Q 166.6 167.0, 166.6 161.3 Q 166.6 155.8, 164.3 153.0 Q 162.0 150.1, 157.6 150.1 Q 153.3 150.1, 151.0 152.9 Q 148.6 155.7, 148.6 161.3 Q 148.6 167.1, 151.0 169.9 Q 153.3 172.8, 157.6 172.8 " fill="#FF0000"/>
<path class="atom-2" d="M 174.7 151.6 L 184.4 151.6 L 184.4 153.7 L 174.7 153.7 L 174.7 151.6 " fill="#FF0000"/>
<path class="atom-3" d="M 73.6 38.4 Q 73.6 31.6, 77.0 27.8 Q 80.4 24.0, 86.6 24.0 Q 92.9 24.0, 96.3 27.8 Q 99.6 31.6, 99.6 38.4 Q 99.6 45.3, 96.2 49.2 Q 92.8 53.1, 86.6 53.1 Q 80.4 53.1, 77.0 49.2 Q 73.6 45.3, 73.6 38.4 M 86.6 49.9 Q 91.0 49.9, 93.3 47.0 Q 95.6 44.1, 95.6 38.4 Q 95.6 32.8, 93.3 30.0 Q 91.0 27.2, 86.6 27.2 Q 82.3 27.2, 80.0 30.0 Q 77.6 32.8, 77.6 38.4 Q 77.6 44.1, 80.0 47.0 Q 82.3 49.9, 86.6 49.9 " fill="#FF0000"/>
</svg>