<svg xmlns="http://www.w3.org/2000/svg" xmlns:rdkit="http://www.rdkit.org/xml" xmlns:xlink="http://www.w3.org/1999/xlink" viewBox="-10.9 63.900000000000006 221.8 72.89999999999999">
<path class="bond-0 atom-0 atom-8" d="M 166.2,88.9 L 166.2,92.5" style="fill:none;fill-rule:evenodd;stroke:#000000;stroke-width:2.0px;stroke-linecap:butt;stroke-linejoin:miter;stroke-opacity:1"/>
<path class="bond-0 atom-0 atom-8" d="M 166.2,92.5 L 166.2,96.0" style="fill:none;fill-rule:evenodd;stroke:#FF0000;stroke-width:2.0px;stroke-linecap:butt;stroke-linejoin:miter;stroke-opacity:1"/>
<path class="bond-1 atom-0 atom-1" d="M 163.5,86.9 L 163.1,87.5" style="fill:none;fill-rule:evenodd;stroke:#000000;stroke-width:1.0px;stroke-linecap:butt;stroke-linejoin:miter;stroke-opacity:1"/>
<path class="bond-1 atom-0 atom-1" d="M 160.8,84.9 L 160.0,86.2" style="fill:none;fill-rule:evenodd;stroke:#000000;stroke-width:1.0px;stroke-linecap:butt;stroke-linejoin:miter;stroke-opacity:1"/>
<path class="bond-2 atom-0 atom-2" d="M 166.2,88.9 L 174.9,83.9" style="fill:none;fill-rule:evenodd;stroke:#000000;stroke-width:2.0px;stroke-linecap:butt;stroke-linejoin:miter;stroke-opacity:1"/>
<path class="bond-3 atom-3 atom-4" d="M 140.0,83.9 L 143.0,85.6" style="fill:none;fill-rule:evenodd;stroke:#000000;stroke-width:2.0px;stroke-linecap:butt;stroke-linejoin:miter;stroke-opacity:1"/>
<path class="bond-3 atom-3 atom-4" d="M 143.0,85.6 L 146.0,87.3" style="fill:none;fill-rule:evenodd;stroke:#FF0000;stroke-width:2.0px;stroke-linecap:butt;stroke-linejoin:miter;stroke-opacity:1"/>
<path class="bond-4 atom-4 atom-1" d="M 151.5,87.3 L 154.5,85.6" style="fill:none;fill-rule:evenodd;stroke:#FF0000;stroke-width:2.0px;stroke-linecap:butt;stroke-linejoin:miter;stroke-opacity:1"/>
<path class="bond-4 atom-4 atom-1" d="M 154.5,85.6 L 157.5,83.9" style="fill:none;fill-rule:evenodd;stroke:#000000;stroke-width:2.0px;stroke-linecap:butt;stroke-linejoin:miter;stroke-opacity:1"/>
<path class="bond-5 atom-5 atom-2" d="M 180.9,87.3 L 177.9,85.6" style="fill:none;fill-rule:evenodd;stroke:#FF0000;stroke-width:2.0px;stroke-linecap:butt;stroke-linejoin:miter;stroke-opacity:1"/>
<path class="bond-5 atom-5 atom-2" d="M 177.9,85.6 L 174.9,83.9" style="fill:none;fill-rule:evenodd;stroke:#000000;stroke-width:2.0px;stroke-linecap:butt;stroke-linejoin:miter;stroke-opacity:1"/>
<path class="bond-6 atom-6 atom-8" d="M 157.5,104.0 L 160.5,102.3" style="fill:none;fill-rule:evenodd;stroke:#000000;stroke-width:2.0px;stroke-linecap:butt;stroke-linejoin:miter;stroke-opacity:1"/>
<path class="bond-6 atom-6 atom-8" d="M 160.5,102.3 L 163.5,100.5" style="fill:none;fill-rule:evenodd;stroke:#FF0000;stroke-width:2.0px;stroke-linecap:butt;stroke-linejoin:miter;stroke-opacity:1"/>
<path class="bond-7 atom-7 atom-6" d="M 156.7,111.1 L 156.7,107.4" style="fill:none;fill-rule:evenodd;stroke:#FF0000;stroke-width:2.0px;stroke-linecap:butt;stroke-linejoin:miter;stroke-opacity:1"/>
<path class="bond-7 atom-7 atom-6" d="M 156.7,107.4 L 156.7,103.6" style="fill:none;fill-rule:evenodd;stroke:#000000;stroke-width:2.0px;stroke-linecap:butt;stroke-linejoin:miter;stroke-opacity:1"/>
<path class="bond-7 atom-7 atom-6" d="M 158.2,111.1 L 158.2,107.4" style="fill:none;fill-rule:evenodd;stroke:#FF0000;stroke-width:2.0px;stroke-linecap:butt;stroke-linejoin:miter;stroke-opacity:1"/>
<path class="bond-7 atom-7 atom-6" d="M 158.2,107.4 L 158.2,103.6" style="fill:none;fill-rule:evenodd;stroke:#000000;stroke-width:2.0px;stroke-linecap:butt;stroke-linejoin:miter;stroke-opacity:1"/>
<path class="bond-8 atom-6 atom-9" d="M 157.5,104.0 L 148.7,99.0" style="fill:none;fill-rule:evenodd;stroke:#000000;stroke-width:2.0px;stroke-linecap:butt;stroke-linejoin:miter;stroke-opacity:1"/>
<path class="bond-9 atom-3 atom-10" d="M 140.0,83.9 L 131.3,88.9" style="fill:none;fill-rule:evenodd;stroke:#000000;stroke-width:2.0px;stroke-linecap:butt;stroke-linejoin:miter;stroke-opacity:1"/>
<path class="bond-10 atom-10 atom-11" d="M 131.3,88.9 L 122.6,83.9" style="fill:none;fill-rule:evenodd;stroke:#000000;stroke-width:2.0px;stroke-linecap:butt;stroke-linejoin:miter;stroke-opacity:1"/>
<path class="bond-11 atom-11 atom-12" d="M 122.6,83.9 L 113.8,88.9" style="fill:none;fill-rule:evenodd;stroke:#000000;stroke-width:2.0px;stroke-linecap:butt;stroke-linejoin:miter;stroke-opacity:1"/>
<path class="bond-12 atom-12 atom-13" d="M 113.8,88.9 L 105.1,83.9" style="fill:none;fill-rule:evenodd;stroke:#000000;stroke-width:2.0px;stroke-linecap:butt;stroke-linejoin:miter;stroke-opacity:1"/>
<path class="bond-13 atom-13 atom-14" d="M 105.1,83.9 L 96.4,88.9" style="fill:none;fill-rule:evenodd;stroke:#000000;stroke-width:2.0px;stroke-linecap:butt;stroke-linejoin:miter;stroke-opacity:1"/>
<path class="bond-14 atom-14 atom-15" d="M 96.4,88.9 L 87.6,83.9" style="fill:none;fill-rule:evenodd;stroke:#000000;stroke-width:2.0px;stroke-linecap:butt;stroke-linejoin:miter;stroke-opacity:1"/>
<path class="bond-15 atom-15 atom-16" d="M 87.6,83.9 L 78.9,88.9" style="fill:none;fill-rule:evenodd;stroke:#000000;stroke-width:2.0px;stroke-linecap:butt;stroke-linejoin:miter;stroke-opacity:1"/>
<path class="bond-16 atom-16 atom-17" d="M 78.9,88.9 L 70.2,83.9" style="fill:none;fill-rule:evenodd;stroke:#000000;stroke-width:2.0px;stroke-linecap:butt;stroke-linejoin:miter;stroke-opacity:1"/>
<path class="bond-17 atom-17 atom-18" d="M 70.2,83.9 L 61.5,88.9" style="fill:none;fill-rule:evenodd;stroke:#000000;stroke-width:2.0px;stroke-linecap:butt;stroke-linejoin:miter;stroke-opacity:1"/>
<path class="bond-18 atom-18 atom-19" d="M 61.5,88.9 L 52.7,83.9" style="fill:none;fill-rule:evenodd;stroke:#000000;stroke-width:2.0px;stroke-linecap:butt;stroke-linejoin:miter;stroke-opacity:1"/>
<path class="bond-19 atom-19 atom-20" d="M 52.7,83.9 L 44.0,88.9" style="fill:none;fill-rule:evenodd;stroke:#000000;stroke-width:2.0px;stroke-linecap:butt;stroke-linejoin:miter;stroke-opacity:1"/>
<path class="bond-20 atom-20 atom-21" d="M 44.0,88.9 L 35.3,83.9" style="fill:none;fill-rule:evenodd;stroke:#000000;stroke-width:2.0px;stroke-linecap:butt;stroke-linejoin:miter;stroke-opacity:1"/>
<path class="bond-21 atom-21 atom-22" d="M 35.3,83.9 L 26.5,88.9" style="fill:none;fill-rule:evenodd;stroke:#000000;stroke-width:2.0px;stroke-linecap:butt;stroke-linejoin:miter;stroke-opacity:1"/>
<path class="bond-22 atom-22 atom-23" d="M 26.5,88.9 L 17.8,83.9" style="fill:none;fill-rule:evenodd;stroke:#000000;stroke-width:2.0px;stroke-linecap:butt;stroke-linejoin:miter;stroke-opacity:1"/>
<path class="bond-23 atom-23 atom-24" d="M 17.8,83.9 L 9.1,88.9" style="fill:none;fill-rule:evenodd;stroke:#000000;stroke-width:2.0px;stroke-linecap:butt;stroke-linejoin:miter;stroke-opacity:1"/>
<path d="M 166.2,89.1 L 166.2,88.9 L 166.6,88.6" style="fill:none;stroke:#000000;stroke-width:2.0px;stroke-linecap:butt;stroke-linejoin:miter;stroke-opacity:1;"/>
<path d="M 174.5,84.1 L 174.9,83.9 L 175.1,83.9" style="fill:none;stroke:#000000;stroke-width:2.0px;stroke-linecap:butt;stroke-linejoin:miter;stroke-opacity:1;"/>
<path d="M 140.2,83.9 L 140.0,83.9 L 139.6,84.1" style="fill:none;stroke:#000000;stroke-width:2.0px;stroke-linecap:butt;stroke-linejoin:miter;stroke-opacity:1;"/>
<path d="M 157.6,103.9 L 157.5,104.0 L 157.0,103.8" style="fill:none;stroke:#000000;stroke-width:2.0px;stroke-linecap:butt;stroke-linejoin:miter;stroke-opacity:1;"/>
<path d="M 131.7,88.6 L 131.3,88.9 L 130.9,88.6" style="fill:none;stroke:#000000;stroke-width:2.0px;stroke-linecap:butt;stroke-linejoin:miter;stroke-opacity:1;"/>
<path d="M 123.0,84.1 L 122.6,83.9 L 122.1,84.1" style="fill:none;stroke:#000000;stroke-width:2.0px;stroke-linecap:butt;stroke-linejoin:miter;stroke-opacity:1;"/>
<path d="M 114.3,88.6 L 113.8,88.9 L 113.4,88.6" style="fill:none;stroke:#000000;stroke-width:2.0px;stroke-linecap:butt;stroke-linejoin:miter;stroke-opacity:1;"/>
<path d="M 105.5,84.1 L 105.1,83.9 L 104.7,84.1" style="fill:none;stroke:#000000;stroke-width:2.0px;stroke-linecap:butt;stroke-linejoin:miter;stroke-opacity:1;"/>
<path d="M 96.8,88.6 L 96.4,88.9 L 95.9,88.6" style="fill:none;stroke:#000000;stroke-width:2.0px;stroke-linecap:butt;stroke-linejoin:miter;stroke-opacity:1;"/>
<path d="M 88.1,84.1 L 87.6,83.9 L 87.2,84.1" style="fill:none;stroke:#000000;stroke-width:2.0px;stroke-linecap:butt;stroke-linejoin:miter;stroke-opacity:1;"/>
<path d="M 79.4,88.6 L 78.9,88.9 L 78.5,88.6" style="fill:none;stroke:#000000;stroke-width:2.0px;stroke-linecap:butt;stroke-linejoin:miter;stroke-opacity:1;"/>
<path d="M 70.6,84.1 L 70.2,83.9 L 69.8,84.1" style="fill:none;stroke:#000000;stroke-width:2.0px;stroke-linecap:butt;stroke-linejoin:miter;stroke-opacity:1;"/>
<path d="M 61.9,88.6 L 61.5,88.9 L 61.0,88.6" style="fill:none;stroke:#000000;stroke-width:2.0px;stroke-linecap:butt;stroke-linejoin:miter;stroke-opacity:1;"/>
<path d="M 53.2,84.1 L 52.7,83.9 L 52.3,84.1" style="fill:none;stroke:#000000;stroke-width:2.0px;stroke-linecap:butt;stroke-linejoin:miter;stroke-opacity:1;"/>
<path d="M 44.4,88.6 L 44.0,88.9 L 43.6,88.6" style="fill:none;stroke:#000000;stroke-width:2.0px;stroke-linecap:butt;stroke-linejoin:miter;stroke-opacity:1;"/>
<path d="M 35.7,84.1 L 35.3,83.9 L 34.8,84.1" style="fill:none;stroke:#000000;stroke-width:2.0px;stroke-linecap:butt;stroke-linejoin:miter;stroke-opacity:1;"/>
<path d="M 27.0,88.6 L 26.5,88.9 L 26.1,88.6" style="fill:none;stroke:#000000;stroke-width:2.0px;stroke-linecap:butt;stroke-linejoin:miter;stroke-opacity:1;"/>
<path d="M 18.3,84.1 L 17.8,83.9 L 17.4,84.1" style="fill:none;stroke:#000000;stroke-width:2.0px;stroke-linecap:butt;stroke-linejoin:miter;stroke-opacity:1;"/>
<path class="atom-4" d="M 146.4 88.9 Q 146.4 87.7, 147.0 87.0 Q 147.6 86.3, 148.7 86.3 Q 149.9 86.3, 150.5 87.0 Q 151.1 87.7, 151.1 88.9 Q 151.1 90.2, 150.5 90.9 Q 149.9 91.6, 148.7 91.6 Q 147.6 91.6, 147.0 90.9 Q 146.4 90.2, 146.4 88.9 M 148.7 91.0 Q 149.5 91.0, 150.0 90.5 Q 150.4 90.0, 150.4 88.9 Q 150.4 87.9, 150.0 87.4 Q 149.5 86.9, 148.7 86.9 Q 148.0 86.9, 147.5 87.4 Q 147.1 87.9, 147.1 88.9 Q 147.1 90.0, 147.5 90.5 Q 148.0 91.0, 148.7 91.0 " fill="#FF0000"/>
<path class="atom-5" d="M 181.3 88.9 Q 181.3 87.7, 181.9 87.0 Q 182.5 86.3, 183.7 86.3 Q 184.8 86.3, 185.4 87.0 Q 186.0 87.7, 186.0 88.9 Q 186.0 90.2, 185.4 90.9 Q 184.8 91.6, 183.7 91.6 Q 182.5 91.6, 181.9 90.9 Q 181.3 90.2, 181.3 88.9 M 183.7 91.0 Q 184.4 91.0, 184.9 90.5 Q 185.3 90.0, 185.3 88.9 Q 185.3 87.9, 184.9 87.4 Q 184.4 86.9, 183.7 86.9 Q 182.9 86.9, 182.4 87.4 Q 182.0 87.9, 182.0 88.9 Q 182.0 90.0, 182.4 90.5 Q 182.9 91.0, 183.7 91.0 " fill="#FF0000"/>
<path class="atom-5" d="M 186.8 86.3 L 187.6 86.3 L 187.6 88.5 L 190.2 88.5 L 190.2 86.3 L 190.9 86.3 L 190.9 91.5 L 190.2 91.5 L 190.2 89.1 L 187.6 89.1 L 187.6 91.5 L 186.8 91.5 L 186.8 86.3 " fill="#FF0000"/>
<path class="atom-7" d="M 155.1 114.1 Q 155.1 112.9, 155.7 112.2 Q 156.3 111.5, 157.5 111.5 Q 158.6 111.5, 159.2 112.2 Q 159.9 112.9, 159.9 114.1 Q 159.9 115.4, 159.2 116.1 Q 158.6 116.8, 157.5 116.8 Q 156.3 116.8, 155.7 116.1 Q 155.1 115.4, 155.1 114.1 M 157.5 116.2 Q 158.3 116.2, 158.7 115.7 Q 159.1 115.1, 159.1 114.1 Q 159.1 113.1, 158.7 112.6 Q 158.3 112.1, 157.5 112.1 Q 156.7 112.1, 156.3 112.6 Q 155.8 113.1, 155.8 114.1 Q 155.8 115.2, 156.3 115.7 Q 156.7 116.2, 157.5 116.2 " fill="#FF0000"/>
<path class="atom-8" d="M 163.8 99.0 Q 163.8 97.7, 164.4 97.0 Q 165.1 96.4, 166.2 96.4 Q 167.4 96.4, 168.0 97.0 Q 168.6 97.7, 168.6 99.0 Q 168.6 100.3, 168.0 101.0 Q 167.3 101.7, 166.2 101.7 Q 165.1 101.7, 164.4 101.0 Q 163.8 100.3, 163.8 99.0 M 166.2 101.1 Q 167.0 101.1, 167.4 100.6 Q 167.9 100.0, 167.9 99.0 Q 167.9 98.0, 167.4 97.5 Q 167.0 96.9, 166.2 96.9 Q 165.4 96.9, 165.0 97.5 Q 164.6 98.0, 164.6 99.0 Q 164.6 100.0, 165.0 100.6 Q 165.4 101.1, 166.2 101.1 " fill="#FF0000"/>
</svg>